<mxfile host="app.diagrams.net" modified="2022-05-01T09:20:12.614Z" agent="5.0 (Windows NT 10.0; Win64; x64) AppleWebKit/537.36 (KHTML, like Gecko) Chrome/100.0.4896.127 Safari/537.36" etag="uCRUUZaPALUtbBZiQZTd" version="17.5.0" type="github">
  <diagram id="XMzUUtJlFpvdUDOH6lJ6" name="第 1 页">
    <mxGraphModel dx="782" dy="436" grid="1" gridSize="10" guides="1" tooltips="1" connect="1" arrows="1" fold="1" page="1" pageScale="1" pageWidth="827" pageHeight="1169" math="0" shadow="0">
      <root>
        <mxCell id="0" />
        <mxCell id="1" parent="0" />
        <mxCell id="OrkMJTo7WvPgTI57yorY-2" value="" style="shape=image;imageAspect=0;aspect=fixed;verticalLabelPosition=bottom;verticalAlign=top;image=data:image/jpeg,/9j/4AAQSkZJRgABAQEAkACQAAD/2wBDAAMCAgMCAgMDAwMEAwMEBQgFBQQEBQoHBwYIDAoMDAsKCwsNDhIQDQ4RDgsLEBYQERMUFRUVDA8XGBYUGBIUFRT/2wBDAQMEBAUEBQkFBQkUDQsNFBQUFBQUFBQUFBQUFBQUFBQUFBQUFBQUFBQUFBQUFBQUFBQUFBQUFBQUFBQUFBQUFBT/wAARCAFRA0gDASIAAhEBAxEB/8QAHwAAAQUBAQEBAQEAAAAAAAAAAAECAwQFBgcICQoL/8QAtRAAAgEDAwIEAwUFBAQAAAF9AQIDAAQRBRIhMUEGE1FhByJxFDKBkaEII0KxwRVS0fAkM2JyggkKFhcYGRolJicoKSo0NTY3ODk6Q0RFRkdISUpTVFVWV1hZWmNkZWZnaGlqc3R1dnd4eXqDhIWGh4iJipKTlJWWl5iZmqKjpKWmp6ipqrKztLW2t7i5usLDxMXGx8jJytLT1NXW19jZ2uHi4+Tl5ufo6erx8vP09fb3+Pn6/8QAHwEAAwEBAQEBAQEBAQAAAAAAAAECAwQFBgcICQoL/8QAtREAAgECBAQDBAcFBAQAAQJ3AAECAxEEBSExBhJBUQdhcRMiMoEIFEKRobHBCSMzUvAVYnLRChYkNOEl8RcYGRomJygpKjU2Nzg5OkNERUZHSElKU1RVVldYWVpjZGVmZ2hpanN0dXZ3eHl6goOEhYaHiImKkpOUlZaXmJmaoqOkpaanqKmqsrO0tba3uLm6wsPExcbHyMnK0tPU1dbX2Nna4uPk5ebn6Onq8vP09fb3+Pn6/9oADAMBAAIRAxEAPwD5Q/4TSy/55XH/AHyv/wAVR/wmll/zyuP++V/+Kri6KrmZzfV4Haf8JpZf88rj/vlf/iqP+E0sv+eVx/3yv/xVcXRRzMPq8DtP+E0sv+eVx/3yv/xVc5dahHPdTSKrBXdmGQM8n61nUUrmkKcaesS59sT0aj7Yno1U6KRqXPtiejUfbE9Gq54T8I6x461yDR9CsZNR1KYMY7eMgEhVLE5JAGAD1NZlzby2dxLBPG0U0TlHjYYKsDgg++anmjzcl9ew7O3NbQ0tS8RXesSQvf3l1fPDEsEbXMpkKRr91FJJwo7AcCqn2xPRqp0VQi59sT0aj7Yno1U6KALn2xPRqPtiejVTooAufbE9Gq5HrEKxqCsmQMdB/jWPRQBs/wBsw/3ZPyH+NH9sw/3ZPyH+NY1FAGz/AGzD/dk/If41FcapFNGAFcHOeQP8ay6KALn2xPRqux2ryRq4K4YZGaxq6O1/49Yf9xf5UAV/sMnqv50fYZPVfzq7RQBq+OvGniP4latDqfiPUV1G+igFskvkxxYjDMwXCKo6u3OM81y91GbWMO/IJx8tadUNZ/49V/3x/I0AUvtiejUfbE9GqnRQBc+2J6NR9sT0aqdFAFz7Yno1H2xPRqp0UAXPtiejUfbE9GqnRQBc+2J6NR9sT0aqdFAFz7Yno1H2xPRqp0UAXPtiejUfbE9GqnRQBc+2J6NR9sT0aqdFAFz7Yno1H2xPRqp0UAXPtiejUfbE9GqnRQBc+2J6NR9sT0aqdFAFz7Yno1H2xPRqp0UAXPtiejUfbE9GqnRQBc+2J6NR9sT0aqdFAFz7Yno1H2xPRqp0UAXPtiejUfbE9GqnRQBc+2J6NR9sT0aqdFAFz7Yno1H2xPRqp0UAXPtiejUfbE9GqnRQBc+2J6NR9sT0aqdFAFz7Yno1H2xPRqp0UAXPtiejUfbE9GqnRQBc+2J6NR9sT0aqdFAFz7Yno1H2xPRqp0UAXPtiejUfbE9GqnRQBc+2J6NR9sT0aqdFAFz7Yno1H2xPRqp0UAXPtiejUfbE9GqnRQBc+2J6NR9sT0aqdFAFz7Yno1H2xPRqp0UAXPtiejUfbE9GqnRQBc+2J6NR9sT0aqdFAFz7Yno1H2xPRqp0UAXPtiejUfbE9GqnRQBc+2J6NR9sT0aqdFAFz7Yno1H2xPRqp0UAXPtiejUfbE9GqnRQBc+2J6NR9sT0aqdFAFz7Yno1FU6KACiiigAooooAK73wV8KX8RaBJ4l1nWrLwz4VinNs2oXRMsksgAYxwwp8zsAQew561wVdf4H+K3iP4fpNb6bdpPpVwf8ASdJvoxcWdx674m45wORg8da58QqrptUXaX9euvyfoaU+TmXPsXrnQfDXjLxx4e8NeCYtQgiup47J9Q1Z1Mk8juB5nlpwigHhQScdTmvZPhxoHgHw/wCOPGOmeGL/AFyfVNN0LVLa4k1RIvIudsRV2i2YZMMOA2cjPIIwfJY/iN4e0/4i+F/FejeGP7COn3UV1fafb3JkgkdJAxMO7lAR/CSQD0r0fRfEHwx8J+M/F3iOz8aXGoHXNO1CO2s20qaM20k6khJHwdxydo2jHOSRjnwsYq0qXJaVnGWm7cvO1/lsux6OHcPbKWmko+WnW1+2lzif2fbHwvrHjDS9M1G78UaZ4gvr1baz1Dw/exWywq42ksWRmzy33T0Nczo/h/RpvizFoet3N4miNqzWU91FIonVDIUDlmUjI4J49a6f4Cr4P0HxRofinxB41g0SfTNQWY6Y+nXM7yIuDuDxoVGckY68VgfFTTPDdvrU2peHvF8PiU391NPJFDYXFsbYFty5MqjdnJHHpXdzf7XKPvWatezsn5O1vxtc5eW9B7Xv3V+vT7je0H4N20fxJ8Y6L4hmurfR/C1teXd5PbFUldI+IgpZSAXZo+3QmvKK+gfid8XvDWv/AAzmm0q8aTxn4mh0+31+HyJE8sWqsCwcqFbewjPyk8Dmvn2tMDKvUTlXTTVl80tWvVt/JIeIVNW9n1u/RPZfK34mh4f0r+3te03TfOS2+2XMdv50n3Y97Bdx9hnNerfEH4d+AfBtxrOjSyeLtL1ixEiW9/qdtGbK8lTsqqoZVf8AhbJ4IJryPTPsn9pWv9oCY2Pmr9o+zECXy8jdszxuxnGeM19CWPxG8OeF9D163m+JepeNtDurCa2tPDWoWE5dWZcRl5JPkTYcHKHtwO1enL4Lrz/4H9feccfj18v6/r5Gf+zfJ4L+x+JhdQa8daHhzUTfNDNCLc2+BuEQKbhJt24LEjOeK8/S1+HmreOPD9pYDxFZeH7iZYdQl1C4gM6bmwHRlj2gDOTkHoak+CfivSfC/iTVY9buZLHTtW0i60p7yOIy/ZzKgAkKDlgCOg55rnvGWh6JoN9BFoXiWLxNbvHue4is5rYRtkjbtkAJ4wcjjmqbXPGT2svzegl8Eore7/JHcaT8Gbaz8feN9L8QzXUGjeFrW4up57ZlSSULxAFLKQDIWQ9Oma6T9n34keJdQGs+F7jV55dAt/DuoNFYsF2IRESO2epPfvV34ueNo5vgb4ZuDC1v4i8WwQDU5G+9PBZFo43P++xVvfbXmnwT8X6X4P8AGM8usyyW2m3+n3OnS3MUZkMHmxlRJtHLAHGQOazs7Tp3vZNers9fxt8irr3andp+iutPwfqcv4R8Nz+MPFGk6HausdxqF1HbJI/3VLsBk+wzmvY7/wCBfhvUBr+maGviy31nSLae4W+1eyRLC98kEuqYAZNwBKkk571xVtJ4e+FvjTwxr2h+J4fF62d6tzPDBYz2pjVGU4zKoyWG7GOmOa7vxZ8QNIuIde1CH4veMNVhvY5TZeH4GuYGjZydsczuxjMag4IXOR0xVS+DTfX9Lfr+oo/Frtp+bv8A19x5b4V8LeGdY0wz6v41t/D915hUWkunXE5KgDDbo1I5yeOvFZ/i3RdG0O7gj0bxFD4jhdNzzQ2ktuI2z93EgBPHORWh4V+IEPhjTDZyeE/DutsZDJ9p1W1kklGQPlysijAx6dzWf4u8VR+KrqCePQtJ0IRJsMWkQvEj853MGdsmuOPtVWu2+X/t235X/EmN9bnq/jz4raDrr/FU2t95o16HS0sf3Mi+aYSnmDlflxg/exnHGa8ttf8Aj1h/3F/lXOV3Xgu20e7vrWPXbuay04xZaa3TcwbbwOh7+xqsPhoYaPJDy38kl+SGvdVl/WiX6GbRUt0sS3MqwO0kAciNmGCVzwSPXFa+qWmhReH9Nmsb64n1eQn7XbyR4SP02nH9T+FdXS4+tjDqjrP/AB6p/vj+RrpfC1to93rEceu3c1lpxVi01um5g2OB0Pf2Nc94iWJQ6wO0kAmIjZhglecEj1xT2aA9X8efFbQddf4qm1vvNGvQ6Wlj+5kXzTCU8wcr8uMH72M44zXC+CbPwFr2jtpniG91Dw3rfms0GtRp9os2UgYSaIfOuCD8yZ+9yOK4Su58F+PNF8EaO00Pha01jxQZWMeoasxmtraPA27Lf7rPnJ3PkDjAry/qqw9Fwo3vps1fRKK302Wt0/ToXStFpdPP0t+hQ+IHw51P4d3tnFfTWd7aX0P2my1DT7gTQXUWcb0I568YIBrla2/FnjTXPHWqHUde1O41O7xtV5m4Rf7qKOFX2UAViV20VUVNKs1zdbDqcjk/Z7BRRRWxmFFFFABRRRQAUUUUAFFFFABRRRQAUUUUAFFFFABRRRQAUUUUAFFFFABRRRQAUUUUAFFFFABRRRQAUUUUAFFFFABRRRQAUUUUAFFFFABRRRQAUUUUAFFFFABRRRQAUUUUAFFFFABRRRQAUUUUAFFFFABRRRQAUUUUAFFFFABRRRQAUUUUAFFFFABRRRQAUUUUAFFFFABRRRQA6ONpXCqMsabVjT/+PuP8f5Gq9ABRRRQAUUUUAFFFFABRRRQAUUUUAa/iLxZqvixtPOqXX2n7BaR2NsojSNYoUztQBQBxk89T3NZFFFABRRRQAUUUUAFbdvqNvHbxq0mGVQD8p9PpWJRQBvf2nbf89f8Ax0/4Uf2nbf8APX/x0/4Vg1Zt9NvLq0uLqC0nmtrbaZ5o42ZIsnA3MBhcnpmk2luBq/2nbf8APX/x0/4VU1O8huLdVjfc27PQjsazKKYBRRRQAUUUUAFFFFABRRVnT9Ou9WuktbG1mvLl87YbeMu7YGThQMngUm7K7ArUUrKVYgjBHBBpKYBRRRQAVqw+GNTuIUljtt0bqGU+YoyCMjvWVXqWj/8AIIsf+uCf+giuetUdNJoqKueeX2h3umQiW5g8uMttB3qecE9j7VQru/HX/IIh/wCu4/8AQWrhKqlN1I3YmrMKKKK2EFFFFABRRRQAUUUUAFFFFABRRRQAUUUUAFFWZtNvLazt7ua0nitLjcIZ3jYJLtOG2sRg4PXFVqV09gCiiimAUUUUAFFFFABRRRQAUVNeWdxp9w0F1BJbTrgmOZCjDIyMg+xFQ0AFFFFABRUlvBLdTxwwxvNNIwRI41LMzE4AAHUk1LDpt3cXEsEVrNLPEGaSJIyWQLyxIAyAMHPpigCtRRRQAUUUUAFFFFABRRRQAUUUUAFFFFABRRRQAUUUUAFFFFABRRRQAUUUUAFFFFABRRRQAUUUUAFFFFABRRRQAUUUUAFFFFAFjT/+PuP8f5Gq9WNP/wCPuP8AH+RqvQAUUUUAFFFFABXY+CfhTr/jq1mv7WODT9Et223OtanMLezgPoZG6nkfKoJ5HFcdXd+CPixc+FtHk0DU9I0/xN4XlmM8ml6hHgpIQAZIplw8TkADIOOOlc+IdZU37C3N5/1v26GlPk5l7TYo+KvDnh2z1vTdJ8OeIf7aeQiK61K5i+yWglZsDYXOfLA6u2PXGK7BvgjoWqW+sW3hrx9Z+Itf0q0lvJ7CKwlihljiGZfJnJKyYHTgbu1UdLuvhpF8UPCt/BFqMfhZ7hJNU07VQsv2bDfdDr/rI+h5GcAgg17vo3ji80rVPEkeufEHwPPoF1pd/Fp1hoq2qMSYm8sFljVk442s+4kgYPJrxMVia9GEfZt3Sb1S1d9tIv7lbTqehQpU6lS07WvFadn13X4316HxzXXfCKxt9S+KXhK0vLeK6tZtUt45YJ0DpIpkAKsp4II7GuRrrvhFfW+m/FLwld3lxFa2sOqW8ks87hEjUSAlmY8AAdzX1FK3tI37o8ep8ErdjvfFHwY0bVtY8ZjQPFVnca5pT3d9LoEVi8UaQJISyRzfdZkXA2hQOMAkc1zXg34V6d4g8A3fi3V/E8egada6kunyq1m07HMe8MgVgWbOBtwOMndxiul8AeINLs/jF8QL241Kzgs7qy1hILiSdFjlZ92wIxOGLZ4x17VgWurWK/s43+mG9txqTeJ4rhbMyr5xjFsylwmc7c8ZxjNc0NIJ/wB2P4ys/wADeWs7eb/9JuvxK3ir4O3Ok694Ys9D1OHxFYeJgp0q+jjaASkvsKujZKFW68mte++COkyrrVjoPja21zxJo8Etxd6YLCWFGWL/AFohmYkSFeewzjiuS+HXjI+GfHXhTUtRnuJ9N0i+jm8neWEUe8M+xc8euB1Ne5+LfHXiC1i8R6gPit4X/sOeGf7FBplhaT31yr5CQtGIlePKnDMzce9XLSF1/e/S39W16ER1nZ+X/B/q+hyH7Ovwrs/EmqHW9Su/Dl9bQWV1PFpN/fp5nmopCPNDnPlA8knjGDWD8UNOu9W1zQLKefwDatOXjSbwvLbxW6ZKjNw8fC+xbtuqH4A6vY6N4n12XUL23sYpNAv4Ue5lWNWkaLCoCSMsT0HU157pNxaWup2s1/aNf2UcitNapKYjKoPKhwDtz64NKpe6t2/ViV1GT63f5I7a7+DdxZ2s058W+DpREjP5cOuws7YGcKAeSewqHwfNosfwz8fJfpYtq7LY/wBnNcBDOP3x83yc/N93G7b261Nd+Lvh7NazJb/D28t52RhHKfELuEYjhtvk84POK8+rhpxq1YuNW61T6dHfo32EtVqei/FpfDeofFu5TTJ7PTvDsn2VTPpcKSQxKYY/MZUQgMQ27IBGTnvXQLottovwo8ZXPhHx/c6lpitax6lp0mjfZhNvkKp87SMRj5vu9cYNeNV6f4I4+BfxMJ4Bn0sD6+c9ZV6TpUKcVK6i4LWzv70VrdP8HuLZx8rHPeEPCGi6xpdzqWu+K7Xw9axSiCOFYTdXUrEZyIVIIQD+IkDPFat78J4dP8deG9Gm16F9H8QLFLZa1DbsQY5GKqWiYqVO4YIJ4rrvhnq0Fr8NY4vDWt+G/D3ipb6RtQn19YRJLAVHliJpUZdo5yo5z+ud8f8AxNDrc3gu4t9cs9avrXSglzd6eERRMJXJOxQNnqAVU4wcDNZe2rSxPs07Rba9NNHt32vJ37ErmldLs/zt/W5zHh/4W3GqeNdd0G/vP7Mi0SG6nvrzyfM8tIM5IXcM7m2gc/xVU8I+ENF1jS7nUtd8V2vh61ilEEcKwG6upWIzkQqQQgH8ROM8V6t8S/GGhSeBdV8RaZqVnN4g8ZwWMF9ZwTKZbTy1JuNyg5UO6J165rM+GerQWvw1ji8Na34b8PeKlvpG1CfX1hEksBUeWImlRl2jnKjnP6x9ZrypOb0ei9H9p7PS+mz22G5XSktL/lb/ADOD8VfDG50HxJoemWV/Bq1rrkcM2m30atGsySPsXcrcoQ3UHpWx4k+FnhrQ31fT4vHttPr+mLIJbG40+S3ikkTh445ixDNnIGQM1t/G7xFZeItW8AufEtpeyw6ekV7qmmxriGQTNucRJtK4+8FwpIxwM11l1qkU2l63/wAJx4s8H+L9H+wzLZXNv5Taq8u3EJXYokVs4zvJxzkms3iMR7OnNvXW6S1dnZbx7dPdGm7xv1t/wf66HkvhH4b2WreFrjxLr/iCPw5oi3X2KGX7K9zLPNt3FVjUjgLgliaZrnw0Gk+LNA0u31m31PTdcMLWep2yHBjkfZloyQVZT1Un8a6LwwuneOPg+nhb+3dM0TWdP1d79F1ef7PDPE8QQ7ZCMbgR0PasmTSfD3g/4ieEoNO12LVvs9xay6lfI4FqkvmgsI3IGUUAfMfeuyNWo60ouT0vpbS1tHe3626WI5nyt9dfz0/A3br4D6a2ta14e07xnb6h4q07z2XTPsMkazLHklRLuKiTaM7cEA5GeCao/AXT7e58WWL2XjOfwt4mluPstkselC7Vw64JLFwozkjBB6ZrnviTrR/4Wr4p1LSb/wCSTU7p4buzm4ZGkblXU8gg9QeQa6X4C+Gol8YaD4mu/EGgaXY2N+rSw6hqcUFxtXBLCNiCRzwfY1lL2v1Ryqz+KK6Le2qta1n2a76lVvdjJL5HIab4Xk8RfEiHw9NfFZbzVPsT3rR7juaXaZNuRnnnGfxrsLr4J6bI3iCw0rxhb6p4j0WOeebTBZSRq8cRO/ZKTguB1UDGcgE4zV3TPCZ0H44+F71da0XVob/X0kjGk6hHcsi+epG8KflyG4+h9K6G30/SPAXjTx14suvFGkXEEsWowW2mwTk3rzyllCNDjK7STlunGRkc1jVxU7R9lL7N0kt5X22/yKk71Hba6/Fu5h/Anwj4O1qz1yfVdZWTUBol88thNpHnLZqo4uEkLYZ1GGAAB5xmvNvF+k+H9JuLdPD/AIgl8QQuhMskuntaGNs8DBdt3Heum+Buq2Gn+I9ZtNQv7fTE1XRLzTYbq7bZCksiAJvb+FcjrXL+LvCL+ELyG3fVdJ1Yyx+Z5mkXq3Ua8kYZl6HjpXZBSji5c03qlZaW6+XT1v3uKPVef+Rd17wfpek+C9D1q28TWWpahqBYXGkwriazxnBc5P6gdeM9a7bwXp0GqxabbXN7Hp8TW6kzyj5RhBx1H864nXvB+m6R4L0PWrbxNY6lf6gWE+kwj99aYzgvz/MDrxnrXc+BdDk8Qpp1nHIsO62V2kccKAmcn/PescVUSoSk5vRvW23ytrb8TrwsXOpCKjzXa02vrt5HNfESNYLERpIsyJdbRIvRgA3I+tdt48u/Bcj/ABV/s2HQ1Dw6X/ZH2VYRtbKed9n29+u7Z75rh/H6qumIqtvUXAAbGMja3NcFW1Oh7aEW5NW/zi//AG23zZlUX7y/9bp/oFaHh/Q7vxNrmn6RYIJL2+nS3hUnALswAyewyaz66b4Z+I7bwj8QvDmtXgY2ljfwzzbBltiuCxA7nGa9eCTklLYyk2otrc7XUvgnoqnWdP0fx5Z6t4k0iGSa501rKSCN/K/1qxTMcOw54wM44rW+B3iK28TQap4b1Hwz4buLa00G+njvX0mI3hkSMsrGYjJIJ69eBVTxR8N/C0ereJvEWoeO9HvNIm+0XWn2+kXQlvbiV2LRI8RXMY5+Yt0xWH8Add03RfG13Hql9DpsGo6Xd6cl3ckrFHJLGQhc9lzxntmsVzSg093F6edn/Vv8zR2jJNbJrXyujz3T7M6hf21qssMDTyLGJbiQRxpkgbmY8KozyT0FeoSfBfRNStdYg8N+O7PxBrmlWsl5PYx2MkUUscYzIYZySJMduBntVXRfBej/AA/+IHhWfxVrGga7oM12DdLpF+l6qIpHMqpyFyRx3AavbNK8aXmmX3iWLXPH3gq40W60q+i0+x0ZbVCSY28sFljVk44Cs5YkgYPWql8Da31/BCj8aT20/Fngngn4Z6frnhG98UeIPEa+HNEt7xdPSSOye7llnKb9oRWXAC85JrO1zwLaw+K9L0jw/r9n4kh1Qwra3cKmIhpG2hJUbJjYHqOeCK6/4M32rWWh6l/YXjvRdBu5J1FxoviHy0tbmPbxIGlDIWByMYBx37Unxin8NXHjLwx/Z19pVjfi2hGtaj4biJs47jzDmSJVwCVXBO3GSOOavTnj2uvy/rXpsQr8r76/n/XruV/E/wAJfC+gtrOnQ/EK1n8RaUsgmsLnTpLaGSSM4eOOdmIZs5AyoziuZ8K/DibxXphvY/EHh3TFEhj8nVdVjtpeADnY3OOevsa9zvNWim0nXv8AhPvGHgvxnov2CZbG6tvJbVnm2/uWXYokVs4zvJxzkmvDPCviDwhpemGHXPCFxrl75hYXUWrtagLgYXYI26c8571x1nUUfc1em1vPu1+ZUtrruZ/i3wjJ4Qu4IJNV0nVTKm/zNIvUukXnGGK9D7V6v48u/Bcj/FX+zYdDUPDpf9kfZVhG1sp532fb367tnvmvKPF2q6Dq11A+gaDNoECpiSKa/N2XbP3txRcccYrBrL2MqyhKo2mvT+aL6Nr7Nt9mxW1T/rdP9D2f4AfDG08Q6p/bOo3Xh+8toLS6mj0u+vk8zzUUhGmhznyweSTxjmsH4oRtNqmiR6jN4OtrdmZXm8HJC4jQsu5pViI3EDlQTzzTPgZqtlpHiTWZb68t7KKTQ76FHuJVjDO0RCqCTySeg6muE0nTzq2p2tks9vatcSLGJruURRJk4y7nhR6k1iqc3i5TlLRJW078xC05m3/VkeofEnS3h+FXhiew8Zz+JfDkN7PaWlrNpgtPs7hQznO9mbr36dqu/BfX7bxFDqXh2/8ADnh+4t7XRL2dLx9LiN3vSMsrGUjJIJ6+wrV1LwDDdfB/RfDaeMfB/wDaVpqlxeSZ12DZ5booXBzycg8Vw/wP1jT9D8bXcOp30NhBfadd6et3M2IY5JIyqlmHRc9/euPSrha0U7tOTWln5PRLUS+GL7P8Ob/I4jQ9HuvEWs2Ol2SeZeXk6W8Kk4BZmAGT2GTXot98GdKkXWLLRPGVvrXiHSYZZ7rTRYyQoyxf60RSk4crz2GccVS0rSE+EfjvwrrN9rGjaxaw3yTyDRb9Lto0RlLFgvTIPGeuDXpvirxrrtvH4hvx8T/DX9izRT/Y4dNsbWa9uFfISFoxErx5U4ZmPHvW2KxFVyi6EtGvvd9vhk/krPzHd83lp+ep5P4Pm0WP4Z+Pkv0sW1dlsf7Oa4CGcfvj5vk5+b7uN23t1q78Um8KXXxim+ymG18LMbUSNoaRlUTyY/MMarhSwO7I9c5rzer2iQ2FxrFnHqlxLaaa0qi5ngj8yRI8/MVXIycdBmvQ9hao63M+unqor/238WWlZt/10/yO9174IXraXca34P1S18b6BCvmSzacCt1bL6z2zfOnfkZHGc1znh3SZr7w5reNNs7uMpC4vpryOJ7FvOVA+C2SrbipU8fMG/hFdVefFzSvCllc6b8PNAXRY54mt59b1Pbc6ncRsMMA2NkIYcFUH41k+FrK1t/CmqWlxq+n2934gijhtYnnB8ry7hHLTsMiIHYQNxz3OFwxMG67T9tt0va79baelreiN8R7NW5N+ttvl+u6OxvtPsJ/Bmsi20tv7L+06cENpfW9v9st7eOaKa4B2EAGRkLMwbDSID2FeT6nZW+k61dW88XmQqcolrfxT7QcFR5yBkcgHBwBz6dK9d0nwrr92s+mJ4X8QP4fOjNpttdadYC6di06ztOVEgRtzgjh+FKjLbeeO1iy1PwX46is/Den6jbam9rFbx297p0YvhL5ahnSIGQxuzAsrAhxu4Pr6M1eSb6/nt+ifzOWL0a7f8D/ADf3HZeKdHlj8bQTTQ3mk2d9FaxXN/dagqI8ZtIQDHHsDmRSxYEFt2CNuA1Yfxi0e+021g0y31OyvtC0WV4TnUonu2umOJWliLCQNlAuFDIqoAGb5mLfHF1NY/FiZLzUNQs9QLWKXEaLks4t4Qwclwd27cDkHvVL4tatFdeKPF9lPrmrytDrM8lvpzxg2gbzGV2yZflIXABCHI44p1H7q87/AIW/z+/UVNWfpb8b/wCX3HL6LFYzLc3MMN6l3YxLdLsuVy211BI/d8Yzu78Ka6fxBDoU1vp/jHU9JuI49bv7lho9hcpboIo9mWV/LbaC7MuNv8Dc+mL8PtPuLfWLXWLgQ2uiQSFLq6vciGSMjbJEMcyMyMRsTLc54GSOu8deDNQ8fTW2o+B7Vte8M2NpHaWlpYfvb20jXJIuIB84cuzsXAKEtwalp8qf9Lz+ei/pD0vb+n5fLcy/g7pVvN4ovdc877FFo9tcX1kswEzvcRwySxLj5QxXyy5PA+TtuArX8Of2Ul9bwvJMNaHh7UrjUrlYw5lkmt5pBli45WNl4x97IJ9OX+Gq3UPia7tJllT7PperFoJAR5bGxmDZU9DwAfoKsfDbWrmbXNTLrak/2PqLFvskQJItZDydvP8AWjTlsv5X+Ur/AH6fch681/Nfmv8Ag/ecbqUVhFJCNPubm6Qxgym5t1hKyc5VQsj7l6fMcE+gqnV7UNYn1KC2hmjtUS3DBDb2kULHJydzIoL+24nHbFUayLCiiigAooooAKKKKACiiigAooooAKKKKACiiigAooooAKKKKACiiigAooooAKKKKACiiigAooooAKKKKACiiigAooooAsaf/wAfcf4/yNV6saf/AMfcf4/yNV6ACiiigAooooAVVLNhQWPoKSrGn/8AH3H+P8jVegAooooAKKKKACiiigAooooAKKKKACiiigC9oupro2q2161la6isLbja3qF4ZPZgCCR+IrpvFXxU1DxNoSaJDpmk+H9H877RJZaNbGFJpAMBnLMzMQOnOP0ri6KxlShOSnJXaFbW4UUUVsMKKKKACiiigAooooAKKKKANLw3r1x4X8QabrFokclzYXCXMSTAlCyMGAYAg4yOxFQ6zqkuuaxfalOqJPeTyXEixghQzsWIGSTjJ9ap0VHLHm57agFFFFWAV6r4X8WQaLpISO7tUknsxbOXkG5AQN2OeDxivKqK561GNePLLY0p1JU5c0dzs/GmoW11pcSQ3MMzCYErG4Y42tzxXGUUVpTh7OPKiG7hRRRWggooooAKKKKACiiigAooooAKKKKACiiigAooooAKKKKACiiigAooooAKVWKMGUlWByCOopKKAJpLyea6a6knkkuWfzGmZyXLZzuLdc55zSXFzLeXEs88rzzysXklkYszsTkkk9ST3qKigCe7vbi/l825nluJMBd8zljgdBk9qba3U9lMJreaSCVQQJImKsMjB5HsSKiooAlt7qazZmgmkhZkaNmjYqSrDDKcdiCQR3zS2t5cWTO1vPJAzo0bGJypZGGGU46gjgjvUNFABRRRQAUUUUAFFFFABRRRQAUUUUAFFFFABRRRQAUUUUAFFFFABRRRQAUUUUAFFFFABRRRQAUUUUAFFFFABRRRQAUUUUAFFFFAFjT/APj7j/H+RqvVjT/+PuP8f5Gq9ABRRRQAUUUUAWNP/wCPuP8AH+RqvVjT/wDj7j/H+RqvQAUUUUAFFFFABW94Q8C6/wCPdS+w6BpVxqc4GX8pfkiX+87nCoPdiBWDXp3gH4uWWj+DLrwT4k0u4v8AwvdXJuXk0y7e2u4pCoUsOdkoAUYR1xnvXPiJVYU26Mbv+vS/pdeppTUZSSm7I57xV4Et/C+tadpP/CS6TqN5PhbuSzlZ7ayYtja8oGGwOWKggY713fxW0PXNH+EPhC3m1Xwnrfh2yvLi2tL3w/5rztKRvcSu6KCBkdPbOa4vxH4K0qfxFpVj4J1h/FEeqkLbwPbmC5ikLbRDIpO3d0+ZTg17RrHwF8fz/s9+H9Cj8MXjatb67dXUtrlNyRNEgVj82MEg15OIxEIKjKpUXxfaSXdXs9VbY7adNuc1CPTpr0v+J5J4S+C+qeLfB48TjV9F0jRvtzWElxqt20AjkCB8n5DkHcAAuWznjAJqDV/g3ruiePtF8KXEti91rLQfYL6CcyWlxHK21JVdRkpnPbPHSulv43h/ZWs4nBVl8Yyqy+4tBXZyf8jZ+zge/wBksx/5OGnLFVo1G7q15K1u0XJO/wAiPZQ9m7rVRv8A+TctvxOB1T9nXxBp1jrbx6toGo6joySS3uj2V/5l7HEhw0nl7RwByRncARkA8Vx03gW/h+H9v4waa3OmTai2mLEGbzhKsYkJI2424PXOc9q+g9E8B6r4G+JPxG8c6x9mg8Km31ZYtQ+1RstzJMXVIlUNuLktgqRkEEHmuJ8HeG774n/s+t4a8OJHf+IdN8RNqEum+ciTPbvbhBIgYjcAwwcdKypY6o480ppxXJd9FzXun6ael9Teph4KXKk1rJLzsrp/N6edjhZvhVe2c/hRb/WNI0y38R2Zvre7u5pEhgjBYYmOw7SShHyhuo5r0r4mfADQ9G0nwxcab4u8J6ZJJocdzdC41K4Jv5tz5mhBjbKsAAPujIPArnf2gjHpcPgTw09xDPqmhaFHa6glvIsiwztI7mIspILKCM49a6D4jfDzxD8RvAfw/wBe8N6cdX0rTPDEdre3FvKh+zyRPKZFcFsggEHpROvUkqVWVXli5SXS1vetv3VrfeKnTjGUocl3yxdut/duvxZ4DWn4c0VfEOtW2nvqNjpKzEg3mpSNHBHhSfmZVYjOMdDyRWZRX0Z5Z7z8S/gPoujaX4buNO8V+FdNd9DiublZ9QnLX82X3TQgxnKtgAfdGQeBXlVx4Dv4PANp4vWa2n0ue9fT2SJmMsEyruAkBUABl5GCfwr1T4jfD/X/AIgeCfAmveHdPOraTpvhiK2vLi3lQ+RJE0hkVgWyCAfSsz9nuGHxxH4h+G97OIIdfhW4s5G6RXcB3gj03JvB+go5W5Tit7v8/wBVsLmSjGT2svy/R7nI/wDCpNXW98F2b3NjHd+K1SSzhaR90KPJsR5fk+UMeRt3cD8K19S/Z+17T7HWpY9V0LUL/R0klvdJsr7zLyKJDhpDHtHAHJGdwzyAeK6ObxVB4s/an0CWywNKsdXs9OsFX7q28LrGmPY4Lf8AAq6vRPA+qeB/HvxD8a6x9ng8Mta6okN/9pjZbmSYsscSgNuLknBUjIIIPNS5Lk5115mvlZxX4lJPn5Hv7qfzvc8W8F/CvUfGWk3WrnUdK0HRreYW7ajrV15ELTEbvLXAZmbHOAOBUHiH4Y694d8U2OgPBFfXmoLHJYSWMyyw3iOcI8T9CCc+nSvXvhPd3WufBMaNoPhvQvGGt2OtSXM+k6wCzrC8ShZo18xM8qVPJx6VyPxk1K6ufFPhnTPFkGjaZbabZpFLY+E8u1nEzljEwdyvmjJOA2Bkc0VLxdo+X5X/AD/q5MdYt+v52/IxLv8AZ/8AiFY2s1zceFryKCFGkkclMKoGSfvegqHwf4f0nUvhn4+1O8tvN1PTVsTYzeYy+V5kxWTgHDZGByDjtU13D8Kvss32W88Ym52N5QmtLQJvxxuIlzjOM4rz6uCn7WtFqTtqvsuOzu1u97W+fUS1selfFDwDCvxguvDPhDTHKOkH2ayjkZ2LNbpI2GdiepY8mvRpPgbP4U8J6KH+GVx4p1W4tGuNQuZtSkg+yybmxGEjcDhQDnnOa+b69Q+MX/Iq/DL/ALF9f/Rr1y16VaKo0VU8m9bu0Xq2pJ/8HqTrzJX2X5WQ/wCAeialN4qtNU0XWPDFtq8crW1vp2vvKTOXTGVREOR83ByDkVx1reWegeL7x9c0e312KGaaOayWeS3iZ8kZVo8MADyBXefs7/D3xHq/jzw34is9Kmn0W01FRPeKV2JtwWzzngEdu9cx8VPAHiHwd4gu7rWdLm0+3v7ydraSUriUB8kjB9GH51oqlN4uVNzV3HvZ9dNNfPuEbNyXp+v5Gl8YtE0LT7TwfqOhaOuiRatpQvJrVLiWcBzIy8NIxPQCsXwf8M9Q8XaXc6qdQ0zRNIt5RbtqGr3PkxNKRny1wCWbHPA4FeheJ/AGv/E3wP8AD+88L6e2swWWkmzufs8iboZVlclWBIIOCDV74X3N1rHwdOj6J4e0XxXrVlrElxPpWrDc6wvEoEsa+YmeVKnk49K51iXSw7UZXkpNO7u0uZ2vd9tri5vdj8r/AHf5nj/jLwXqPgXVI7LUfIkE0K3FvdWsolguIm+7JG46qcH8q9W8efD/AMJ6S/xVFhpvk/2PDpb6b/pEreSZSnmnljuzuP3s47YrlPjhqWrTapounavbaDYT6fYiNbDQGcpaKzM3lSZZgHBJ4UkDIrzWuuEauJpwqOdvTZ+8n37K3/bz6b6a6P0/R/16hWp4X8PXPizxJpmi2bxR3WoXEdtE85IQM7BQWIBOMnsDWXXa/BX/AJK94M/7C9r/AOjFr16cVKcYvqyZtxi2jZ1T9n/XtN0/WZo9U0LUb7R0eW+0qxvvMu4YkOGkKbRwByRnIzyAeKw/Bnwu1DxjpN1qx1LSdC0e3mFu2oazdeRE0pGfLXAZmbHPA4Fek/Dglvjh8S8nObDXM57/AH6Phb4QivPhdFqvhvwjo/jfxO1/JFqFvq0pb7FCFHllYvMThuSXz7fTGDvHmf8AKn97t/X9I1krO3m19yucE3wV8QJ8QNJ8JNLYfa9WjE1jfJOZLS4iKsyyLIoJKnaR0zntWxF+zj4huoYJLXWPD12bm1lubRINQ3NdNFu82GMbfmkTbz/DyPmNez3Rb/hd/wAEt9tp9lINLZXt9KObWJgZgVjO5sqDkZyR6E1zvwm/4/Pg/wD73iD/ANAan9mXlzfhcXW/lH8Vc8X8F/CvUfGWk3WrnUdK0HRreYW7ajrV15ELTEbvLXAZmbHOAOBUHiH4Y694d8U2OgPBFfXmoLHJYSWMyyw3iOcI8T9CCc+nSvXvhPd3WufBMaNoPhvQvGGt2OtSXM+k6wCzrC8ShZo18xM8qVPJx6VyPxk1K6ufFPhnTPFkGjaZbabZpFLY+E8u1nEzljEwdyvmjJOA2Bkc0VLx+Hy/K/5/1cmOsW/X87fkYl3+z/8AEKxtZrm48LXkUEKNJI5KYVQMk/e9BUPg/wAP6TqXwz8faneW3m6npq2JsZvMZfK8yYrJwDhsjA5Bx2qa7h+FX2Wb7LeeMTc7G8oTWloE3443ES5xnGcV59XBT9rWi1J21X2XHZ3a3e9rfPqJa2PSvih4BhX4wXXhnwhpjlHSD7NZRyM7Fmt0kbDOxPUseTXo0nwNn8KeE9FD/DK48U6rcWjXGoXM2pSQfZZNzYjCRuBwoBzznNfN9eofGL/kVfhl/wBi+v8A6NeuWvSrRVGiqnk3rd2i9W1JP/g9SdeZK+y/KyH/AAD0TUpvFVpqmi6x4YttXjla2t9O195SZy6YyqIhyPm4OQciuOtbyz0DxfePrmj2+uxQzTRzWSzyW8TPkjKtHhgAeQK7z9nf4e+I9X8eeG/EVnpU0+i2moqJ7xSuxNuC2ec8Ajt3rmPip4A8Q+DvEF3dazpc2n29/eTtbSSlcSgPkkYPow/OtFUpvFypuau497Prppr59wjZuS9P1/I0vjFomhafaeD9R0LR10SLVtKF5NapcSzgOZGXhpGJ6AVi+D/hnqHi7S7nVTqGmaJpFvKLdtQ1e58mJpSM+WuASzY54HAr0LxP4A1/4m+B/h/eeF9PbWYLLSTZ3P2eRN0MqyuSrAkEHBBq98L7m61j4OnR9E8PaL4r1qy1iS4n0rVhudYXiUCWNfMTPKlTycelc6xLpYdqMryUmnd3aXM7Xu+21xc3ux+V/u/zPH/GXgvUfAuqR2Wo+RIJoVuLe6tZRLBcRN92SNx1U4P5V6t48+H/AIT0l/iqLDTfJ/seHS303/SJW8kylPNPLHdncfvZx2xXKfHDUtWm1TRdO1e20Gwn0+xEa2GgM5S0VmZvKkyzAOCTwpIGRXmtdcI1cTThUc7emz95Pv2Vv+3n03010fp+j/r1Cp7G1F9fW9sZ4rUTSLGZ5yRHHkgbmIBIUdTweBUFXNH0i88Qapa6bp9u11fXUiwwwpjLuTgAZr1FuD2PVvipoutaT8KfCME+p+FdZ8P2d1cW1peaB5jTNIcO4ld0UHGR0/HPWuT8F/CfUvGWg3mtnUtJ0LRrWYWxvtZujBHJMRu8tMKxZsc9Olevaz8DfHdx8A/DuiR+GrttVttaurma1BTckbRoFY/NjBINc14c8Kal8RvgHHoPh+JL7W9I1+W6u9P85ElELwqokAYjIDAg0nvN7vT8eW/3Xf3DW0F01/Dmt99jH+KXwtTw/ceAdJ0fT1bWNW0qN51t5zMtzcNK6hkYsVwwAxtwpGDWTd/s/wDxCsbWa5uPC15FBCjSSOSmFUDJP3vQV1vxw0y10n/hVthrM0jWtvoEMV3JpzJK4AlkDiMk7WI5AOcHHXFcldw/Cr7LN9lvPGJudjeUJrS0Cb8cbiJc4zjOK4a9SpGbVN6Xf2W+r7NWE73ivJfkiHwf4f0nUvhn4+1O8tvN1PTVsTYzeYy+V5kxWTgHDZGByDjtV/4oeAYV+MF14Z8IaY5R0g+zWUcjOxZrdJGwzsT1LHk15rRV+xmqrqKe99Om0V36Wb+bFZq/9dv8vxPpCT4Gz+FPCeih/hlceKdVuLRrjULmbUpIPssm5sRhI3A4UA55zmuC+AeialN4qtNU0XWPDFtq8crW1vp2vvKTOXTGVREOR83ByDkUz4xf8ir8Mv8AsX1/9GvV79nf4e+I9X8eeG/EVnpU0+i2moqJ7xSuxNuC2ec8Ajt3ryY86wtWpWqLXm3vbRtW1bWu2lvmYydqV32v+Fzg7W8s9A8X3j65o9vrsUM00c1ks8lvEz5IyrR4YAHkCun+MWiaFp9p4P1HQtHXRItW0oXk1qlxLOA5kZeGkYnoBWb8VPAHiHwd4gu7rWdLm0+3v7ydraSUriUB8kjB9GH513XifwBr/wATfA/w/vPC+ntrMFlpJs7n7PIm6GVZXJVgSCDgg10SrQ/c1+e0Xo9fd+F+dtzeTSqN30d/zX/BPPfB/wAM9Q8XaXc6qdQ0zRNIt5RbtqGr3PkxNKRny1wCWbHPA4FXrT4SahD8SdA8LanNCkeqywmG+s5BLFNA5/1sTDhhgHHuK9C+F9zdax8HTo+ieHtF8V61ZaxJcT6Vqw3OsLxKBLGvmJnlSp5OPSoNV8WXeh/GH4fHxNH4f0mLRjCHtdCZzHYxtISUlJZgHXJJCkgA1DxVd1p0420vp12un33+RjKUuWXdJ/g9CvY6D4D8ca3rvhXSvDN1ol5aW91JY6wdQkmeZ4FLfvY2+UBgp+7jFcV4P8P6TqXwz8faneW3m6npq2JsZvMZfK8yYrJwDhsjA5Bx2r2LSdJ8V+DNZ1HVPE91bxeCtIttTbTJ/PhKTtcq21Yip3OXLA4PT2r5ipYNyrc0Yz09x3u3rdtq77pK62V/v2722v8AhoekfFLwjoGk/GKbQrCVNA0Mm1UzyGSdbcPDGzucksRliev0rO8a/B7xH4Js01KSGHVtAlP7nXNJlFzZyf8AA1+6fZwD7Vy2iafDqusWdncXsOmwTyrHJeXGfLhUnl2wCcAc8V6zZ/E7w18JNK1TSvAp1DX77ULd7W81jVHeC1ZWXa3lWitzweGlJIPauibr4eMIU25ySs7rfzcuj+/0Z00YwkrVNFpr1+7r/WqPNvCHgXX/AB7qX2HQNKuNTnAy/lL8kS/3nc4VB7sQK7DR/hrpmmfFXwd4cv8AWNO8Ri+v4IdSt9Lmd4oQ0oUxecuNzYzkoePWjwD8XLLR/Bl14J8SaXcX/he6uTcvJpl29tdxSFQpYc7JQAowjrjPer/g7QvD2jfG7wBJ4Z8QHXtNutVtZB51u0FxbHzlHlyqcjd/tKSDRUq1ueUZe7GztZXvp1fT0svVj5Yey5lq/wAtenf+tOpL4w/Z71G3vvFlzouoaJOmkzXFw2g2+oebqFvaJIcMyEH7q7SRuLDuM8VzXgv4N6r428K3PiOHVNH0vSLW9FjcXGqXRhETFN4cnaRt6LwSxLDA717VovgPVvAvxK+I3jjWfs1v4WNvqyxah9qjZbmSYuqRKA24uS2CpGQQQea8009iP2VNXAOAfFsGf/AV68+ji60qVozUvg1ts5OzXqvv11O6pQh7TWNtZ6d1FXT+/Ttoc54m+FF34K8S6Lp+uapp8OlasqS2+u2Tm5tHhLbTIpUBiFPUYB9qb41+D3iPwTZpqUkMOraBKf3OuaTKLmzk/wCBr90+zgH2rJtdXvvFn/CPeH9U1lLTSbJ2htpbofurNJHDSMdo3EZ57+1ejWfxO8NfCTStU0rwKdQ1++1C3e1vNY1R3gtWVl2t5Vorc8HhpSSD2r0JzxNPlS96WultGr6O/wBl23362TOSCpTbvpHTrqn1suuv6XaPGKKKK9U4wooooAKKKKACiiigAooooAKKKKACiiigAooooAKKKKACiiigAooooAKKKKALGn/8fcf4/wAjVerGn/8AH3H+P8jVegAooooAKKKKALGn/wDH3H+P8jVeiigAooooAKKKKACiiigAooooAK2/BPiT/hDvGGia79n+1/2beRXf2ffs8zY4bbuwcZx1waxKKmUVJOL2YGp4o1r/AISTxNq+r+T9m/tC8muvJ3bvL3uW25wM4zjOBWXRRRGKhFRjsipSc5OUt2FFFFUSFFFFABXXfDbx9/wrnVNR1OGw+16jNYTWlnOZtn2SSRdvnAbTuIUsAMjr1rkaKOjXcDb8FeJP+EP8YaNrv2f7X/Z13FdeRv2eZsYNt3YOM464NVfEmsf8JB4i1TVPJ+z/AG66lufJ3btm9y23OBnGcZwKzqKN7eX62/yDv5/1+oUUUUAFFFFABRRRQAUUUUAFFFFABRRRQAUUUUAFFFFABRRRQAUUUUAFFFFABRRRQAUUUUAFFFFABRRRQAUUUUAFFFFABRRRQAUUUUAFFFFABRRRQAUUUUAFFFFABRRRQAUUUUAFFFFABRRRQAUUUUAFFFFABRRRQAUUUUAFFFFABRRRQAUUUUAFFFFABRRRQAUUUUAFFFFABRRRQBY0/wD4+4/x/kar1Y0//j7j/H+RqvQAUUUUAFFFFABVrTdLvNZvobLT7Sa+vJm2x29vGZJHPoFAyaq17F8JPipovh/wfqHha+uNR8KXN9MX/wCEp0SNHuApUARSjaJDECCf3bg8niufEVJ06blTjzP+v6stTSnGMpJSdkcD42+H+r/D25tLTXEt7a/uIvOaySdJJoBnAEqqTsY9dp5x1xXcfC2zt/Cnwx8b+OLyCOWZohoOkrMgYfaZhmR1z/EkYyD/ALVcb4+8FN4S1K38nW9P8SWd+pmt7/TZjIJBuwQ6n5kfPVWGee9dv8dmHg7Q/B/w6hO19Fshe6mqnrfXADuD67E2qPY1wVJuvTp0ua7m9bK2i1em/aPzOmEVTqOdrKKv316a+uvojh/BXwv8UfERbpvD+kyX0Nrjz52kSGKMnoDJIyqCfTOaZf8Aw613RfGFt4Z1m1XRNUnkRF/tCQRxAOcK5k5XZ/tAkV6h4D8I2MPwXt9bvdD8Q+OoL3VpIToek38kFrZuiKBLIqI5MjA4Bx0wM+t/9orw++rX3wr0qz0w6DPcaLHbR2OoXYdrX984CSzMF+7nnIGOR2rP69P6z7JW5W2r9mlfvfp/Kl5jWHTouo90r/8AkyXb9fkeN+Mvh/4h+H+oCy8QaVcabK3MbSLmOUf3kcZVx7qTXPV77beO9D+Evg3UvDFx4jk+I011A0P9lQqraNZORgOkkqlndScgxBBnvXgVduFrVKqfOtFs9Vf5PVfiuzMa1OMLcr17b2+f9MKKKK7jnCiiigAooooAKKKKACiiigAooooAKKKKACiiigAooooAKKKKACiiigAooooAKKKKACiiigAooooAKKKKACiiigAooooAKKKKACiiigAooooAKKKKACiiigAooooAKKKKACiiigAooooAKKKKACiiigAooooAKKKKACiiigAooooAKKKKACiiigAooooAKKKKACiiigAooooAKKKKACiiigAooooAKKKKACiiigAooooAKKKKALGn/wDH3H+P8jVerGn/APH3H+P8jVegAooooAKKKKACiiigDQ8P6w3h7XdP1SO2t7ySyuEuFgulLROyMGAcAgkZHIBFS+KvEt94y8SalrmpOr32oXD3ExUEKGY5woJOAOgHoBVrwXbQ3WqSpNEkyiEkLIoYZ3LzzXZ/2PYf8+Nt/wB+V/wrjqVIQqczWtjSN+VpPT+v8zhNC8Xa74XEw0bWtR0gTDEv2G6kg8z/AHtpGfxqtqWualrK2y6hqF1fLbIY4FuZmkESkklVyTtGSTgdzXon9j2H/Pjbf9+V/wAKP7HsP+fG2/78r/hWftqfNzcuo7Sta+h5bRXqX9j2H/Pjbf8Aflf8K841VFj1S8RFCqszgKowANx4rpp1lUdkiHGxUooorckKKKKACiiigAooooAKKKKACiiigAooooAKKKKACiiigAooooAKKKKACiiigAooooAKKKKACiiigAooooAKKKKACiiigAoq7pMayXDB1VhszhhnuK1vssP/ADxj/wC+RQBzlFdH9lh/54x/98ij7LD/AM8Y/wDvkUAc5RXR/ZYf+eMf/fIrBuQFuJQBgByAB9aAIqKKKACiiigAooooAKKKKACiiigAooooAKKKKACiiigAooooAKKKKACiiigAooooAKKKKACiiigAooooAKKKKACiiigAooooAKKKKACiiigAooooAKKKKACiiigAooooAKKKKALGn/8AH3H+P8jVerGn/wDH3H+P8jVegAooooAKKKKACl68Dk0le2fBLxR4Z0rw7dWcN9p/hfx9JcFrTxDrNl9pt1j2gLGjZIgfO4+YYzwetc+IqujTc1Hm/r5u3on6GlOKnJRbscj4b8Fa9oOsWS6jpF5ZSalal7OKaIrJMu9VBVPvcnpxz2r1Xxd4ch0HwjoazeGNc0XWt8i3l5qUDxQT85QRhu4HsPxrhNW8P+L/AA34+e58V3M13qN3bG4g1P7WLlblN64kjlBOVz0549BXqniLULrUvgRoE13czXUv9t3K+ZNIXbHlJxk14OIqylKnO6ab6Xt1+/8Az7HbCEYylGz26+l/+GODtfDOsXtl9st9Kvp7Ta7/AGiK2do9qY3ncBjC5GT2zzUGpaPf6NLHFqFlcWMkiCREuYmjLKejAEDIPrXuvwx1K7s9F+F8EFzLDDcX+prNGjkLIAowGHccnrWTHdHWrb4L3GrzNeGa+uEmlumLl1F4oAYnqO3NcSxk/acrjpdrz+1/8j+JboxVLnvra/4r/M8uk8F+IYY43fQdTRJI2mRms5AGjUZZx8vKgck9BXimsf8AIXvv+u7/APoRr7V8N6x4nvPiV8RbbUri+ls47HUd8NwzGKPAYR7QeF44GOxPavirWP8AkL33/Xd//QjXqZbXlWnJSS2T087mWJoxpq67tfdb/Mp1u6h4D8TaTpY1K98O6tZ6cQCLy4sZUhOenzlcc/Wq/hW6msfFGkXNvZHUriC8hljswpYzsrghMAEnJGOnevoK81gfFDVvF7+G/GHifRdems7ue88Oa/CJLZo1BMsCsGIQAZA3ICMY4r35aRuvP8P6+RwR1lZ+X4/18z590rwnreuwpNpujahqETzfZ1ktbV5VaXaW8sFQfm2gnb1wM1V1TSL7Q76Sy1KyuNPvI/v291E0Ui/VWAIr1zw14g1Lw7+zFrEumXs1hPN4nihea3co+w2xYgMORkqOn0qPwn8QJPid8RvhZZa/bpcz6XdxWc1/cSGSS8QzBkEmRztzjknOatR5qigu6/FJ/qS5csOd+f4Ox5tqHgvxDpOlx6lfaDqdnp0mNl5cWckcLZ6Ycrg5+tYte133jb4jX/xE8e2FpLd6ysi30V9p1+5eCO1ViGbYzBV2DG0jp2qh8K9Q8WWvhl00Txb4U0Sz+0MTba1LZLOWwuWxMjNtPGOccGuKpWcKaqK2tnq7b/J/kVP3NPOx5JXqPir4JJ4Zbx2Brouv+EXjsZB/omz7V9o28ffOzbu/2s+1ZPxbutdutVsW13XdD16cQkRy6G9u8aLuPyt5KqM5555rG1L4ieIdYOtG71EzHWVhS/8A3MY84RY8vovy42j7uM45zWV69ZQnTkkuvX7Ue67KS6b/ADFrdPp/wV+lybw74IGveCvFfiA332c6ELUi28rd5/nSFPvbht24z0Ofaj4meCR8O/Gd7oK339pC2SJ/tPleVu3xK/3dzYxux17VkWPiLUNN0fU9LtrjyrDUhGLuHYp8zy23JyRkYPPBHvR4h8Rah4q1abU9VuPtV9MEV5dipkKoReFAHCqB07Vqo1vbOTl7munyjbp3UuvX7hXu7/1t/wAH7zNrv/hD4QGueIIr7VPB/iHxV4ahLx3KaDaySN5mw7RuXAGCVONw4rgK9O/Z01nULP4veErOC+uYLOfUo/Nt45mWOTt8yg4P413U1zSUe5M3yxb7HnOoRrDqFzGkMtuqysohm/1iAE/K3uOhruPCPwZ1vX7y7i1W11Dw9BHpdzqUNxeWDhbgRJu2Lu25z6gnHoat+Cbe3u/2itLhu0V7d/EYDrIMqf8ASOh/GvTPA3izxRrPxS+KVnqmo393ax6XqxktrmRmjhKhlTCnhMA7RjHBIrnjL9ypdXGT+5J/qbNfvXHoml97/wCAfNFLXrfwr1DxZa+GXTRPFvhTRLP7QxNtrUtks5bC5bEyM208Y5xwa5/4t3Wu3Wq2La7ruh69OISI5dDe3eNF3H5W8lVGc8881zxxDdb2Ttb1d/ut+plF3ua3ir4JJ4Zbx2Brouv+EXjsZB/omz7V9o28ffOzbu/2s+1Y3wp8KDWteivdS8J694m8Owl47lNDtpJG37DtG5cAYJU4yOKydS+IniHWDrRu9RMx1lYUv/3MY84RY8vovy42j7uM45zXSfAHV7+0+K3ha0gvbiG0m1GPzYI5WVH5x8yg4P41zuOIhh5+0leVvT7Kvtbrdr1+RE240230/wAl+tziBpNzqOtyWGnWF3LcvKyRWSxtJPwT8pUDJYAc8djVqTwX4hjSR30HU0SOAXTs1nIAsJziQ/Lwhwfm6cV6F8Jf+TltP/7C1x/KSvQ/hv4m1fULj4YRXWp3dzHef25HcrLMzCZVRyqvk/MBngHp2rGvjalFe7FP3b/hJ/8Atv4mknacl2/4P+R846L4b1bxHJLHpOl3uqSRLukWyt3mKD1IUHAq3p/grWtQ1zSdJ/s64trzVXRLRbqJohLubaGBI5XOeR6GvRNJ1DVNH/Zxa50G4urSaTxGUv5rJmSTYIFMasy8hc/hmu41C6vZPip8Dp9XaQX8mn2pna44cuZn5bP8RyM55yaupjJxm0krXa89I3MpTai35N/c7Hnt18FtJuTq9hoXjS21rxFpUMk0+mixkhSQRf60RSkkOVwewzjiuS8O+CBr3grxX4gN99nOhC1ItvK3ef50hT724bduM9Dn2r1b4a3FkPiXqNomgtp+o6Xbay+pai07sZlKSBdyH5Y9uQvHXNeJWPiLUNN0fU9LtrjyrDUhGLuHYp8zy23JyRkYPPBHvSw9SvUvDm19x3dtm3fbo0tOuuvlr1a7P8NDX+JngkfDvxne6Ct9/aQtkif7T5Xlbt8Sv93c2Mbsde1ctWl4h8Rah4q1abU9VuPtV9MEV5dipkKoReFAHCqB07Vm16dFTjTiqjvK2r8+o1srmpoXhfWfFEzw6NpF9q80Y3PHY2zzso9SFBxSp4U1uTXBoq6PqDayTtGnLaubgkDOPLxu6Anp0r0r4Z+OLLRPhrqeiayviLRdLvNTSdPEHh9QD5qx48iQkqGXHzbQ2e+KqfGOHW9A1bwxq6+LbvxBbXmmLLperOjW92sG5l2PzuyDuGSxyD1raXutdv8AgX/r7wWqff8A4NiDxn+z94s8K2ejXNvoutaml5piX90Y9JmUWLktuhkIzyoUEk7Tz0FefTaNqFvplvqMtjcxafcsyQXbwsIpWX7wVyMMR3APFew/HHxdrsGlfDsRa1qEaXXhW1ecJdSASsXlDFufmJHXNVvhVZzfEv4Y+J/AMQ87VLWWPXNJQ9S6kRzoPqjA49jRZtyS6N/g9fuX5BdWjfql+K0/E8+0HwvbyXWny+Jbm98N6JfJI8Gqf2c86y7eDsXK7xu4JB4rX+KPw6sfAP8Awj82ma42vWGs2IvobiSyNqwUuy4KF2/u+tav7QmrW7+NofDtg+/S/C9nFo0G3ozRj96/1MhbP0FWfjZz4R+FZHT/AIRxRn6TPUtpxUo7Xt6q0v8AJDSabT7X9H7v+bPOdD8N6v4muHt9H0q91adF3NFY27zMB6kKCcVUvrG50y7ltby3ltLmJtskM6FHQ+hU8g1774D1PRPD/wCzrHc6hqXiHSI7rxDJHcXHhlY/OdlhUokrM64XBYgZ61i/E/xVH4k8YeA7zRRqmnX0NjDEms+LreKA3e2RvLuHYl0dADgu2QdvOaKj5NvL8Vf/AIH4kp3i5ev4Ox4rXU+HfBA17wV4r8QG++znQhakW3lbvP8AOkKfe3Dbtxnoc+1es6tq3j5tKvVn8f8AgOeAwuJIoLjTTI67TlV2xZyRwMc14fY+ItQ03R9T0u2uPKsNSEYu4dinzPLbcnJGRg88Ee9cFOtUxEXy2TTWzb0vrvFbq6/yEtbM6bxp4JHw78eX+grff2kLaGJ/tPleVu3xo/3dzYxux17Vn1BceItQ8VeILjU9VuPtV9NGqvLsVMhVVF4UAcKoHTtV+bT7q3tYbmW2mitps+VM8ZCPjrtOMH8K66SnGnFVXeVld+ZS2RXoqezsbnUrhYLS3lup2yRHChdjjrwKhZSjFWBVgcEEYIrUBKm0fwQNe8J+MfEBvvs50Jrci28rd5/nSlPvbht24z0OfanTafdW9rDcy200VtNnypnjIR8ddpxg/hWNH4i1DTbHWdLtrjyrDUmQXcOxT5nluWTkjIweeCPes6im42g7O6+66v8AeroXY3vGnwxu/DfxIbwdps7a5es0CQMkQiMzyxo4UKWODl8decVyuraRfaFqE1jqVnPYXsJ2yW9zGY5EPoVIyK07nUde+IXiyGZ2l1PXr2SKGLyUCvI4CpGFCgDOAo49K901TXI/DPg270b4uaxp3izVEtmj0/SIUF3qdhIR8pkvFYCMBsEoWckdq8+derho04ztOVtUt2+rS7etku500aSqK0nbbXp8/X+kfNtFFFeoc4UUUUAFFFFABRRRQAUUUUAFFFFABRRRQAUUUUAFFFFABRRRQAUUUUAFFFFABRRRQAUUUUAFFFFABRRRQAUUUUAFFFFABRRRQAUUUUAFFFFABRRRQAUUUUAFFFFAFjT/APj7j/H+RqvTo5GicMpww702gAooooAKKKKACiiigDsPhrrF5pniKG5t5iJbNDJB5iiREbep+6wK9exGDXt7fHrxu0IhOqWxhU7hH/ZdptBPfHlda+abHUbjTZjLbSeXIV2k7QeMg9x7Vf8A+Et1b/n7/wDIaf4V5mIwUMRLmnFP1RvTrSpr3W0ey2PjzXdNXSxbX3lDTJZp7QeTGfKeX/WHlec46HIHbFUbzxBqF9pem6dPcb7PTfM+yxhFHl723PyBk5PPJOO1eUf8Jbq3/P3/AOQ0/wAKP+Et1b/n7/8AIaf4VCwNndJf1fy8397G6zas2z63t/iNbaTpN7PqPxDuvFkp0ya0tdLFpOgWSVNm53kAB2gnnk9cV8eax/yF77/ru/8A6Eauf8Jbq3/P3/5DT/CsqaZ7iZ5ZDukdizHGMknJqsHglhJSle9/T9Eu46tZ1YqL6f8AA7+gtvcS2dxFPBI8M8TB0kjYqysDkEEdCDXe6x8fPHuvaTc6de+IJHtrqPypzHbQxyzJ3V5FQOwPfJ57159RXqPVWZzbO5rJ4q1SPwvJ4cW6xo0l2L5rby05mCFA+7G77pIxnHtWZDM9vKksTtHIjBldDgqRyCD2NMoo63DpY7zXPjr478SaLNpWo+Ip57KdBHMFijjkmUfwySKodx7MTmuDooo8w8gooooAKKKKACu28F/GXxd8PdPFnoGowWUAlM43afbTOHIAJDyRsw6DvXE0U7sR1vi/4qeJ/HU1lLrOoRzS2cjSwSW9nBbMjHBLZiRSTlR16VsX37QnxB1KJ47nxHJKkkD20mbaAeYjpsbeQnzHaSNxyRk4IrzqipsrW6FXd7hRRRTEFdj4P+LnirwHYi00PUIbOESmYbrG3lcOQBkO8bMOg71x1FZ1KcKseWpFNeeomk9zt7/40eMNS1rTNWn1OH+0NNkeW1nisLaMozDDEhYwGyP7wNZelfETxBosmkPZah5LaSbg2R8mNvK84ES9VO7cCfvZx2xXOUVmsPRiuVQVvRef+b+99wsegfCXxDPodxqPl+PpPA6yIoLLbTTrcHnjbGpwV9T68VN8YPG1n4i1Xw9HpGp3OpjRtPjtW1aVGikuZg7O0oDHcOW6nnIrzmioeGg63t3v8u1u1/vYlFJt9zuNb+NnjbxFo82l6hr801nOoSZVijR5lHZ3VQzj/eJrh6KK2p0qdJWpxS9FYrZWQUUUVqB1Xg34o+KPh/BcwaFqrWltcsGlt5IY54nYdG2SKy598Zqh4u8aa3461X+0de1CTUbwIIldwFCIOiqqgKo5PAAHNYlFD13DbY7fTPjR4x0nwwPD1vq4bSFieBbe4tIJiiNncqu6FlHJ6EY7Vf8AgT4u0zwB4yuPEmo3rW0+nafcPYwKjt9quWQokZ2ggD5iSWwOK85op931YraJdCW6upb25muJ3aWaZzI7t1Zickn8a7Tw38bfGfhPRYdI07V1XToSxit7qzguRFuOSFMqMVBPOBxXDUUulug3q7s6nwd8TvE/gH7WNC1V7KO7IM8DRRyxSEdCY3VlyPXGazfFHizWPGmrSanrl/NqN86hTLKRwo6KoHCgegAFZFFG+4BRRRQBf0b/AI+m/wBw/wAxXW33ibU9S0mz0u5u2lsLPmCEqAE/EDJ/GuHhne3YtG204x0zU39p3P8Az1/8dH+FHkB12h69f+G9QW9024NrdKpUSBQ3B6jBBFU7ieS6nkmlYvLIxd2PUknJNc7/AGnc/wDPX/x0f4Uf2nc/89f/AB0f4UAdlfeJtT1LSbPS7m7aWws+YISoAT8QMn8a4i6/4+pv99v51L/adz/z1/8AHR/hVdmMjFmOSxyaPMB0M8ltMksMjRSocq6MQwPqCKjoooAKKKKACiiigAooooAKKKKACiiigAooooAKKKKACiiigAooooAKKKKACiiigAooooAKKKKACiiigAooooAKKKKACiiigAooooAKKKKACiiigAooooAKKKKACiiigAooooAKKK9s+COheGNS8O3U9tb6RrXxDW4IstI8R3RhtGj2ja0a4CTSFtw2O4HAOK58RWWHpuo036f1ou7NKcPaSUb2PGZbOeCGGaSGSOGYExSMhCuAcHae+D6V3vww8E6ZrHh3xl4l19JG0jQ9P/dJG5TzbyVtkCZ9M5Jx2FUfixqnjTUPE5j8cR3dtqVunlRWlxAIEgjzwsSABQnptGD711vxH/4oL4N+DfBq/u9Q1bPiTVF6EbxstkP0jBJHqa5KtWc6UIxdpTdtHfTdtP0W/do3hCMarvtHXVfdp62+R47XR+K/At/4P07w9e3k1tLFrliNQtlgZiyRliuHyow2VPTI969P8J+KNR+GP7O6694bkj0/W9V8QyWNzqAhR5fISBWWIFgcAsST6034+eILyaz+FGtx+Xaah/YEV2Gt4xGqyid23qoGF+bnAGBngYqfrVSVeMIx93mavfV2i3tbTXzY40Y+zcm9eW//AJMl/Wh5zrmm+E7fwToF3pesXd34mnaUapp8sBWK3UH92UfHOR7n8OlcrXvPxM8a654+/Zx8Lap4g1GXVL//AISG6i8+YDdsEKYHAHqfzrI8MK/j79nnxBoiqZtT8K38erWiAZZrab91Mij0DbXP1pU8TOFNyqL7dnre13bTRaK/bbqEqUZSiovddu1/N6ux5Fa2s17cRwW8Mk88jbUiiUszH0AHJNRspViCMEcEGvZPjbql54T8UeEfCOizyw3Xg+wggV7QkOL+TE0zpjndvZR9VrsNYsU13wfd6l8ZdL03QNXe2aTTtShb7LrN5Jt+TzbVFIkUnALyKhA70PHcsIVXH3ZbWer10aXW6101XmEcPzTdO+qt6Lun2s9L/kfNVFFFescYUUUUAFFFFABRRRQAUUUUAFFFFABRRRQAUUUUAFFFFABRRRQAUUUUAFFFFABRRRQAUUUUAFFFFABRRRQAUUUUAFFFFABRRRQAUUUUAFFFFABRRRQAUUUUAFFFFABRRRQAUUUUAFFFFABRRRQAUUUUAFFFFABRRRQAUUUUAFFFFABRRRQAUUUUAFFFFABRRRQAUUUUAFFFFABRRRQAUUUUAFFFFABRRRQAUUUUAFFFFABRRRQAUUUUAFFFFABRRRQB0lr4qk1rV9ATxXf6hqei6fIkbR7/ADZUt94Lxx7mHUZwCQBmrPxW8dN8SPiBrPiDy2ht7qbFtA2AYoFAWJMA4BCKuccZzXJUVgqMFNVEtUmvvab++xp7SXK497fhsdz4H+Lmp+CdBvtDOmaRr+i3cy3LafrVqZ4o5gNolTDKVbHHXoKd4q+MGqeNNY8O3+r6ZpNwNDhW3hs1tmS3ljVy4SRAw+XnbhdowABXCUVP1ajz+15fe7/K35D9rPl5L6f8G/56nsM37SU8+hQaNJ8PfBDaVBM1xFaGwuPLSRgAzgef1IArjvhv8T9U+FvieXW9JtrK4kmgkt5bS9jZ7eSNyCVKhgcAgEc9hXH0VEcJQhGUFHSW++o5Vpytd7bG3deMtWuvGE/igXbQa1LeNffaYeCkpYtuX0wTx6VmahqN3q15NeX1zNeXczbpJ7iQu7n1LHkmq9FdMacY25Vtp8iJSlJtt7hRRRVkBRRRQAUUUUAFFFFABRRWtDpMMkMblnyygnBHp9KAMmitn+xof70n5j/Cj+xof70n5j/CgDGorZ/saH+9J+Y/wqtqGnx2sKuhYktj5iPQ0AZ9FFFABRRRQAUUUUAFFFFABRRRQAUUUUAFFFFABRRRQAUUUUAFFFFABRRRQAUUUUAFFFFABRRRQAUUUUAFFFFABRRRQAUUUUAFFFFABRRRQAUUUUAFFFFABRRRQAUUUUAFFFFABRRRQAUUUUAFFFFABRRRQAUUUUAFFFFABRRRQAUUUUAFFFFABRRRQAUUUUAFFFFABRRRQAUUUUAFFFFABRRRQAUUV7L8H/hfoviTwnf+IprK78ZavZzMq+EtNuY4JTGFB86Q58xkJJGIlzletc9evDDw9pPb+vl99kaU6cqklCO7PGq1/DPhPVfGF5c2ukWv2ue3tpbyVfMRNsMa7nbLEA4HYcnsK7qyv5Pi18WfCmg6rpNnoGmfb4dPGl6bbfZ1gjaUb1P8Rc85ZiTmvWPBPjXTtX+I/jvQ7Twjoeh22m6Pq0FncaXbeTOEjRkxKwP7zcBkkjOQMEcg8GIxtSjTbjD3uVy30Xb1+X3nTSw8alRRctLxX3/09/LQ+evh74VsfGniu00nUdfs/DNpMHL6lfnEUe1SwByQOSMckdawbyBbW8nhSZLhI3ZFmjztcA43DPY9a9X/AGcfEkK+PtB8M3nh7w/rNhqupRpPJqulxXMyq2FKo7g7Rx09c1zNjqWneE/jIbu8061vNIs9Zfz7GeBZIWgEpDJsI2425wMcYFdHtZ/WJQt9m6Wmv6+Rjyx9jz9b/wBfkcRRX0LB8N9M+HvxJ+J2qajYWt/oPhuykuLCG6iWWCWS6wtmCrAhhiTP1T2r57q8Pio4nWC0sn96vb5Kz+Y6tF0t31a+62vo/wBBKK0PD/2D+3tN/tXf/Zf2mP7X5ed3k7hvxjvtzX0T440k6hpfiN/D/hDwN4j8JRwSPbXPh1401GyiH3JpCD5pZRgspUg854rsl7seY51rKx8+eHvCuqeKpL6PS7X7U9jaS39wPMRNkMYy7/MRnAPQZJ7Csmvfv2b/AB7LZ2fibSxoegzLY+HNRuxdTacj3ExADeXLIeXjOcFTwQAK8/T4nQ6l448P6zqXhnw7DZWEy+fYafpUUMFxEW+cPHghjtzgnpxVW99RXX/Nr9BX9xy7N/kv8zga7vSPgj4y17w7/bthpcFxpv2d7rzF1C2DiNASzGMybxjB425r0tvh1pXw88ZfEnXryxtdQ8P6TY+dpEV1CssE0l5/x64VgQwUM3025rkf2b/+Rs8Q/wDYuaj/AOiazv7rfVK/4PR/cVb3l2bS++2v4nk9FdN8M/Dlv4v+IXhzRbsstpf38ME2w4bYzgMAexxmvoPXfDPhu9XxPperp8NdJ0e3trn+zZNI1GFdTgmjB8kO2/dITjDK2ck1Uvdjzev4f8PoKPvS5fT8T5Wor0DwLHo7aKxvvh5q3imfzW/06yv5YUAwPk2rEwyOuc96yfHy2CX1r/Z/hS+8Jx+Wd1vfXTztKc/eBdEwO3Q1zxrXq+z5X63X+d/wEncNW+F3ifQzrwvdM8k6EsD6j/pETeQJseUeGO7OR93OO+Kgtf8Aj1h/3F/lXUeJvjRL4kbxuW0vyP8AhJo7KNv9J3fZ/s+3n7g37tvtjPeuXtf+PWH/AHF/lU4eVeUb10k9NvRX6vrdegRvbXf/AIC/W5LRRRXUMKoaz/x6p/vj+Rq/VDWf+PVP98fyNMDR1b4XeJ9DOvC90zyToSwPqP8ApETeQJseUeGO7OR93OO+K5WvS/E3xol8SN43LaX5H/CTR2Ubf6Tu+z/Z9vP3Bv3bfbGe9L8K/FE15CnhC58EweOdOuJmmS1hhZL6BmChnhnQblHAyGyvHOK86FXERpOdaCuraJ26K+7to77tadeo6a5rKTt/wy/W55nRXonxs+HujfDvxFaWmkalJci4g86fT7qSGS506TOPJleJmRm78Y4PIrzuuqjWjXpqpDZl1KcqUnCW4UUUVsZhRRRQAUUUUAFFFFABRRRQAUUUUAFFFFABRRRQAUUUUAFFFFABRRRQAUUUUAFFFFABRRRQAUUUUAFFFFABRRRQAUUUUAFFFFABRRRQAUUUUAFFFFABRRRQAUUUUAFFFFABRRRQAUUUUAFFFFABRRRQAUUUUAFFFFABRRRQAUUUUAFFFFABRRRQAUUUUAFFFFABRRRQAUUUUAFT2V9c6bdxXVpcS2t1C2+OaByjo3qGHIP0plvD58ypnbnvj2qOgDtNS+L3ifWvEmg6/qF6l5rOitG1veyQqJX2OGXzWABkwRjLc4713cf7Qnh+w1jXNX0z4eW+narrdnc219cLqkjgtMpDNGjJiMbjuK8k4wCBnPiFFcNTBYeolFx0V1o2tHutLHRHEVIS5k9dN9dtt+x6T8J/iR4X+HN5Y6pf+DZ9d16xuxdW96msNbIuMbVMflMDgg855z7Vk/EbxZ4Z8XXi3eheFZ/Dl1JNJNdvLqjXgmLnPAMabMHPTPX2rjKK0+rU/a+215vV2+69vwJVWShydPRf8OeqeNvjxceMvhnpHhU6StndWy28d7qi3G9r5IEdYVZNo27Q/wDeOSBXldFFXRoU6Capq13f5kzqSqWUnsrL0LOm339m6ja3fkQ3PkSrL5NygeKTBB2up6qcYI9K9Th+NHhzQ/7UvvDXgGDQtd1C1ltWvBqck0EKyjEhjgKgLwTgEkCvI6K3eqszNaO51nw18en4e6/PfPp8eq2V3ZzWF5ZSSGPzoJVw6hxyp6c4qp4y1fw/rF9BJ4d8PS+HbZY9skEuoNeF3yfm3FFxxgYx2rnqKHra/QFpc91+M3iq/svg38N/Cd6y/wBoSWK6jdlRh/JBdbRG9cIzfpXmfw38eS/DvxMuqJZx6jBJBLaXNnK5QTQyKVddw5U4PBHTFctRR9qUu7f4/wDA0D7MY9v6/M7bVfG+h2WtaLq3g3w3N4XvtNnFyXn1Jr0SspUpwyLtAIOeuc+1bWvfFjw1qcerXdl8O9Os9f1RHWe+uLt7qGNnOXkhgddsbE5IOTtzxXl9FHS39ah1ubui+PPEvhuzNppHiLVtLtSxcwWV7LCm44ydqsBngc+1Vdc8Tax4nmjm1nVr7Vpo12JJfXLzMq5zgFicDNZlFZ+zgpc/Kr9xWsFd14L1q10G+tby80uHV4Fi2m1uDhSSvB5B6fSuFrSi1jy4kTyc7QBnd/8AWrQZt3Uqz3MsiRrCjuWWNeiAnOB7CtfVNes77w/punw6Pb2l1akmW+jPzz5/vcfzJ9sVx/8Abf8A0x/8f/8ArUf23/0x/wDH/wD61HSwdbnV+FtatdB1iO8vNLh1eBVZTa3BwpJHB5B6fSue8RSrOHkSNYUeYssa9EBycD2FVf7b/wCmP/j/AP8AWqC81H7ZEE8vZhs53Z/pQBSrqdJ+JviPw/4Vn8PaVqLaXp1zK0twbNRFNPkAbXlHzFQB93OOTxXLUVE6cKitNXRUZOLvF2YUUUVZIUUUUAFFFFABRRRQAUUUUAFFFFABRRRQAUUUUAFFFFABRRRQAUUUUAFFFFABRRRQAUUUUAFFFFABRRRQAUUUUAFFFFABRRRQAUUUUAFFFFABRRRQAUUUUAFFFFABRRRQAUUUUAFFFFABRRRQAUUUUAFFFFABRRRQAUUUUAFFFFABRRRQAUUUUAFFFFABRRRQAUUUUAFFFFABRRRQBY0//j7j/H+RqvVjT/8Aj7j/AB/kar0AFFFFABRRRQAUUV6n8PfhFY614JvPG3iC9vh4esrhrd7PRLRri8kYKGO4kbIUww+dye/FYVq0KEeeb0LhCVSXLHc8srqtc+HOq+H/AAToHim6ktG03WmlS2WKcNKDGcNvXt+vvin+KvFPh/Vta059I8KW+kaLY4U2ZuZJJrtd2WM02QSzDj5QNoPFdr8RNK8J6l8GtA8WaD4Vi8M3t1q89jNHDfXFyrIkasP9a5xy3YVzVMROLp3i1zOz2ffR66d7q5tCnFuSunZefr26fI8dor2Twro3gzRPgdB4v13w3Jr+pnxA+npEL6W3R4/s6uA5U9Adx+UBiSOcDFXdZ+G/heT4n/DB9NsJrfw34uSzuZdKnuGcwb5vLliEoIYrxwc55pfXoKbg4vRtX0tdK9t77eVhexfJz3W17dbXt+Z4dRX0Lb+Efh54t8T+NfBOmeF7rStS0uG/msdbOpSSs0luWOx4m+UIQpA6sABkk815/deE9Kj/AGf7DxItrjWpfEUlg915j8wi3DhNudv3jnOM+9KnjoTteLTfLvb7Wz0b7Pz8i5YaUXa6e/3xV2jzqrmoaPf6Slq97ZXFml3CLi3a4iZBNESQHTI+ZSQeRxwa9N8YaH4a8DWXwy1Z/D6apBqOjG81Gzku5o1u5C8iAllbKYwpwmBx7133xs8aeDbbQ/Aa3Pw7tbxrrwvBJZs2rXSfYoy8gWMAN84U5OWyTnmoljnzQVOm2pNrp0v3a7fd56Dhh0780krJPr15fLz+/wAj5ooorT8OahYaXrVtdappSa3YxkmWwkneFZcqQAXQhhgkHj0r1jjK9/pN9pa2rXtlcWa3UIuLc3ETIJojkB0yPmU4PI44qpX0d8afGPhC30fwQtx8P7a7kuvDFvJaSNqt0n2NGaQLGAG+cKcnLcnPNecWPhPSfEXwR1DWbC08rxHoOooL+RZHbz7OYYjbaTgFXG35QODzSe8vJ/rb/hx/y+f+V/8AhjziivbNS+Hnh3R/iX8NfBsun77yZLM+IGM8mZZZ3DGLhvk2oQPlwefWtG38K+APFniDxn4P0zw1c6VqOlwX09lrR1GSVne3LHY8R+UIQCB1YADJJ5ol7qb/AMX/AJLuKPvNedv/ACbY8Cor3T4RfCGHXPhzN4o/4Q+68d30uoNYxabFetaxQRqgZpXZSGYksAADisb4yfDTSfh74s8Nvc2Oo6HpWrWiXd1pfmLPc2R3lZI0ZiA+MZUse/NKfub/ANaX/IS95Nr+tbHklW7bSb68sbu9t7K4ns7Pb9puI4maOHccLvYDC5PAz1rtruH4VfZZvst54xNzsbyhNaWgTfjjcRLnGcZxWd4X8aW2h+APGegyxzNca2tmIXjAKL5Mpdt5JyMg8YB59K5vbSlG8Iu91uraNq/3K7AwLjw7q1rrCaTPpl5DqrsqLYyW7rOWYAqAhG7JBGOOciqVxby2dxLBPE8E8TFJIpFKsjA4IIPIIPavXLfxpbfED9pLw/rlpHNFb3GpaeqpcKA4KCJDkAkdVPfpW1caP4N8feLvHHh+HQbiy1q2F/eQa2b53aWaJmdleHGwI2DjHIGOSea5HjJU1H2sPs3dunf5L7yVLWz8vvf/AATwWiu8uvDOmx/BCw8QLbY1eXXZLN7jzG5hEAYLtzt6nOcZ960fFWj+H/Btv8PdSfQ01GC/0j7Xf2kl1LGLmQu653BspjCnC4HFdP1mN+VJ3u180r9xqV9vP8HY88vtLvdMW2a8s7i0W5iE8BniZBLGcgOuR8ynB5HHFFhpd7qrTLZWdxeNBE08ot4mcxxryztgcKO5PAr3j4v+LfClvpPgxbjwJb3T3PhuCS1c6ncr9kQtIFjADfPtOTluTnmqH7PfiDQYbXxHaTeFYbm/g8PahNcagb6ZWuogMmEoDtUEELuXnjPWuX67U+ryrezd1ft3fn5a/hcXM7Rdt7fjY8Moru7eDRPiV468O6Po2gR+FILy5jtZvJu5bndvcDfmQnBAzwOK7aHw74E8Za14n8K6T4buNGvtLtbqWz1c6hJM8724JIljb5QH2n7uMVvUxapJc8Htd7aLu9fyuPm1t6fjseHUV6v4c0nwlo/wdt/FOs+H31vUW1uSxWMXkkCOnkq4DlT0ByflAJJHOBisf4ueF9H0O48PapoNvNY6ZrmmR362U0plNu5ZlZA55ZcrwTzzVxxUZVfZ2e7V9LXSv3vt5BGXN+P4Oxyt34T1yw+3/adG1C2/s8Rm8861dfswf7hkyPk3ZGM4znisqvYPGXxm03xG3xGMNveIPEsWnJbeYiDYbcpv34Y4ztOMZ7ZxXj9Vh6lWpG9WPK9PyTf3O6+Q43td/wBaL9bhXT658PNU8P8Ag3QfE11Jatp2tGQWyxTBpRsODvXt+vviufsZobe+t5bi3F3bxyK0luzlBKoIJUsORkcZHPNeq/EPS/C2ofCHw/4p0LwxF4bvLrVbizmjhvZ7gMiIpH+tY45PYV1S0jf0/NL9Rr4rev5X/Q8jq3faTfaZHayXllcWkd1EJ7d54mQTRkkB0JHzLkHkccV6Z4T0Pwr4a+Ex8YeItCk8TXd9qjabaWZvZLWKFUjDtIWTlmOcAdK1vjc2iTf8KtZlvbbQX0CJmSMrJcRxGaQlQThWYDjJwDjPFKb5fvX4psFqm/Jv7mkeJVbttJvryxu723sriezs9v2m4jiZo4dxwu9gMLk8DPWu2u4fhV9lm+y3njE3OxvKE1paBN+ONxEucZxnFZ3hfxpbaH4A8Z6DLHM1xra2YheMAovkyl23knIyDxgHn0rm9tKUbwi73W6to2r/AHK7EYFx4d1a11hNJn0y8h1V2VFsZLd1nLMAVAQjdkgjHHORVK4t5bO4lgnieCeJikkUilWRgcEEHkEHtXrlv40tviB+0l4f1y0jmit7jUtPVUuFAcFBEhyASOqnv0rauNH8G+PvF3jjw/DoNxZa1bC/vINbN87tLNEzOyvDjYEbBxjkDHJPNcjxkqaj7WH2bu3Tv8l95KlrZ+X3v/gni2i+HdW8STvBpGl3mqTINzR2Vu8zKPUhQcCqt9Y3OmXclreW8tpcxHa8M6FHQ+hU8ivavC8d6vwV8P2Ola9b+FpNW126+1ajcXTW0bCKFSivIvOOuB0yRWL8arqbVvDPw61a9l+16ndaTJHcXjHLzeXO6oWbqxx3PJq44tyrqm1o2156Ju/bowjLm/H8HY89u/CeuWH2/wC06NqFt/Z4jN551q6/Zg/3DJkfJuyMZxnPFZVeweMvjNpviNviMYbe8QeJYtOS28xEGw25TfvwxxnacYz2zivH66MPUq1I3qx5Xp+Sb+53XyKje13/AFov1uFFb/gHwyPGnjbQtCaY26ajeRWzSqMlFZgCR74zXrkHhv4feN9b8VeEtH8L3Oh3+lWl3NZaydSkmed7cEkSxN8oDhT93GK6pe6r+v4bjWrt6fjseCUV6/4a0fwdovwVtvFmt+HX17Um12SwWIX0tujxiBXAcqegOT8oBJI5wMGTxR8LdE1Xx/8AD+20BJ9J0jxhb21wLaaXzmsy8hSRVY8sBjIJ9arlfMo92l96uvwFdcrl5N/c7HjldFa/DnxZfaQNVtvC+s3GlmMyi+i0+ZoCgzlt4XbgYPOe1egeIbr4VtfeIfD48OXnh+SxWeKx1xb+W5kmnjJCiWIjaFcj+HGKk/Z11zUptb17T5NQupLCPw5qJS1aZjEv7o9FzgdT2rPmTi5Ltf8ABv8AQqzUkn3t+K/zPGa6fXPh5qnh/wAG6D4mupLVtO1oyC2WKYNKNhwd69v198Vz9jNDb31vLcW4u7eORWkt2coJVBBKlhyMjjI55r1X4h6X4W1D4Q+H/FOheGIvDd5darcWc0cN7PcBkRFI/wBaxxyewqpaRv6fml+ol8VvX8r/AKHkdT2dncaleQ2lpBLdXUziOKCFC7yMTgKqjkknsK9P8J6D4W8NfCseM/EWiSeJrm81RtNtNP8Atj2sMSpGHaRmT5iecAZxU3hs+E5/jV8P7vwktza2tzfWclzp10zSGzn84Bo1kIG9ehB681cY3moea/HX8iJStBy9fw0PKLq1msrmW3uIpILiFzHJFKpV0YHBUg8gg8YNRV9BeNPhZF4Fv/G/jLx5pLyW1zqNzBomlvKyfbJpHdlldo2DCNF+bGQSePr5Z4Wj8BvprHxJceIodQ8w4XSreB4dmBjmRwc5z29K5nU5YqTV9ttdzWa5X8/6ZyFat34T1yw+3/adG1C2/s8Rm8861dfswf7hkyPk3ZGM4znirPi5fDEd1B/wi82rTW2z96dXiijcPn+ERswxj1r0Lxl8ZtN8Rt8RjDb3iDxLFpyW3mIg2G3Kb9+GOM7TjGe2cVjOtU9104XT3v01ivybfyI1uu3/AAV+lzyzTNF1DWpJ006wub97eF7mZbWFpDHEgy8jbQcKB1Y8CqVfR/7LHifw1b2/iiyuPBkF1qlv4Z1Oe61RtRuFa7hC5MBjDbUBUhdyjcMZ615xBD4d+LXxE8K6F4f8MQ+CoL+7isp/Ivp7zfvkA35lJwQCeBwaxjjJe3nSlTajFJ308/O/TTS/ex2OhFUFVUldtq2vS3l5+nY83or6+1j9mvT9Si8T6XH8MNV8J22m2dzPp/imbVmnNy8Kkr50JO0LIFP3ANuRXmvwK+HOi+KvAuvauPCzeP8AxNa3scEfh5dSa0MdsULNcYQh5Pm+XAPHWueGbYepSlVjf3bdY/a0Wt7L5tW6m88BVhOMH1v36K76XfyvfoeF1d1DRdQ0iO0e+sLmyS8hFzbNcQtGJ4iSBImR8ykg/MOODXf+Nh4b8J/ESxll+H+p6VaRQBtQ8K61dTRjzSGH7uYYl8v7rAnnIPJBr1b46eOPBNroHw+W6+G1revd+FIJLJm1i7T7DGzyhYwA37wKQTlsk55rSpjpJ0uSk2p+cezf83l6W2ZEMLFuopTS5Vfr3S7X6+t+h84eGvDeo+L9cs9I0m2a71C6fZFEvHuSSeAAASSegFaPibwrY+G/E0Gkf8JBZalGNi3d9Yq8kFu5YhwDgGTaOcqMHoK7H4GsbPTPiNqMJ2Xlr4anEMo6oXdFYg9jgnn3ryqvZlaPL6X/ABat+B5qvLm+78E7/idV46+Hl94FkspXubbVNJ1BDLY6pYuXguFBwcEgEMDwVIyDWBbaTfXljd3tvZXE9nZ7ftNxHEzRw7jhd7AYXJ4Getelaaxv/wBmnWUnPmLp/iK3kt93/LPzIWDgegOBXNeF/GltofgDxnoMsczXGtrZiF4wCi+TKXbeScjIPGAefSsazlTuoK+sfudr/cm/uGm2k/63sc1qmk32h3r2eo2dxYXcYBe3uomjkUEAjKsARkEH6Gqldh8WvGlt8QPHl/rlpHNFb3CQKqXCgOCkKIcgEjqp79K4+poynKnGU1Ztarsylsgor0WHwnpWtfA2fX7G18rXdF1RYNRkWRz5ttMv7pypO0YcFeAM55zVn4g+C9G8L6l4I8PR2Vz/AGtJYwXGtPZ7pbiSWdtwiSNm271jKgAYyW5ra2tvNL71cV9L+Tf3Ox5jXRWvw58WX2kDVbbwvrNxpZjMovotPmaAoM5beF24GDzntXvs3wLsNa0fX4z8M9X8HW1lp895Y67eai0ssjxruVZ4SSo3gHO0DFcN+zrrmpTa3r2nyahdSWEfhzUSlq0zGJf3R6LnA6ntUt6S7pX/AD/yKS1j2bt+X+Z4zRXVfCvRbLxJ8SvDGlajD9osLzUYYJ4dzLvRnAIypBHHoc12HgXwLoesfFDxrpF5Zedp2nWeqS2sPmuvltDu8s5DAnGB1Jz3zTfuq/k39yTf5iWrt6L79DyWivdPhF8IYdc+HM3ij/hD7rx3fS6g1jFpsV61rFBGqBmldlIZiSwAAOKxvjJ8NNJ+Hvizw29zY6joelataJd3Wl+Ys9zZHeVkjRmID4xlSx780p+5v/Wl/wAhL3k2v61seSVbttJvryxu723sriezs9v2m4jiZo4dxwu9gMLk8DPWu2u4fhV9lm+y3njE3OxvKE1paBN+ONxEucZxnFZ3hfxpbaH4A8Z6DLHM1xra2YheMAovkyl23knIyDxgHn0rm9tKUbwi73W6to2r/crsDnb7Rb/StSOn39nNp96u3dBeIYGXIBBIfGAQQeexqyfCuoiwF8Vt/shl8gTfbIdvmbd23O/rjn8R6it34p+MrH4hfEG91uIXNtZ3CQr+8jUyjZCiH5Q2Oqnv0/Kut0/QdH8Vah4Qg1O7WLfBBGlnBb+X9t8yaQNI21/3bhFG5gDuKrkkscYyxE6dKE6is3vpe2l/6+8nm29Lnm1x4T1Kzh824S3gQwfaU827hQyx5xuQF8vkg425JwcdKTT/AAnq2rW8dxa2hlt5BKRNvUIPKQvIGYnCkKN2Dg456Gu51LS7O+8L3eo3lrbzXg8O213bGMTILbF0lsqjMpD/ACKx5A5bpS+DbiwutJL2aXds0em3kN3bNIfs0lz9iusToN33vKUA5HBc44IpPEz9nKSWqutu3z+QKV0n/Wyf6nn994fvdOs7S7nSMW107xwyxzxurMm3cPlY4xuXr61I3hXV18RTaCmnXFzrEUrwtZWqedJvTO4AJnOMHOPQ17L4h0u10mz1u0s7Zba2gs9UjSNckKwa03AE+5P5+lc+vjK2+H/7SOr6/eRzS21pq19vS3UFzu81BgEgdWHes4YudSLcI3fLJrza2X+YlJuLa/rb/M8wuNJvrOxtb2eyuILK6Li3uJImWOYocOEYjDbTwcdKqV2PiXxrba38PPCOgRxzLc6PJevM7qNjedIrrtIOTjBzkD8a7Dwjpvgv4wfYNBOjX/hfxX5Swx6hosD3tpdFQBvmtxl4yccshIySSK6JYiVODnUg7Xe3RJuz77drnRCPO7Xt/wAPoePUVs+MPC9x4L8UapoV3NBcXOnztbyS2zFo2ZT1UkA4/CsauqEo1IqcXdMmUXCTjLdBRRRVkhRRRQAUUUUAFFFFABRRRQBY0/8A4+4/x/kar1Y0/wD4+4/x/kar0AFFFFABRRRQAVteFPGWueB9UXUdA1S50q8XgyW743D0YdGHsQRWLRUyipJxkrpjTa1R2niPxxY+PvEWlX2u6TbaSqkJqVxoFssUlyu7Jk8skJ5mM9MAn0r0W88afB+8+HOneEGm8braWV/LqCXAsrPzGZ0ClT++xgba8GorjqYOE1GKbSjtZm8a8lJyerff7jvLzx1psnwXg8HxRXX2+LX31QTOiiIwmARgZDZ35HTGMd67Pwz46sPF3xA+CNhZw3MU2hvaWFy06qFeT7TuymGOVww64PtXiFT2N9c6ZeQXdncS2l3A4kingco8bA5DKw5BB7iiWEhJO292/m1b8mT7WVmvK3yvzfme+a98RPA/gPxj491LStM1tvGV5Jf6cI7iSI2EDSOySSqw/eHjJCkcZxk9a4rwT4+8Lv8AD258F+M7TVTpg1EapZ32imMzxSmPy2RkkIVlKgd8g15tdXU19dTXNzNJcXEzmSSaVizuxOSzE8kknOTUVZU8BTjT5ZNt6a3/AJdren66m1TEylPmSsrt/fo7/I7v4s+P7DxtfaNa6NYz2Gg6Hp6abYx3bh53RSWMkhHG5ix4HArodY8ceA/HHgzw9B4hj8RWXiHQ9J/suA6bHBJazBGdo2cuwZeW5wD7V5HRW31SnyRhFtcrunfW7vf77u5n7aXM5d1bysrWX4IKKKK7TnPV9Z8beBvG3hDQYtej8QWfiHRdJGmQf2ckElrMELGNmLsGXlucA+1Xf2WLzyfiJe295Ctx4fn0u5bV0kPyLbou/efcOqY+teN1csNYv9Kjuo7K+ubNLuIwXC28rIJoz1RwD8ynA4PFVzNNyW7v97v/AJiaulF7K33Kx6J4L8UXHjb9ozRNduc+dqHiCGfaf4VMw2r9AMD8K6rW/iB4K8D+KPHWoaVputN4vvWvtP8ALuJIjYwNI7LJKhHznjJCkcZxk9a8Msb65028hu7O4ltbqFxJFPA5R42ByGVhyCD3FNubma8uJbi4leeeVzJJLIxZnYnJYk8kk96iy5FBbK6++y/Qq75nJ9bP7r/5nonhHxx4ZuPALeEPGFrqn2GG/Oo2d9oxjM0cjIEdGSQhWUgA5yCDWH4h8SaLZeJtPvvBemz6Rb6ekfly6g4uJriVTkzSK2YwTx8ijbxXJUUSSlv/AFpb8ielv67noN38evG19azW02pWbQzI0bqNJs1JUjBGRFkcdxXn1FFZU6NOjf2cUr9lYe2xveAtet/C/jbQdYu0kktrC9huZUhALlUcMQoJAzgdyK9Hb4oeCdH1DxP4h0TTdbHiPWIrqCOG8eL7Jb+eSHkBU7ycHIU8DJGT1rxqisq2Fp15c077W33XYnlV7+n4HonhHxt4ck8Cz+EfFlrqZ09b/wDtK1vNIMZmjkKbGVlkIUqQB3yDWd8TvG1l4wvtKg0mzmsdF0exTT7KO5cNMyKSS8hHG5ix4HFcZRTWGpqp7Xrv5X2v9w0lHb+up6hq3jHwX4x8J6HFrcevWevaPpY02H+z0hktpQhYxsxdgw5bnAPtWD8K/Glj4K1+9l1S2uLnTNQ0+4026FoVEyxyrgsm7gsMDrXG0UlhockqetpX09ewuXRLt+mx2cmveH/CPjLRNZ8HNqlzHYSx3LLrUcUbNIr52jy2YbSAOevJrsZPiZ4H0O88Q694c03XB4i1i3uIBDqDw/ZLQz/6xlK/M+MnAIHXmvG6KmeEhUSU23033XZhZXv6fhsdlP4yspPhDa+FRFcf2hFrT6i0hVfK8swhAAc53ZHpjHejx74ysvFOi+D7O0iuI5dH0sWVwZlUBnDs2UwTkYYdcH2rjaK0WHgpKXW7fzasNK34/i7hRRRXSMuaOLBtUtRqrXKab5i/aGs1VphHnnYGIBbHTJxXs194y+El78PdN8JtN40W1sb6W+S4Fnab2aRQpU/vsYGK8Nooeq5f67/oHW56d4U8deE5/h7P4P8AFtrrBsodRbUrC90jyjMrMgRkdZCF2kAHIOc0nxG+KOna1feC7nwva3Wm/wDCO6dHaRrfpHKQ6SMyt3V+CM5UZOflxXn8ekzSRq4ZMMMjJP8AhTv7Gn/vR/mf8KUkpb/1pb8g7r+tXf8AM7K7+PXja+tZrabUrNoZkaN1Gk2akqRgjIiyOO4rz6r/APY0/wDej/M/4Uf2NP8A3o/zP+FZU6NOjf2cUr9lYNti/wCAtet/C/jbQdYu0kktrC9huZUhALlUcMQoJAzgdyK9Hb4oeCdH1DxP4h0TTdbHiPWIrqCOG8eL7Jb+eSHkBU7ycHIU8DJGT1ryS60+S1jDuVIJx8pNVayrYWnXlzTvtbfddieVXv6fgei+FvG3hq68Cjwn4utdT+yW961/Z32jmMyxsyhXRkkIBU4BznOazviX42sPFUmjWGjWU9joWi2Ys7NLpw87gsWaSQjgMxPQcCuLoprDU1U9p8/K+1wUVHb+uv5hRRRXUUa/hHxJP4P8U6Trlsiyz6ddR3SRv91ijA7T7HGK9Vk+KXgLw/e+JPEHhnS9eHiTWra4txBqLw/ZLMz58xkZfnfGTtBA6814nRQ/eVn5/jv94LR39Pw2O3uPG1jN8GrPwkIrgalDrb6k0pVfJ8toRGADuzuyOmMY71r6r8W4I774a6hpVtN9s8KWcMUq3SqqSyJKz/KQxO0g4ycH2rzGind35ut0/uVl+ArK1vJr73c9f1rxt8MRca7rWmeHtYvdc1SOby7LVzC1lZSy8tIhX5nKknbkCuU+Evjq18AeLGvtQtZrzTbqznsLqO2YLKIpUKlkJ43Dg88VxdFSko6La1vkU23v6/M7PXIvh6uqaSNHufEz6cZT/aLX1vbrMseRjyQshDNjd94gdK7++8ZfCS9+Hum+E2m8aLa2N9LfJcCztN7NIoUqf32MDFeG0U+nL/XcXW56b4T8deFp/AU3g7xbaasdNh1BtRsb7SDEZ43ZAjI6SEKVIAPXINMfx94X0/4keEdU0TQ5tM0DQZbcvnY95eeXIHeWQjClz0xnAwOa81opptSUuqt+Gn5CaTTj3/XU9W0v4raTPfeOtL1y2vbjwl4kuZ72KOFEa4s7kuzQzKpYLuGQrDdyO5xzzHhb4reJvBemtp+j3tvBaGQy7ZtPt5m3EAE7pI2PYcZxXIUVjKlCceWautN9dhy97fvc3vF3jjWfHN1Bc6zcQ3E0KeWjQ2sUAC5zjEaqDz3NYNFFVCEaceWCsvIDvvgv8QNP+Hnii9uNXtLm70jUtMudJvFsmUTpFMm0vHu+UsMDg8UXHiPwv4I8deHte8BPrV3Hps8d26+IIoY2aVJNwUeUzDaQByeeTXA0VhLDwlUdXXVWa6Na7/ezZVX7P2XS9/Tb/JHsPivxZ8I9Sk17WrHw/wCJLvXtUEskdhqNzGljZTyHJkV4iJJApJ2qwAPfNc14B1L4fR6Rc2ni6x1231FbhZrXWNAlRpVXbgxNFIypjPzBgQ2fauDorOOEjCm6alLp1eltrf1r1uaSxEpy55JX16LW+9/606WPS/jZ8TtO+Ilx4dtdIh1E6boWnLYQ3msyLJe3PzFi8hXgdcAAnAFbGtePfh9488EeHLfxHF4lsfEmg6R/ZVudLjt5LScIztEzl2Vl5b5sA+1eOUUvqVJQjCN1yttO+t3e/wB92P6zPnc3Z3SVullay/BHefB/xhp3hXX7+11vzBoOtWEul30kI3PCkmMSgdyrAHHpmsnxP4J/4R/xRb6RbazpmsQ3WxrfULO4BgZXYqpcn7hGPmB6VzNFejzXtfp+XY4rWvbr+Z6n471LSPBvw7tPAek6pb65eyX39patqFkS1sJAmyOGJv4woJJbpk8e3llFFJvmbb/roNKysgooopDPRfgv8QtH8Eanq9t4ktLq/wDDerWf2a7trNVaQsrq8bAMyjgg9/4jSJ8XJV+N3/CwJLT7Vt1I3a2khwfKzhUzzghMAHsQK87op3fNGXVf8OKy5XHo/wDhj3LR/iZ8N/Cuua9q+l2niq8vtXsby2Z9SaBhA0yEDG1sv8xGWY5AB+Uk8cD8JfHVr4A8WNfahazXmm3VnPYXUdswWURSoVLITxuHB54ri6KlJL7rfLX/ADKbb++/z0/yO8utd8J+D/Evh/W/BMmt3Vzp90t1LHrsMMakoysgXynbOcMDnHbFdhdfFXwJot14n17w1pWuL4l162uLdodQkh+yWXn/AOtZCvzOeTt3Ada8TopvVWfn+O4LR39Pw2PSfCPjjwzceAW8IeMLXVPsMN+dRs77RjGZo5GQI6MkhCspABzkEGsPxD4k0Wy8TaffeC9Nn0i309I/Ll1BxcTXEqnJmkVsxgnj5FG3iuSopSSlv/WlvyJ6W/rueg3fx68bX1rNbTalZtDMjRuo0mzUlSMEZEWRx3FefUUVlTo06N/ZxSv2Vh7bCqAzAEhQTjceg969EuL2HS/E3hi403WtLuP7HsYfMvnMnkB97vgIVWRyA4BCrkHr0NedUUVKftLXf9bCtrf5fl/kemXPijR9bs9a062vZNNji0mOwspL1Ny3UUDLKVODmKR5EZh95fm2cfeJYeKNOXwr4VjN9BbHTjejUre3t1ilmjl2IIwQo8xnjVlL87R94jgHzOisPqsLWT8/waf33+8XKrW/rselSeJk8TNHPHrVtpmp6015b6jbag0v2WBpJI382MgNs8zgHPAMZJIGMcx8RtRt9X+IHiS+s5VntbjUbiWKVejoZGII9iK5yirp4eNOSlHpdfe/+AUFd/efGjXI/DcWgaDFbeFdK8lI7lNITypr1goBeeb77knPGQvOMVwFFa1KUKtudXsXGcoO8XYKKKK1ICiiigAooooAKKKKACiiigAooooAsaf/AMfcf4/yNV6saf8A8fcf4/yNV6ACiiigAooooAKKK73wV8KX8RaBJ4l1nWrLwz4VinNs2oXRMsksgAYxwwp8zsAQew561lUqwox5puy/r7yoxc3yxWpwVFej2uieC/F3xJ8KeHPD0WrQ6RdXkNld397KgubkvIFLqgBWMAHgfN75rrj8I/AOt6t4t8L6DquvHxTosV3PDNepD9iufs5JeIBRvDYBAY4BIJwOBXJPG06dudNaX22Xd9vzN44eU3aLW6W/V7I8Kor1XwP8P/CF38KdQ8ZeJ73V4Vs9YTTxbaX5RadWhLgLvX5WzzuJxtUjaSRS+JfhJpN7r/gZPBuqT3WleLiI7ZdT2faLSQSiN1l2cHBIOQBkZ+tX9cpe0dN30dr20va9r+mpPsZcntOlr+dr2/M8por6Cv8A4B+GdRbxBpGhL4ut9b0i2nnTUNXskTT74wgl1TADJuAJUknPevn2qw+Kp4m/s+lvuezCrRnR+L0+a3/MKKKK6zA1/CvhLV/G+tQ6RodjJqOozBmSCMgEhQSTkkAYA7msy4gktZ5IZkaOWNijowwVYHBB/GvUfgFY+GdY8XaZpmoXfifTNfvbwW9pf6DexW6xIy4O4shbP3uh6GuSsfB8niD4lR+GLSdg91qn2GOef5iMy7NzY6nHJp2blGK6/wDA/wAxXXLKT6f8H/I5eivpf4e6H4E0Pxd4z0/wzfa3PqWn6FqdvO+ppF5NztjKs0WzDLhhwGzkHqMYPi3hXwt4Z1jTDPq/jW38P3XmFRaS6dcTkqAMNujUjnJ468VjOrGCvq1ZPRN7t9F6Dfuq772/BP8AU5Git7xboujaHdwR6N4ih8Rwum55obSW3EbZ+7iQAnjnIr1fx58VtB11/iqbW+80a9DpaWP7mRfNMJTzByvy4wfvYzjjNYTxElyuEG0/VW1itmuzb+XzS6pf1uv+H+R4VRXovhPwT4bh8CSeLfFt1qf2GW+OnWllpAjE0jhA7OzSAgKAQOmSavX3wp0mP4geCrGzv7u58N+KBbzQTSBUuoo3k2OjcFd6kHkDHtQ8VTU3B30v00uldr7iedWb7fpueWUV6L4V+HWm658QPFGhzz3SWml22oTQvG6iRjBu2biVIIOOcAe2K679nuTwh9l8Ri6h1s6uPD2oG9aGaEW5t8fMIgV3CTbjBYkZzxWdXGRp05Tim7JP5O9vyKbs7edvy/zPDKK6Dxe/hZrm3PhaLWIrfYfOGsSxOxbPG3y1UYx616r48+K2g66/xVNrfeaNeh0tLH9zIvmmEp5g5X5cYP3sZxxmrnXnHl5abd/w1ivPo2/l9x1S/rdf8P8AI8KoorQ8P6V/b2vabpvnJbfbLmO386T7se9gu4+wzmu6KcmkgbUVdmfRXs3xB+HfgHwbcazo0sni7S9YsRIlvf6nbRmyvJU7KqqGVX/hbJ4IJrY/Zvk8F/Y/EwuoNeOtDw5qJvmhmhFubfA3CIFNwk27cFiRnPFSmmm10V/wKs00n1djwGiu+S1+HmreOPD9pYDxFZeH7iZYdQl1C4gM6bmwHRlj2gDOTkHoa29J+DNtZ+PvG+l+IZrqDRvC1rcXU89sypJKF4gCllIBkLIenTNGyu/P8Nw629Px2PJqK99/Z9+JHiXUBrPhe41eeXQLfw7qDRWLBdiEREjtnqT3714z4R8Nz+MPFGk6HausdxqF1HbJI/3VLsBk+wzmqs3NQXX9W1+hN0ouT6f5J/qZFFe9X/wL8N6gNf0zQ18WW+s6RbT3C32r2SJYXvkgl1TADJuAJUknPevM/CvhbwzrGmGfV/Gtv4fuvMKi0l064nJUAYbdGpHOTx14rGdSMFd3+Sb/AC1G/d39DkaK3vFui6Nod3BHo3iKHxHC6bnmhtJbcRtn7uJACeOcivV/HnxW0HXX+Kptb7zRr0OlpY/uZF80wlPMHK/LjB+9jOOM1hPESXK4QbT9VbWK2a7Nv5fNLql/W6/4f5Hltr/x6w/7i/yqWorX/j1h/wBxf5VLXYMKKKKAKGs/8eq/74/kaxq2tZ/49U/3x/I16348+K2g66/xVNrfeaNeh0tLH9zIvmmEp5g5X5cYP3sZxxmuWtVnTlFRhe/4axX5Nv5fcuqX9br/AIf5HhVFd34Js/AWvaO2meIb3UPDet+azQa1Gn2izZSBhJoh864IPzJn73I4pviL4O+IdA8T6NokYs9Wk1vadKutOukkgvFZtqsjEjHPHzYxT+sQU/Zy0fn19Ht+vc29nJw51qvy9ThqK9U1LwX4J+G0F1B4l1iTxP4mVGjGkaE+21tZMEDzrlh8xB6rGOoxurl/hV4Kf4ifELQ9AHyw3dwPtD9NkK/NK2e2EVqUcTTlCVT7K1v0+X+e3YJ05Qsnu+nX+vxKXinwTqfg230aXU1iibVrJNQt4lfc4hckIzj+HOCQPSsCvV/EWqWnxs/aGt4pHkh0TUdUg0y2FuQrRWgZYk2ZBAOwZ6EZJrePwj8A63q3i3wvoOq68fFOixXc8M16kP2K5+zkl4gFG8NgEBjgEgnA4Fcqxqpwi66ak1zOy2Xn6dTd4fmm403s0vV+Xq07HhVFeq+B/h/4Qu/hTqHjLxPe6vCtnrCaeLbS/KLTq0JcBd6/K2edxONqkbSSKXxL8JNJvdf8DJ4N1Se60rxcRHbLqez7RaSCURusuzg4JByAMjP1rf65S9o6bvo7Xtpe17X9NTL2MuT2nS1/O17fmeU0V9BX/wAA/DOot4g0jQl8XW+t6RbTzpqGr2SJp98YQS6pgBk3AEqSTnvXnHgmz8Ba9o7aZ4hvdQ8N635rNBrUafaLNlIGEmiHzrgg/Mmfvcjiop46lVi5QTdrdNbPZ2/p+RUsPOm0pWV7r5rp/WhwlFdV8QPhzqfw7vbOK+ms720voftNlqGn3Amguos43oRz14wQDXK12U6kasVODumYyjKD5ZLUKKKK0ICiiigAooooAKKKKACiiigAooooAKKKKACiiigAooooAKKKKACiiigAooooAKKKKACiiigAooooAKKKKACiiigAooooAKKKKACiiigAooooAKKKKACiiigAooooAsaf/wAfcf4/yNV6ms5FiuEZjhRnn8KhoAKKKKACiiigArr/AAP8VvEfw/Sa3027SfSrg/6TpN9GLizuPXfE3HOByMHjrXIUVnUpwqx5Jq68yoycXeLsz13wd4g0DxJ8bvAF7onh4eGpG1W1+2WkNw0tu0nnL80QblFI/hyQO1dld634F+HPjn4geJofEd1f69c/2lZW/h86e6NFPMzozPNnYUUliMckY4B4r5+0TWrzw7rFlqunTfZ7+ymS4gm2q2yRSCpwwIOCBwRio9U1K51rU7vULyTzry7meeaTaF3OzFmOAABkk8AYrzamBVSaXM1Dlaet27u9tb6fO51QxDheTV5XTXyvrpbX+md3aeLNKi/Z/wBQ8NtdY1qXxFFfpa+W/MC27IX3Y2/eIGM59q5jwF4n/wCEL8baFrxhNwum3sN00IOC4RwxAPqQKwaK740Yx5/7zu/uS/Q5pTcoxi+it+Lf6n0R4w+I2jXSeINTh+MfjLVLe+SZrLw7bvc27RPISVjmd2MZjXOCFzkDjFfO9FFZYbCxwqcYu/3dPRL/ADNa1aVZ3l+oUUUV2HOerfApfCOg+JtE8Ua/4yg0efTb4SnTW065meRFwQQ8aFRnJ49qbf6l4a8B/E7RvFmieJovFUaaqb+e2gsZ7ZokEgfGZVAYkEjj05ryuiq5mpRkun/A/wAhWVmn1/4P+Z9C6Prvw18KeKvF2vWfjG41A61pt/FbWjaXNGbd5lJCSPg7jk7QVGOpJHfyjwr8QIfDGmGzk8J+HdbYyGT7TqtrJJKMgfLlZFGBj07muRornlSjNcr2sl91/wDMqXvb97/19xveLvFUfiq6gnj0LSdCESbDFpELxI/OdzBnbJrBooq4RUI8sdhHp/hXW/DXiL4Zf8Ihr+syeHLi01NtRtb42j3MUivGEaNlT5geMg4xVjxN8StI0/xh4EfQjNqel+EooIhczR+U12yymR2Cn7oOcAHmvKKK5fqkOdzbdtXbpdqze19vMjkVmvX8dWe5HxN4F8J6t4s8U6R4iudYv9ZtbqG00htPeFrdrjO4yyN8pCZP3c5rifg74n0rw14h1NNZuJLLT9U0q60x7uOIy+QZUwHKjlgCOg55rg6KmODhGEoOTfMrX0vZbdOhVvzv8/6RveLtF0bRLyGLRfEUXiOB49zzxWktuI2yRtxIATxg5HHNYNFFdkIuMbN383/wLDCrWmfZP7Stf7QExsfNX7R9mIEvl5G7ZnjdjOM8ZqrRWidncT1Po6x+I3hzwvoevW83xL1Lxtod1YTW1p4a1CwnLqzLiMvJJ8ibDg5Q9uB2rzP4J+K9J8L+JNVj1u5ksdO1bSLrSnvI4jL9nMqACQoOWAI6DnmvPaKXVt9Vb5a/5j6JLo7/AJf5HQ+MtD0TQb6CLQvEsXia3ePc9xFZzWwjbJG3bIATxg5HHNe0/FzxtHN8DfDNwYWt/EXi2CAanI33p4LItHG5/wB9ire+2vnWtfxF4s1XxY2nnVLr7T9gtI7G2URpGsUKZ2oAoA4yeep7mk9Ycvmn91/+B8hrSXN5P9P69TqPgn4v0vwf4xnl1mWS202/0+506W5ijMhg82MqJNo5YA4yBzU1tJ4e+FvjTwxr2h+J4fF62d6tzPDBYz2pjVGU4zKoyWG7GOmOa86oq1JqSkt1/wAP+pNk04vZ/wCVj6A8WfEDSLiHXtQh+L3jDVYb2OU2Xh+BrmBo2cnbHM7sYzGoOCFzkdMV5b4V+IEPhjTDZyeE/DutsZDJ9p1W1kklGQPlysijAx6dzXI0VhKlGa5XsOXvbm94u8VR+KrqCePQtJ0IRJsMWkQvEj853MGdsmsGiiqhFQjyx2A7rwXbaPd31rHrt3NZacYstNbpuYNt4HQ9/Y1SuliW5lWB2kgDkRswwSueCR64rNt9Rt47eNWkwyqAflPp9Kf/AGnbf89f/HT/AIVYHTapaaFF4f02axvrifV5CftdvJHhI/Tacf1P4VF4WttHu9Yjj127mstOKsWmt03MGxwOh7+xrnv7Ttv+ev8A46f8KP7Ttv8Anr/46f8ACjrcOlg8RLEodYHaSATERswwSvOCR64rBrT1O8huLdVjfc27PQjsazKAO58F+PNF8EaO00Pha01jxQZWMeoasxmtraPA27Lf7rPnJ3PkDjArG8RfEDxH4r16PWtV1m8u9UiIMNyZSrQ4OQIwuAgB5AXAFc/RWCoU1N1LXk+r1+7svJGntJcvJfT+t+56jL8ao/F+lyWPj3QrfxPOsJS21uM/Z9RhbBClpFGJlBx8rg9+a0fhj/xQfwj8aeNn/d32oKPDmlN33SjdcOP92MAA+pNeO0VzzwdNwdOHuptXXSyd2ktlfZ2NY15KUZS1a2/TXyeqO1+Cf/JYfBP/AGGbT/0atetXet+Bfhz45+IHiaHxHdX+vXP9pWVv4fOnujRTzM6MzzZ2FFJYjHJGOAeK+ftE1q88O6xZarp032e/spkuIJtqtskUgqcMCDggcEYqPVNSuda1O71C8k868u5nnmk2hdzsxZjgAAZJPAGKjEYN4ireUrR5bO3XXbZ6emo6Nb2K0V3dNfK/9dju7TxZpUX7P+oeG2usa1L4iiv0tfLfmBbdkL7sbfvEDGc+1cx4C8T/APCF+NtC14wm4XTb2G6aEHBcI4YgH1IFYNFdcaMY8/8Aed39yX6GEpuUYxfRW/Fv9T6I8YfEbRrpPEGpw/GPxlqlvfJM1l4dt3ubdonkJKxzO7GMxrnBC5yBxivMPBfjzRfBGjtND4WtNY8UGVjHqGrMZra2jwNuy3+6z5ydz5A4wK4aiuWlgadODp3bTt5bdPdS/Hfqb1MRKpJSa1/z9bm34s8aa5461Q6jr2p3Gp3eNqvM3CL/AHUUcKvsoArEoorvjGNOKjBWSOeUnJ3k7sKKKKokKKKKACiiigAooooAKKKKACiiigAooooAKKKKACiiigAooooAKKKKACiiigAooooAKKKKACiiigAooooAKKKKACiiigAooooAKKKKACiiigAooooAKKKKACiiigAoorsfBPwp1/x1azX9rHBp+iW7bbnWtTmFvZwH0MjdTyPlUE8jis6lSFKPNN2RUYuTtFXZx1aeg+G9T8UXU9vpVlJezQQPcyrHj5IkGXck9AB3rT8c6P4b0O8trPw9rk3iEpGftd6bYwQGTPSIMdxUD+JgM9hXeeF/+Lf/AAA8Qa8f3eqeLbgaLZH+IWkeHuXHsx2ofpXNVxHLSU6a1k0ldNbvtvpv6I2hSvU5Jbbv0Su/67njtFeieCfhZp2teC7vxX4k8TR+F9EjvBp9vILJ7uW5uNm8qEUjChSCWJroPjb4T0Xw/D8M7a3ks4bS60WN7rVNPtv+PgGZx9oK4VnbZg4bDcYOKTxlNVVRWrbts7bX32fyFGjJwdTolf8AFL9Tya40m+tbG2vZrO4hsrksILiSJljl2nDbWIw2D1x0qpXtPxS0h7f4N+FLjTfHdx4q8LW+oXFlZ2c+kiy+zSBQ7nO9mb73fpk4rh5/h7/xaq18aWuofaV/tNtMvLLydptn2b4237juDDPYYIxzRSxUZx5pO3vW2ffS90rP8L9RyoyTSW9r9Pnaz8jjqK7zWvh7p3g2PwPca9qlx5eu2q6heWtpbjzbO2aQrGykth2ZQWwQuOnNX9e+CF62l3Gt+D9UtfG+gQr5ks2nArdWy+s9s3zp35GRxnNX9boqzbsndX6XTtvtvt36XJVGb0S10fnZq/8AXbqeaUUUV1mIUUUUAFFFFABRRRQAUUUUAFFFFABRRRQAUUUUAFFFFABRRRQAUUUUAFFFFABRRRQAUUUUAFFFFABRRRQAUUUUAFFFFABRRRQAUUUUAFFFFABRRRQAUUUUAFFFFABRRRQAUUUUAFFFFABRRRQAUUUUAFFFFABRRRQAUUUUAFFFFABRRRQAUUUUAFFFFABRRRQAUUUUAFFFFABRRRQAUUUUAFFFFABRRRQAUUUUAFFFFABRRRQAUVb/ALJvv+fO4/79N/hR/ZN9/wA+dx/36b/CgnmXcqUVb/sm+/587j/v03+FH9k33/Pncf8Afpv8KA5l3Kld34I+LFz4W0eTQNT0jT/E3heWYzyaXqEeCkhABkimXDxOQAMg446Vx/8AZN9/z53H/fpv8KP7Jvv+fO4/79N/hWdSlCtHlmroqNTkfNF6nS+KdP8ADOva9pcXgaHVEOoFY203UdrvBOz7VRJF++pyMEgH1rqf2itRt7LxNpngzTpBJpnhGxTTFZfuyXH3riT6mQkH/drzjT4dY0m+gvLJL6zvIHEkVxbh0kjYdGVhyCPUUy6s9TvbmW4uILue4mcySSyozO7E5LEnkknnJrn+rv2kG3dRvvvd9b+Suvmbe3jaW15W+7d/e0j1jwjDpnxA+Bv/AAif/CRaRoGt6Zrb6kqa1ci2iuIXhCHY5GNwK/d9Kf8AGS30vW2+GGg6R4i0nUDbaNHYTXwulS3il858mRj/AKtec/MAduCQK8XZWjZlZSrKcFSMEH0ptZfU7VfaKel27ebVi1W/d8lulr+V+Y+kNU+HEF18ENE8Kx+OfBH9q2es3F9LnxFb+X5bxqq4bPJyDxXIfAm80nVLXxf4D8Q6vZ6RpeuWqSRX93OscMV1BIGQ72IA3KXGe/Arx6ipjg5eznCU78zvts73v96Q3WV4uMbcv5dV87s9I+KnijSPHXxkvLia6ktfDEVxHYQTWqCUx2cIEatGuQDlV3AZ6tVq8+LmleFLK5034eaAuixzxNbz63qe251O4jYYYBsbIQw4KoPxry2itVg6fJCnK7jFWt0fr3+ehLry53OOjf4enYKKKK7jnCiiigAooooAKKKKACiiigAooooAKKKKACiiigAooooAKKKKACiiigAooooAKKKKACiiigAooooAKKKKACiiigAooooAKKKKACiiigAooooAKKKKACiiigAooooAKKKKACiiigAooooAKKKKACiiigAooooAKKKKACiiigAooooAKKKKACiiigAooooAKKKKACiiigAooooAKKKKACiiigAooooAKKKKACiiigAooooAKKKKAPU6KKK1PCCiiigAooooAKKKKAPN9W/5Cl5/12f/ANCNVKKKyPbj8KCiiigoKKKKACiiigAooooAKKKKACiiigAooooAKKKKACiiigAooooAKKKKACiiigAooooAKKKKACiiigAooooAKKKKACiiigAooooAKKKKACiiigAooooAKKKKACiiigAooooAKKKKACiiigAooooAKKKKACiiigAooooAKKKKACiiigAooooAKKKKACiiigAooooAKKKKACiiigAooooAKKKKACiiigAooooAKKKKACiiigAooooAKKKKACiiigD/2Q==;" vertex="1" parent="1">
          <mxGeometry x="260" y="210" width="520" height="209" as="geometry" />
        </mxCell>
        <mxCell id="OrkMJTo7WvPgTI57yorY-3" value="" style="shape=image;imageAspect=0;aspect=fixed;verticalLabelPosition=bottom;verticalAlign=top;image=data:image/jpeg,/9j/4AAQSkZJRgABAQEAkACQAAD/2wBDAAMCAgMCAgMDAwMEAwMEBQgFBQQEBQoHBwYIDAoMDAsKCwsNDhIQDQ4RDgsLEBYQERMUFRUVDA8XGBYUGBIUFRT/2wBDAQMEBAUEBQkFBQkUDQsNFBQUFBQUFBQUFBQUFBQUFBQUFBQUFBQUFBQUFBQUFBQUFBQUFBQUFBQUFBQUFBQUFBT/wAARCACsA/ADASIAAhEBAxEB/8QAHwAAAQUBAQEBAQEAAAAAAAAAAAECAwQFBgcICQoL/8QAtRAAAgEDAwIEAwUFBAQAAAF9AQIDAAQRBRIhMUEGE1FhByJxFDKBkaEII0KxwRVS0fAkM2JyggkKFhcYGRolJicoKSo0NTY3ODk6Q0RFRkdISUpTVFVWV1hZWmNkZWZnaGlqc3R1dnd4eXqDhIWGh4iJipKTlJWWl5iZmqKjpKWmp6ipqrKztLW2t7i5usLDxMXGx8jJytLT1NXW19jZ2uHi4+Tl5ufo6erx8vP09fb3+Pn6/8QAHwEAAwEBAQEBAQEBAQAAAAAAAAECAwQFBgcICQoL/8QAtREAAgECBAQDBAcFBAQAAQJ3AAECAxEEBSExBhJBUQdhcRMiMoEIFEKRobHBCSMzUvAVYnLRChYkNOEl8RcYGRomJygpKjU2Nzg5OkNERUZHSElKU1RVVldYWVpjZGVmZ2hpanN0dXZ3eHl6goOEhYaHiImKkpOUlZaXmJmaoqOkpaanqKmqsrO0tba3uLm6wsPExcbHyMnK0tPU1dbX2Nna4uPk5ebn6Onq8vP09fb3+Pn6/9oADAMBAAIRAxEAPwD5D0X/AJin/YOn/wDZa5iuxE2j6TdX0Bu7gu0clq4MWcZOCRz14rNm0fTJNIvbuyup5nttmVkQKPmbH+NAGBRW94Q8C6/4+1L7DoGlXGpzgZfyl+SMf3nc4VB7sQK7PwD8HV8Ua5420W4ne91LRNJnurVdHmSWOe5RkVU3bTvUlyPlxz0Nc1XEUqN+aWqV2utjWFOc7WW7t8zy6iut8a/CjxX8O7W0ufEGkSWNrdkrDcLLHNGzDqu6NmAb2Jzwa0PDfwJ8d+LdDi1fSvD01zYTBjC7SxRtOF6mNHYNJ/wEGj6zQUPaOa5e91b7w9lU5uTld+1jgqK2fD/g/W/FPiBND0rTLi81ZmZfsiJh1K/e3ZxtA7k4x3rT8a/CrxV8PILafX9IeytrlikVwksc0TMOq742Zd3tnPFW61KMlByV3sr6slU5tNpaI5OivRvCPwI8X+JbLStZOh3I8PXc6A3SyxrI0W8B3SNjvYAZO4KRxnpUutfBm8vvil4r8JeFmW9k0ieVbe3vLmNLi5RHC4TO0O+DnAxwDgVi8ZQU3DnV1dvXa1k79ty1RqOPPbTT53va33HmlFW9W0i+0LUJrHUrOewvYTtkt7mMxyIfQqRkVUrrTUldGTTTswooopiCiiigAooooAKKKKACiiigAooooAKKKKACiiigAooooAKKKKACiiigAooooAKKKKACiiigAooooAKKKKACiiigAooooAKKKKACiiigAooooAKKKKACiiigAooooAKKKKACiiigAooooAKKKKACiiigAooooAKKKKACiiigAooooAKKKKACiiigAooooAKKKKACiiigAooooAKKKKACiiigAooooAKKKKACiiigAooooAKKKKACiiigAooooAKKKKACiiigAooooAKKKKACiiigAooooAKKKKACiiigAooooA6fVdYk0vU7y3k0uxlPnSOJLi33OwZiQc554NLH5s/hvXL17aO1iuDAI1hXYh2tg7R/nnNWbGa31i3eHUomm+xQtcJIpwxRcZQ+o5rnNW1aXV7gO4EcSDbFCv3Y19BQB7bH488P/E/wLpfhJfEE/wAOLi0gSE2jKv8AY+oSBQDJK0ah0diMlpA6iqnwb0u78I33xbsHuIjd2fhS+jM9nMJIyd0fzI68EEHgj1rw+rmn6xf6St0tje3Fmt1C1vcC3laMTRHGY3wfmU4GQeOK8qWBShOnTdlLo+9977/fc644i0oSktYtfcuh6nosjS/ss+JY3YskPiW0eNSchWMLgkemRXrHiT7Dd3Xw1vbL4aaz4xuP7D04afqmmatJbwJIgwY8LEyoUcHcSw65OK+VI9Yv4tLl0xL65TTZpFmks1lYQvIBgOUzgsATgkZq/pfjfxHoenS6fpuv6pp9hLkyWtreSRRPnrlVYA/lWVbAynJzjL7V92t4pbpp9LlQrqMVFro10f2nLr9x7X4Z0tvHfxV+KWuX9hqlpc2kFxcXHhnw/qIM94WkCSQedGCHjByW2qc8cVe8ZWdlB+zHqxsvBeoeC4G1+2kW11K9e5eU+W6mRQ8aFRxt6YODzxXzvpesX+h3yXum31zp95HnZcWsrRSLnrhlIIq7qnjPxBrkNxFqOu6lqEVxIss0d1eSSLK6ghWYMTkgEgE9M1Msvnzw5Ze7Hl7/AGbaWvZ37u7RpHFRvKTWr5u32lbt+VrnvvjLwz4h174gfCHVdEsL670hdG0kQXtrGzQQ+WR5oLjhNpyWyRjvXHfEXwfJ4w/aA8dx/wBsafoNtaajPcT6hqVx5SRKJAPlxlmbJGFUEmvNLHxt4i0vS/7Ms9e1S003f5n2OC8kSHdnO7YGxnPOcVm6hqF3q19Pe31zNe3k7mSW4uJDJJIx6szE5J9zWtHB1ac78y0UktNdWnqZSrQlDltvy3/7dTX43PXvip8VNH1nwPaeErW91Dxnd2kyuvijWYkjlRQDmKAYMvlnP/LRyeOgrxmiiu7D4eGHjyw66/P8vuSRhUqSqtN9NAooorpMgooooAKKKKACiiigAooooAKKKKACiiigAooooAKKKKACiiigAooooAKKKKACiiigAooooAKKKKACiiigAooooAKKKKACiiigAooooAKKKKACiiigAooooAKKKKACiiigAooooAKKKKACiiigAooooAKKKKACiiigAooooAKKKKACiiigAooooAKKKKACiiigAooooAKKKKACiiigAooooAKKKKACiiigAooooAKKKKACiiigAooooAKKKKACiiigAooooAKKKKACiiigAooooAKKKKACiiigAooooAKKKKAOn0X/AJin/YOn/wDZa5iun0X/AJin/YOn/wDZa5imxIKKKKQwooooAKKKKACirWm6XeazfQ2Wn2k19eTNtjt7eMySOfQKBk11Ph34R+KPEHjI+HU0XUvtVvdRW2oNb2j3H2EOwG6QJwABk8kfdPNZyqQp/E0upSi2rpHGUV3HxG+D/iT4c6vq8V5o+qto9jdvax6xPp0sNvcAMVVwxBXDYyMMevU1peHfBKWvw18RanrngbxRc3M0EU2ka1b2ki2MC5Jd5HIClSMYPI+nWsPrVJ01Vi7p228/X72a+xmqns5KzPNaK6bwD8P9a+ImuW1hpWnX93C08UV1c2dm9wtqjtt8x9o4AGTyR9081q/ED4O+Ifh5r2pwahpWrJodnetarrk2myxQTKHKrIpPy/MBkAMc+tW8RSjUVJyXM+n9epCpzcHNLRf1+hwlFepeJvhP4btPhxe+LvDfjKbxDBZ30VjLbzaO1mQzqzAhjK2eF9O9eaWVjc6ldRWtpby3VzK22OGFC7ufQKOSaKVenWTcOmjumvPrbuE6cqdubr8/Lp5ogorU17wvrPhW4jg1rSL7SJ5F3JHf2zwMw9QGAyKk8QeEda8KraNq2mXNhHeQrcW0k0ZCTRsoYMjdGGCOh4rRVIO1mtdvMnlkr3Wxj0V1XgfwP/wmdp4ln+2/Y/7F0qXU9vlb/O2Mo2feG3O7rz06Utr4G+0/DO98Xfbtv2bU49O+x+TndvjL79+7jGMYx+Nbcr/X8bfmRdPT5fhf8jlKK9i0f4P+B9a8N6xrcHxFuvsWkLCbwnw8+U81tqYHn/Nz6Vn+Cfg3p/xE1vxHZ6J4maa1022SW0uptPMZvJHIVYyhk/d5c7c5bscU+SV7E86tf+v61PLaK9B/4VLJF8IpfG8+o+TItyIY9N+z5LRlzH5hfdx86uMbT9w81keN/A3/AAhtj4ZuPtv2z+2tLj1Lb5WzydzMuzO47sbevHXpScXHf+rq/wCRSabt/XY5Wiuz+F/gG1+IGpatDfau2iWWm6bNqU10tqbk7IyoICb17N69qh8XaB4S0mxhl8P+LbjxBdNJte3m0lrQImD824yNnnAxjvQ4tJN/10BNN2RyVFa/hHR4vEHirRtLnd44b29htnePG5VdwpIz3waqazZx6frF9axMzRQTyRIz43FVYgE478Unok+9/wALf5offy/r9CnRW14M8Pr4o8Uafpskv2e2lk3XFxkDyYFBeWTn+6is34Vs6P4Ls9Ut/Et+Jz/Z1jbebZs13BHI7tMiRLIMnadrMxHH3SM0+V2v/Wgr629PxOMorU/sOS31axtLmSBhcmM7rW5jmwrHHJRmCt/snkdxXYaj4B0m0TxRMJZoY9K1E6fax3N9FG94wdg2CUGNqgMev3lHcUcrtf1/C3+aFzK9v61v/ked0V20/gmGzsPEi3tpd2GpaXZQXiRtdxTKRJLEoDbU/uy565HGazPCvhmPxBpXiOcpcS3On2aXEEVvj5mM8cZ3DaSQA5PGOnWjlew7/wBf16nOUV3F34Cuv+EC0C8ttHvZNXvdRu7eQJFIzMiLB5YCe5kftz+FcpcaLqFrqc2nTWNxHqELsktq0TeYjDqCuMgik04uzBNNX/re36FKiu7i+HMdxq2giOS8/s28txc35NuxmsVVmEqnjDNhCy9C25RjJ55jWNBu9JaO4n06+tNOuZH+yyXkJjMqqcHBIwSMjOM4JpuLW4J3Muiuvm8N6dZ+GbfVbi0vi2oSeXp6wXcciylSPNDkR/KVyo2nklgcYwTcm8Ew2llp050LXry4uIJ57i0hO026IzKGLeS39xmIKjAA55yBxaFzJnCUV1Phvw7Z6j4evNSuPNeWDU7GzSNXCoVmExctxkn90AMEdTXSXHgPSluta0mOKV9autVkttIt4pFZ0ghd1ckO6By52og5JKNgZxluDX9en+a/EOZa36f8H/I8yoq/rlpaWOpS29nJdyRxgK/262FvKsgGHUoHfGGyOufUCrOl+Eda1rSdQ1Sx0y5uNN09PMurxYz5UIyB8z9M8jjrWUpRirydkWk27JamPRW34J8K3XjjxdpGgWYP2jULlLdWxnaCeWPsBkn6V1fxG0GLxb8VNb0vwB4euLvT7Fvs9va6VbPO7xxYRpiFBJ3Nk7v9oVjKtGNRU32b9Erb+vT0ZcablFy7WX33/wAjzmivTPij8A/E/wAN9YvoV0rVtU0e0gimfWBpcsduN0aswLfMo2lip+bqO3Sm/C3wSl9p+rarrngbxR4i0eSwmWxu9GtJDFFcjo7uBt2rg55OO4NZfXKLo+2g7ry/4Ni/YT51Tas2ea0VpaD4a1fxVemz0XSr3WLxUMht7C3eeQKCAW2oCcZI59xXdfFH4B+J/hvrF9Culatqmj2kEUz6wNLljtxujVmBb5lG0sVPzdR26VrLEUqc1TlJKT/r9SI05zTlFXSPM6K9Vs/hL4Y1vwDr2v6L42n1DUNFsYry602XRmhUF2VSglMpzgk8hecdK8sjjaWRURS7sdqqoyST0AFOnXhWclDdb3TX5hKnKKUnsxtFbGueDfEHheGGXWdD1LSYp/8AVPfWkkKyd/lLAZ/CjUPCOtaVomn6xd6Zcw6Tfgta3rRnyZcMVIDDjOVPHXir9pBpNSWpPLK9rGPRRRWhIUUUUAFFFFABRRRQAUUUUAFFFFABRRRQAUUUUAFFFFABRRRQAUUUUAFFFFABRRRQAUUUUAFFFFABRRRQAUUUUAFFFFABRRRQAUUUUAFFFFABRRRQAUUUUAFFFFABRRRQAUUUUAFFFFABRRRQAUUUUAFFFFABRRRQAUUUUAFFFFABRRRQAUUUUAFFFFAHT6L/AMxT/sHT/wDstcxXT6L/AMxT/sHT/wDstcxTYkFFFFIYUUUUAFFFFAH0f4f1q18ReCbHRvhZreneD/EDWqRajp10gtb/AFKXHzGK+ZiGDNkiMGPFeX+BZfEHgv4taXplzcX2k339sW0N/AJmRmImXKyYPzdT1z1964CpjeXDXQuTPIbgMGExc7wR0OeuRgV59PCKm5q91Lutb+vVeuvmbzqucFHZr7vu7+Z6L8fPEmsXXxU8aadcapfTWEesXIS0luHaJQJW24QnAx24roPgvreo33w/+Kdnc391cWdv4aPk28szNHH++jHyqTgcelcX4v8AjT4x8eaOul69qyahaB1k+ayt0lZlGATKsYc9e7c9619J/aS+IWhabFYWOs2sFpHCtuIxpFk2Y1AAViYSW6DqTmuR4Wv9UjQUY3VurtpbX4d3/TOp14SxHtru177ed7b7f1YwfhPreoaR8QPDyWV/c2Udxqdqk628zRiRfNXhsHkcnr6mtv4+eJNYuvip400641S+msI9YuQlpLcO0SgSttwhOBjtxXG+JPGGreLNffWtSuVk1NthM1vDHb4KgBSFjVVBGByBW94v+NPjHx5o66Xr2rJqFoHWT5rK3SVmUYBMqxhz17tz3rqlRnKvCvyq9rPXbVarTW1vIwjUjGE6d3Z2a+V/PrfzOm0D5v2XfFmOdviKzJ9h5T1o/styWdnqnji/uZb23ks/DdxLHcaWiteQjfGHeEMQN4UnnIxk815z4J+JviX4ctdnw/qZskuwq3ELwxzxS7TlS0cispIycHGeac3xR8Uf8Jp/wlkWqta+IOB9rtIY4BgKFxsRQmNoAI24PfNY1cLVmq1NWtPW99dkrNW203v8ioVYR9m3vD/5Jv8AXsemePPHGg658F7nTNNbxtr6R6tFPDq/iS2jaG0fYweJZlkbBZSDs9s1ofDf/hIfAXhm2k8da9p2m+BbyNZo/DuuRDUJbyMjKtBag7o854fcgGQea8m8a/FbxX8Q4LaDX9Xe8trdi8VvHFHBErHq2yNVXd74zzXLTTyXEm+WRpXwBudiTgDAHPoABUwwMnRdKVld3f2u2zaST87f5lSxC51JX0Vu3W/d6a9z3T4Uat4dPif4qahpmiu3hn+wbqWHSbqZ1Yw+ZHiNnViw47hiR61FrmuaLrn7OWqSaL4bh8NQp4it1khhu5rgSN5DncTISRxxgV5DofijU/DcOpxadc/Z01K1ayuh5at5kLEFl+YHGSByMH3oi8UanD4Zn8PJc40ia5W8kt/LXmVVKht2N3QkYzj2r29FTVNdEl56Svq99vxPP1dRzfVt/fG23r+B6B8Of+SI/Ff/AHNM/wDSk1P8EdQn0jwn8RtQtm2XNnp9rcxN6Ol1Gyn8wK8403xRqmk6Hq2kWlz5WnaqIheQ+Wp83y23JyRlcHngjPejSfFGp6Fp+q2Njc+Ra6pCLe8j8tW82MMGAyQSOQDkYNXz2k5Le1vna35k8t1Z/wAyfy0/yPafEXjv/hYnwi8eaomnR6TbR3mmW8FjFIXWJQ8ztg4Gcu7t0/irlfjd/wAgT4Zf9ivb/wDoySuAtPFGp2Ph6/0OC52aXfyxzXFv5ane8edh3EbhjJ6Ee9ddpfx/8daNpNjplrq9uLKyhWC3jl0y1lKRjou54iT+JobjK/qn9ys/xBKUbejX4q34Ig+EfifWPCd9r97pGhxa7u0iaG6hnjMkcUBZC0jKOqggZB455rq/EuszfET4FT+Itbs7JNY03Wo7K2v7WzjtmmieJmaIiNQrbSAenFeex/EbxHB4vk8UQam1rrkhy11bRpED8oXGxVCYIAyMYNP8Y/E3xN4+jtotd1R7yC2JMMCxRwxIT1YJGqrn3xmk5Xhyvy+WtxqNpX/rawz4Z/8AJRvCv/YVtf8A0atP1zxNe2mua9DHHY7LiWaBy+nW7ttLn7rFCVb/AGlII9az9P8AFWoaXfW15afZYbm3kWWKRbKDKOpBU/c7ECpLfxlqVvqi6iosWu1l84PJp1u435zkq0ZB59RSbuortf8AG3+Q11fp+F/8zsvgTrg0nxO0FqhW+vLW8SS4IGY4ltpGCoeoLMBk8cKAPvGqOh6ppjeAdQsFi02PU9S1G3RbRhdM5jjRzu+Qnq8igDPO08dK57wz4sl8O+JjrRt47iZkuFMSgRJmWJ0JAUYAG/OAAOMcU3wt4wvPCt4kkUdve2wbc1neRiSJsjBI7o2ON6FWHY0009H2/W4mrO6NLWLGLR/FumaYkWledazRia40qWeRJGZgxVjIxG5M7TtAGQevWu4vtSsbP4ia3IbKXXZ7fUrqNmvoJP7Ns1NwzZZIgzynPOSAAwGUevKrjUrVfED39jY/YrMXPnQ2ZmMnlruyE3kZOOmTzWhq/ji+1LxFfavDHbWc1xdSXS7LaItGWctgNsySM9aFP4X6/jb/AIInHV/L8LnXefol9oPju80q71We4uLCN7pNTCSEOb2AlhOCDLk5OWjQ+1ZHg1YLLwB41vryN2gmS00+MI+wtI0wlwCQeiwMTx6etZreP9SurPXor7y72fWIkjmupEUS5WVJNxYLlidgHJ71j3WsT3Gl2unDEVnbs0gjX+ORvvSN6nAAHoAB6kq6S07f1+BVm9+9/wAF+qNm30XSr7wXrWrRRXkN3Y3NrDGr3CPGRKJSxI8sHI8sY57muftUtnZvtM00I/h8qISZ+uWXFaVj4kNj4S1fQxbhxqFzbXBn342eSJRjGOc+b1zxt96p6Te22n3QnubFdQ2cpDK5WItn+MDlh7Ar9exTtfy/4AansXh2Gwh+JvwutxdXDXMFlaZjNuoxvkklTcd/BKSIeAeorye+TRrexilsry+n1QTsZIbiyjWAR/wkN5jEnPUFcYPtzd0PxxeaZ48s/FN4v9o3kFyty6MwjDkdFGBhR0AAGAAABXNs25ifU5pyle77tv73cIx5dPJL7ro9L0rXhpvh3w47afZXM1/cXMGZbaMrEd8A8xF24D7cgMMHoecDHYatb29rq19MIreO4uz4olaZY1EkiBHRMvjJGQ4AzjrXlF94ss9RsdGspdEggtdNjk/d208q/aJXIJdy5YgEKoKqV74Izxas/iXfxawlxdWlpe6X5C2jaNJH/ovkLnairyVILMwfO4MS2SSc3KSat5Nfev8AgERi07+j+7/h/wCrjfh7LDDNrck/lZh0ueeDzgpCzqB5bANxuBPHfmu103R30bWfAmt65eafdWesPvvBfWtuohIwwDFuSDG8bbiABuHNeY6bqGnWKxyy6Yb66Rs7bi4It2HoUUBvycflxW5N8SZ9StXh1nRtM10m5e5SS7NxGYiyRoUQQyxqECxIAuOAuBgUubZ31Vvzf53/AAHy7ro7/kv8vxG/DnVNA0rx1YX/AI00+fVdGJeSeEAszsVO1yNy7wHwSNwyARXo/wAXNP8AFfi7w7Jq+keJNP8AE/gOxAZbPQ1FnFpyk/KJbLhozk/eO7/eryHxL4gHiO8t5l02z0qOC3S3S3sfM2bVzgkyO7EnPJzWZFPJBv8ALkaPepRtrEblPUH1FebWw3PVVaL1XdXVr726PzT9bnZTq8sXFrffv9/byf4HrvwQH/CF+FvGfxEl+SbTLT+zNKY9724BXcvuke5voa8q03WL/Rbo3On31zYXBUqZraZo3IPJGVIOOB+VdLrXxC/tD4a6B4OtNP8AsNrp9zNe3U/nbze3D4CuV2jbtQbQMn61x1FGnL2lSpUXxOy/wrb73d/MUpLkjCPTV+r/AMkkvU9v/am8UayvxU1TT11a+GnSWVlm1Fy/lMDaxE/LnBycn61H+y3reo/8J9Lpv2+6/s7+ydQb7J5zeVn7O5zszjOeelcdqHxu8aat4V/4Ry+1hbzSfIW28uezgeXy1xtXzinmcYH8VWfCn7QHjrwPpNtpui6tb2VpbKyRD+zLSRwrEkgu8RY5yepPpXnvB1lgnhVGN7ct7vta/wAO/l+J0qvD28Kzb0af3W03623/AAOI0vWL/RLg3GnXtxYTlShltZWjbaeoypBxwPyr2P8Aam8UayvxU1TT11a+GnSWVlm1Fy/lMDaxE/LnBycn615j408e638QdQhvdduYbm5hi8lGhtIbcBck42xIoPJPJGa2dQ+N3jTVvCv/AAjl9rC3mk+Qtt5c9nA8vlrjavnFPM4wP4q66lGpOpTrOMbq6av3tqnbW1uy33MoVIQUoJuz8v0v+p0fwa+b4Z/F4Dk/2NAcewuFzSfsqw283xu0Q3CFzFDdSxBVDP5i28jIVB4LAjI9wK4Hwb46134f6o2o6BqD6fdvGYXZUV1kQ4yrI4KsOBwQelXNe+KHibxJ4jsdevNSCavYqq211ZW8Vo0e1iwIESqM5J5xmoq4arN1oxtaorXvqny22tr96FCpCMYX3i7+T1X+XZnr2ofEPw7qXw38c6bZ3XxC8Vm7hieSTXraKW2sJhKCszOsrGMk5XOOc4rH+D1r4w8K6Cus3niKw8MeBLwt5kWvAXNtqCgkOsdny0pyMZUL0+9XDeLvjV418d6UdN1rXZLqwZxJJBHDFAsrDoz+Wq7z/vZrjJJ5JljEkjOI12IGYnauScD0GSfzrKngZKlKnKy5nr9rpbqkr/L7zWeITlGSvp8tfvf9djq/ipqvhjWvGl5deENPfTNFZVCwspQNIB87qhdtik5IXccCuQoor1qdNUoKCd7d9zjnLnk5NbhRRRWhAUUUUAFFFFABRRRQAUUUUAFFFFABRRRQAUUUUAFFFFABRRRQAUUUUAFFFFABRRRQAUUUUAFFFFABRRRQAUUUUAFFFFABRRRQAUUUUAFFFFABRRRQAUUUUAFFFFABRRRQAUUUUAFFFFABRRRQAUUUUAFFFFABRRRQAUUUUAFFFFABRRRQAUUUUAdPov8AzFP+wdP/AOy1zFdPov8AzFP+wdP/AOy1zFNiQUUUUhhRRRQAUUUUAFFL14HJqS6tZ7G4eC5hkt50OGjlUqy/UHpQBFRRRQAUVe0PSZtf1rT9Mt2RLi9uI7aNpCQoZ2CgkgE4yfSp/FXhy58H+JtV0O8eKW7026ktJXgJMbOjFSVJAJGR3AqOePNyX13K5XZy6L+v0MqiiirJCiiuh8ZeCb7wPcaZDfy28z6hp8GpRG3ZmAjlBKhsqPmGOQMj3NHmHkc9RV7Q9Jm1/WtP0y3ZEuL24jto2lJChnYKCSATjJ9Kl8T+H7jwn4j1TRbt4pLrT7mS1leEkozIxUlSQDjI7gUdv6/rcDMoroY/BN9J4Cl8XCW3/s2PUV0wxbm87zTGZAcbcbcDrnOe1c9R1sHS4UUUUAFFFFABRRRQAUUV0/h/TfC114S8QXOr6vdWfiCAR/2XZQwF47kk/PvbHy4GOpH49KOjYdUjmKKKKACiit7wL4NvfiB4qsdA0+W3gvLzf5cl0zLGNqM5yVBPRT264qZSjTi5ydktRNpK7MGiuh1nwTfaH4U0LxBPNbvZ6w9wlvHGzGRTC4R94KgDJPGCfwrpdF+BmsatpumXM+r6Fo9xqkYlsNP1O+8q5ukY4RlXaQAx6biM1jLEUox5pS0u181v91gbS3POaKt6rpd1oepXWn30DW15aytDNC/VHU4I/MVUrdNSV1sMKKKuaNpcuuaxY6bAyJPeTx28bSEhQzsFBOAeMn0obtqxN2V2U6K0vEmhXHhfxBqWj3TxyXOn3MlrK8JJQsjFSVJAOMjuBWbSjJSSlHZlbaBRRRVCCit6PwbeyeB5fFQlg/s+PUF00x7m83zDGZAcYxtwOuc57Vg1MZRldJ7B5hRRXqdh8A5tS0u91G38ceEJLKyWNrqYXs+Id5wm79zxk8VlVrU6KTqO1xNpbnllFaXiHR10DWJ7FNRstVWLbi70+RngfKg/KzKpOM4PHUGs2tYyUkpLqMKKKKoAoorvfDvwZ1rxMvhE2t3p8f8Awk7XS2fnSOPLNvnf5mEOM44xu98VlUqwormqOy/4Df5JsTaW5wVFOdTG7KeqnFNrUp6aMKKKKBBRRRQAUVe0PSZtf1rT9Mt2RLi9uI7aNpSQoZ2CgkgE4yfSpfE/h+48J+I9U0W7eKS60+5ktZXhJKMyMVJUkA4yO4FHb+v63AzKKKKACiiuhj8E30ngKXxcJbf+zY9RXTDFubzvNMZkBxtxtwOuc57UdLh1sc9RRRQAUV3vh34M614mXwibW70+P/hJ2uls/OkceWbfO/zMIcZxxjd74rkNJ0mbWNas9LhaNbi6uEtkaQkIGZgoJIBOMn0rGNanJtReq3+9r80/uFzKzf8AXX/JlGitLxJoVx4X8Qalo908clzp9zJayvCSULIxUlSQDjI7gVm1pGSklKOzK20CiiiqEFFb0fg29k8Dy+KhLB/Z8eoLppj3N5vmGMyA4xjbgdc5z2rBqYyjK6T2DzCiu71Twjp2g/CTSNavFkOu61eyGzXeQqWkQ2sxXuWc4GewrC8XeDb3wXcabFfS28rahYQ6jF9nZiBHKCVDZA+bjnGR7msYV4Tdk+rXrbf7hJ3/AK87GDRVzRtLl1zWLHTYGRJ7yeO3jaQkKGdgoJwDxk+lTeJNCuPC/iDUtHunjkudPuZLWV4SShZGKkqSAcZHcCtuaPNyX1GZtFFdX4I8Ajxs0iL4i0TRZlkSKOHVbiSN5mbpsCxtnnjt1FKc40480thNqOrOUorV8VeG7nwf4k1LRLx4pbqwnaCV4CShZTglSQDj6gVlU4yU4qUdmMKKKKoAoore8L+Db3xdb63LZy28a6TYSajP57MC0aEAhcA5b5h1wPeolKMFzSdkBg0UUVYBRRRQAUUUUAFFFb0fg29k8Dy+KhLB/Z8eoLppj3N5vmGMyA4xjbgdc5z2qZSjDWTDyMGiiiqAKK6fXPh9qPh/WtE0u4mtXuNXtra6gaJ2KKs/3AxKggjvgH2zWhF8LZU8Ta3oeoeJNB0W60mbyJJNQuJEjmbJB8siMk4x3A6iuf6xTte/9Xt+ZPMrX/rXY4iivQ/HnwauPh7DeDUPFHhy4v7UIX020upWuTv2kYVolHRg3XpVhvgdPa2Om3GoeMfCukvqFnFfRW19eTJKIpFypIEJH5E9KzWMoOKmpaPbcOZHmlFXtc0tdF1a5slvrXUlhbaLqxcvDJxnKkgEj8BVGuuMlJJooKK9G0n4G6xqVjps1xq+haPd6nGs1jpupX/lXNwjfcZV2kDd23EZrC8N/DjWPEnj1PB6iHT9ZaWWFlvWKpG8aszBioY9EPQHt9a5/rNF81pL3bt+i3+4nmVrnLUV0Os+Cb7Q/CmheIJ5rd7PWHuEt442YyKYXCPvBUAZJ4wT+FYl1Zz2MgjuIZLeQqrhJUKnaRkHB7EEEfWtozjPWL7/AIaMohoooqwCiiigAooooAKKKKACiiigAooooAKKKKACiiigAooooA6fRf8AmKf9g6f/ANlrmK6fRf8AmKf9g6f/ANlrmKbEgooopDCiiigAooooA+kvDWkxaZ4LsdS+EGnaX4g8SJarJqV3dP8AaNXs5dvz+RayKFVQcgOgdjWB8LfFWv6T4T+MGvTXU48RwwWUzXN4m+VZvtigswcH5hnuOD9K8Tsr65027iurS4ltbqFt8c0DlHRvUMOQfpXSw/E7W10/xXbXMkeoSeJkhS/u7oM0x8uQSKysGAySBkkHI/OvGngZe8tJXa1e9lJNq/VWvZaHdCvH3b6W+719f60PoD4w6xPrfhP4uafdJbmz0qfRb2yjjt0TyZrgAzuCoBy5Y5z61qz6/pPw1sfBWl23xA03wjpZ0ayvL3Q5tBlu/t5lXfK80ixMG35IxnjHavnrXPjHrWv2viuC4tbBE8SCyF2Yo3BT7KAI/Ly5xnHzZzntitHRPj9rWk6XpVpc6L4e1y40mMRadqOraf511aopyiq+4AhTyu4HFef/AGbVVJQtomnbT+SKe6a+JPp5m7xUXPmv0avr/NfpZ7G54X+IT+EPjzcxfD3VpLHwxrGtwRhIItiy25mGE2uu5QA7ADAOKZ+0R8WvF2ueOPF/he/1y4udAttXnSKxZU2IscrBBkDPH1ryy78SalfeIpNenu3k1eS5+2NdHG4zbt27068+ldZ4++L8/wARLSVb/wAMeG7PUp5hPPq2n2TxXcz85LN5hX5icnCjJr0PqajWpVXBSaVm3a99LO9le1t9zL6xzRqRUrczuu32rq3S90e4+EdQ1HwEvhDw7qvjrw94QZ4bZ5fDVpokt014kpB/0qQIwMkisAfmAGRjFeC/GvRbPw78W/Fum6fAttZW+pTJDCgwsa7iQoHYDPFbsP7RGurbaa1xovh3UNX06KOC31y704PfKkfCDfuwSBwG27h1BzzXC+MvFV3448Vapr9/HDFeajO1xLHbqVjVmPIUEkgfUmowmFrUsQ6s1a6d7W1d01sk++7bCpWhKj7Nf3fwTv5b22sY1fT/AIo+KWveD/GXw00nS5beHTrzQ9JW9he2jf7WrjaUkLKSV28AA8ZJ6mvmCur174j6n4i1zQNVuYLVLjRbW1tLdYkYIyQHKFwWJJPfBHtivfi1ontdN+ln/meZJPW3Z/fdf5Ho9h4k1T4X/tG6ronhi9fSNLu/EMdrNbQqu1ofPwE5BwAHYDHrWZ8fvit4s1zxp4r8NX+tT3Oh22rzrDZMq7EEcrBBkDPA968+8QeNNR8Q+NLvxRJ5Vrqlxd/bc2ykJHJu3AqGJOAfUmt3x38WZ/iBayi98NeHbLUJphPPqun2bxXUz85LNvK/MTk4UZNYxT5IJ7r/AIH5WZs2uebXX/g/ndHq9p8dPHa/s93WtDxJdDVIvEcdilztTcITbM2z7uMZANc98EfFmpahqfxP8Q38i6lqjeGrm5eS6jV1kkDxkFlxgjgcYwcVwfgn4qX/AIL0e90g6VpGv6RdzLcvY6zbGaJZVBUSLtZSGwcdeldd8H/HVtpepfEXWHOl6JPdaDcG0sgFS3aUyRkQxxyE7gcEbOcjPWtHvKS/lf8A6Tb8zNbRj2a/9Kv+Rb1/xTqPxN/Z/wBQ1fxJJHqGraPrcFvaXxhRJRFJGxaLKgZXIBxXGeHYfhk2jW51278WR6tg+eunWtq8AOTjaXkDHjHUdc0zxl8WtS8YeH7XQl0zSNB0eCc3RstFtTBHLNjb5j5ZiWxx1x7Vw9T1k+9vyS/MfRLt/mz2b9nCw0s654u1a4uYLE6Ro8tzZX99am5W0cyIomMSg7mUMeADya0fiz4w8P8Aif4b+Te+NrXxr4tt79HtL2LSJrSVLYqRJGztGoZc7SATkV5R4J8can4A1htR0wwu0kL289vdRCWC4hb70ciH7ynA/KtXxh8VtQ8XaLDo0el6R4f0eOf7S1jotp5Eck2NodyWZmIGQMnApz95JLy/O/5f5BHRt+v5W/r7z2DW/HGqeA/EXwz8IaN9ng8O3GnaZcXNibaN1u5ZmBkkclSSxPQg5BGRimNz8SP2gwOv9lagf/I6Vw/g345amk3hbS9RsNDuRps0Ntb63fWYa8tLcSD5VlLbQFBOCRleoI61D4v+JF14T+Oni3X/AA7dWl7Bc3tzGdwW4tbu3djuRh0dGGOh9Kc/ek/Pn/G1vu/4YI6R9OT8L3+8k0fj9mPxGT0PiS1A/wC/D10Xwv8AH/iHxD8KfiJoeo6pNd6Tpvh5RaWrhdsOJUUYwM9OOa868afFbUvGej2ujjTtK0HRbeY3K6dotr5ELTEY8xssxZsccngV0Hh39oC48M6PPp1n4I8IeTc2q2l08llOXuoxj/WETAEkgE8Dmk/eU/Nf+22Be7yW6P8A9uuL+zxdRaj4k1bwfduFs/FWnS6cN33VuAN8D/UOuB/vVNrcEvw/+AtnpUyGDVfFGqSXNyhGGW2tSY0U/WUsf+A1wl94zmm8YQeItP07T9CubeaKeG10yJo4I3jwQQrMx5K5PPc1d+JnxN1X4q+II9W1WCztJI4RBHb2EbJCihmY4DMxyWZieepol7yX3P0Tuvx/AcdG/vXq1Z/h+J6lofhvxxLounvb/Brw3f27W8ZjupbNy8ylRh2P2gZJHJ4HWvMk8Tav8PPidNq66RZaTq9lPIG01Y2FvCzIUKBQ+cAMf4q4yiuCnheVy52mndbPr6yf5GajZWZuap4vvdX8M6JoU6Qiz0lp3gZFIdjMwZtxzg8jjAH413Px08//AISTwf8AZvM8/wD4RzTfJ8rO7dsONuOc59O9eVV6Novxy1jSdN0u2n0jQtYuNLQRWGoanY+bc2qKcoqtuAIU9NwOKKtKUZQnSjezem2//BBp3uuz/Fpm18J1v7HXPHeu6xBLP4l0bR57uI6tGZJYrnci+Y6yDJZQT96pNd8SX/xJ+B+o614idL/WNL1iGC21BokSXypI2LRkqBlcgHmuE0D4la74e8V3niGO4ju7++Ei3q3kYkiulkOXSROhUntx04qz4v8AihqHi3R7fR107S9C0eGY3P2DR7byYnlIx5j5ZizY45NcssLUlVU+VfZ17W3S8n+uoJWnfz/S1vv1PYPE3xK1zwn4r+HOl6bLBDYXWiaWLyFreN/tSsNpVywJK7eAM8ZJ6muWs/EGpfDX9oLVNH8N3j6Vpt1r8dtNbwqu1ovPwE5HAAdhx6157rnxB1HxBrGhalcQ2qT6Pa21pbrEjBWSD7hfLEknvgj2xVPXvF9/r/jC68SyeXbalcXX2z/R1IRJN24FQSTgH1JpUsDy6SirNNPzd01fvbX0I5PccfJfekd58dPid4o1rxh4p8O3usTXGi2+qzpFZsq7VCSsEGQM8D3r1GfXNM+Htr4S02Dxxp/hjTP7KtLq80aXRJLkXpkUNI8rrGwbfkjrxjtXhvjb4pTeO7WQXnh3QLO/mmE82p2No8VzM3OSzbyvzE5OF61e0f43avpmm6bbXGkaHrFxpkYisdQ1Ox825tkU5RVbcAQp6bgcVjLBTlQp01BLl3Strpa+qa+9XKnHmd15na/D3UtJ0/xl8WdQ8NLDPpEeiXk9iskJ8vZ5sbICjj7o/usOgway/EHiW/8AiN8CbvV/EEkd/q2l63Fb2995KJKIXiYtGSoGVyAa4LS/iNq+m3fiW7Yw3t14gtJrS9muVJbbKwZmXaRhsj3HtVW28ZXtr4KvfDCRW5sLq8jvXkZW80OilQAc4xg+mfetvqclJTtquSz66b6+a+8q3vOXm/yt+Z7Pa/GrxsvwFudYHiG5/tOPxDHZJcbU3CE2zNs+7jGQDXjdvrFp4m8WPqXjC81CaG6ZpLq5sY42uGbbwQGKr1xn2rQ8G/E298H6Te6UdL0rXNKupluHstXtzLGsqggOu1lIbBx16VzWsagNW1S6vFtLawE8hkFtZoUhiz/CgJJAH1Nb0MKqNSpywSvs1bstPv8AkKMbR5dv+HZteLo/ByRW3/CLT65NJubz/wC14YYwBxjb5btk9c5rqvh3/wAkZ+Kv/XPTf/Sk15fW9o3jK90Pwz4g0OCK3e01oQLcPIrGRfKcuuwggDJPOQePStqtGUqXs4u7vF6+Uk3+CK7eTX5nXfAXVIG8VXfhm/kCaZ4ntJNLlLdElYZhf6hwAP8AerQ8VWU/w2+DNn4euENvrHiDUpbu9j/iW3t2MUaH2MgZh9K828M27XniPS4VvY9NaS6jUXk0gjSD5h+8LE4AXrn2rsvj944Tx78UNWvredbiwt2FnayIQVaNONwI4IZtzf8AAq56tFyxUbfC9X/27t97a/8AASYr3323+e35fkel+KviXr3g/wAUfDvTtKkhgs7rQ9LF1E1uj/alYbSjllJK44AB4yT1NQ+FfDWjaH8ZvidKj2ulwaHbXU9jcT2xuIrFzIoEgiAO7YGOBg4rN8bfGQeG7zwkdKtPD2vtZ6DY+XcXdutzJZXCoQwVlYbWBAO1s4POATXl2g/EbXNA8VXniCOeO6vr7zVvUu4xJFdLIcyJIh4Kk9vyrz6WEqTpy5Y8t0163fXTtda9+xnGL5F6R/Dc9G+KXizQfEnw98m88ZW3jHxTBfI9reR6VLayrblSJI2Zo1DLnaRk5riNB+LWs+Hf+EV+zQ2bf8I29y9n5qOd5nzv8zDDOM8Yx+NReLPidf8AirR4tIj03StC0lJvtLWWj2vkxyS4wHfJZmIBIHOK46vTw+EjGk4VI6Xbtp1VuiSWl9u5ryrlSYrMWYk9Sc0lFFekUfQ/jb4k638I7zwb4e8MJbwaMdFsbu408WsbjUJZV3SeaSpLbunt2rH+F8kNv4q+JPiaPQYdJ1HSNJub+w064i3rYTGRACEcdUDHGRxXOaL8fdb0nTNKtrjR9A1m60mMRafqWqWHnXVqinKKr7gCFPI3A4rA8O/FDX/Dfi698RxXEd5qF+JVvkvYhLFdpIcyJInQqT246cU3rKTXXm17X2+78OglpFLty/O2/wB/49T0DxB4m1D4n/AXUtd8SyR6jrWk63Bb22otCiTeVJGxaIlQNy5APPSuy8U/FHXvB/jL4aaTpctvDp15oekrewtbRv8Aa1cbSshZSSu3gAHjJPU14t4z+LGpeMdFttGXTdJ0DRYZjc/2fotqYIpJiNvmPlmLNjjk9Kqa98R9T8Ra5oGq3MFqlxotra2lusSMEZIDlC4LEknvgj2xTi1za7cyfyUbP8RST5dN7NfNu6/A9HsPEmqfC/8AaN1XRPDF6+kaXd+IY7Wa2hVdrQ+fgJyDgAOwGPWsv4/fFXxZrvjPxX4av9anudCttWnSKyZV2IElYIMgZ4HvXn/iDxpqPiHxpd+KJPKtdUuLv7bm2UhI5N24FQxJwD6k1u+O/izP8QLWUXvhrw7ZahNMJ59V0+zeK6mfnJZt5X5icnCjJrJJ8kE91/wPyszVtc82uv8Awfzuj32517Svhzb+D9Lg8e6b4V0r+ybO6vdDl0KW6F8ZFDSPLIsbBt+SOvGO1cV8ONU0fTfGvxh1HwusNxo0Wh3s+nrLCfL2ebGyAxuB8o4+Vh0GCK4bRvjxrOl6bpdtc6NoGtXOlRrFp+o6pYeddWqKcoqvuAIU9NwOKwdJ+Jms6Xd+KLtjDe3XiO0ms76a6UltsrBnddpADZHfI9q0lrKTXVS/Hb7vw6GcdIxT6cv4b/116noXiLxRqHxL/Z/u9a8RSR6hrGk67FbW1/5KJKIZIWLRkqBlcgEV0lp8dPHa/s93WtDxJdDVIvEcdilztTcITbM2z7uMZANeHWvje+tfAt74USK3OnXd7HfvKyt5wkRSoAO7G3B9M+9angn4qX/gvR73SDpWka/pF3Mty9jrNsZollUFRIu1lIbBx16UP7SXW34ct/vsxr7LfS/43t+aNPwFeeKPG3jLVtRg8N2PjvV7iIy3KapCZAvzKPMAV0weg/HpWv8AFDRfFVh4XMusfDTRPCtn5yD+0LC2aOTdzhMmZuD9O1eW61qQ1jVru9WztdPW4kMgtbJCkMWf4UBJIA+pqlXBLDylUVRNJK2ln/8AJJfgK3vN3O20H4taz4d/4RX7NDZt/wAI29y9n5qOd5nzv8zDDOM8Yx+NT/BzxxrvhTxtplvpOoyWMOpX9tDdpGFIlTzQMHIPZm6etcFU1neTafeQXVu5iuIJFljkHVWU5B/AitZYelKMlyr3t/vb/NtkSjzRcV1PUfjp8TvFGteMPFPh291ia40W31WdIrNlXaoSVggyBnge9eoz65pnw9tfCWmweONP8MaZ/ZVpdXmjS6JJci9MihpHldY2Db8kdeMdq8N8bfFKbx3ayC88O6BZ380wnm1OxtHiuZm5yWbeV+YnJwvWr2j/ABu1fTNN022uNI0PWLjTIxFY6hqdj5tzbIpyiq24AhT03A4ryJYKcqFOmoJcu6VtdLX1TX3q4TjzO68zW8L+IrXS/jdf2/hOzOseGtau5LE6YqMq3VpK3KBWAK7QcgnGNvpmtH47WMXw50XSvBWgb38Ozs+oy6nuDf2jNvK4LLxiIALj15x0NcBoPxM1jw/rGtaxF5FxrWqRSRvqVwrGaAyE73iwQFY5Izg4HTFVv+E6v5PA58K3ENtd6el19rtpZlYzWrkYYRsGACt3BBGeeDzXR9VqKrCfSNr6726/9u9NNdeyKt77l/Xr+h7Fa/GrxsvwFudYHiG5/tOPxDHZJcbU3CE2zNs+7jGQDXjMC6v8SvGkEc0zXusatdJGZnAyzsQu44/zxWl4N+Jt74P0m90o6XpWuaVdTLcPZavbmWNZVBAddrKQ2Djr0q94B+IWneF/GWq+KLjTVgv/ALLcHTLXTogLe3uXXarEM+VRQW6bj0p06DwrqzpU1d6q1uy0+8mzjDljo/8Ag/oS/HXXLbUPHT6VpzZ0fw/BHpFmB0KxDDt9S+4578V6d4m+Jet+E/Ffw50vTZYIbC60TSxeQtbo/wBqVhtKuWBJXbwADxknqa+b3dpGZmJZmOSx6k10uufEHUfEGsaFqVxDapPo9rbWlusSMFZIPuF8sSSe+CPbFVLBJxp05LmUb3v1bW/36inG/wAPZpfhb8j0Kz8Qal8Nf2gtU0fw3ePpWm3Wvx201vCq7Wi8/ATkcAB2HHrWb8dPid4o1rxf4p8O3usTXGi2+qzpFZsq7VCSsEGQM8D3rg9e8X3+v+MLrxLJ5dtqVxdfbP8AR1IRJN24FQSTgH1Jrb8bfFKbx5ayi98O6BZ380wnm1OxtHiuZW5yWbeV5JycL1qIYVxqUqk4JtRSb0vfTXz2NNOdyS3/AOCe5+PvHOsaK3jz7JPFGdGg0a6sGa3jZoJpI40dwSpyxViuTnjpXmPxStYbP9pK6jt4khjOqWsmyNcDcwiZjj3JJ/GuY1/4rav4iPiA3NvZJ/bcNpDceUjjYtuFEZTLHBO0ZznvjFZXi7xpqHjHxddeI7pYbbULh0kP2UMqIyKqqVBJP8IPXrWeEwU6E1JpLRp/dD9VL+mZcj5OVdrfgv1ubXxx/wCSv+L/APsJTf8AoVU/DfxM1Xwt4P1/w3aQWUljrQC3Ek8G6VcDHyNnj8QcdRg1f8W/Fy48aWN3HqPhvw8NSutpm1iCzeO7ZgQS24SbcnGD8vQmtDR9c0zw38C9YgSS0m1/XtSW38vKtNb2sShixHVdzMV7ZGfSt4xcMNClVhdrlVvS2vy3+Rq3zSTt1+7qeZ0UUV6oz3zxl8Q9Z+Fdz4Q0Hw2sEGkNo9ld3FiLWNxfySruk80lSW3dPbtVL4U6qbLxF8UdSi0aPSHj0G7nTS5o9yW7eZGwQqwGQD/CRjHGK5bR/jlrOl6bpltPpOh6vc6WgisNQ1Kx825tUU5RVbcAQp6bgcVhaX8RtY0288S3bNFe3XiC0mtL2a6UlisrBmZcEYbI9x7V4X1Ofs5w5Fd31vvrfX5d/kZRj7qTX8v4bneeIPE1/wDEb4E3er+IHjv9W0vW4re3vjCiSiF4mLRkqBlcgGu28L31/wCC/wDhFtA1PxnoXhdmitzL4dtdIluTdLIQf9JfYwMjhgDzgZGMV4FbeMr218FXvhhIrc2F1eR3ryMreaHRSoAOcYwfTPvXVxfHfWlh09p9I0G91Sxjjig1i6sN94qp90b92MgcBsbh1BzzRVwc2nThFcvM3bTsu6a3vfS/YmUW429fz0/A7vwfaWvhP43/ABQhsbSEWdjpWqmK1dcxbVwQhH93tj0rg9c+MFz408B32j+J0OqatHcRTaZqAhjQ2yjIljJUA7SMYGMZ+grKj+KurR+K/EniAW9l9s162ubW5j2P5aLOMOUG7II7ZJ981xlbUcH7ynWV2lDXrdb/APB7m1lzOXn+iPorwf48S/8ADXhfSfCfjPT/AAjfW1slvdaNqliRBe3G47pGmCMGD5Aw2MVlfCvQhpvxE8f3WvR2GhapotjcXCSfZTPbWM5kVfNSIBtwUMSoAPUVx2k/GzUdOsdNgufD/h3WbjTY1itL/UrAyXESKcou4MAQvbcDWNpPxO17SfF994kWeK61C/8AMW9S6iEkNykn343ToVPp2wMVh9Tq/vVFW5k+12277229b2MlF8tvT8N/6+89C+KXizQvEnw98m88ZW3jHxTBfI9reR6VLaypblSHjZmjUMudpGTmti1+NXjZfgLc6wPENz/acfiGOyS42puEJtmbZ93GMgGvK/FnxOv/ABVo8WkR6bpWhaSk32lrLR7XyY5JcYDvkszEAkDnFHg34m3vg/Sb3Sjpela5pV1Mtw9lq9uZY1lUEB12spDYOOvSn9R/cKLhdqV7O22l0rJJXtsVy/Dpe1/xua3gC68T+NPGGq39t4asfHerXEXm3MeqQmRV+ZR5gCumD0H49K2Pihoviqw8LmXWPhponhWz85B/aFhbNHJu5wmTM3B+navLNY1Aatql1eLaW1gJ5DILazQpDFn+FASSAPqap13fV25xmrJK2ln+kkvwKt71z2n4mAn4j/DXAznRtHx781x/xw/5LB4v/wCwlN/6FV7RPjprWj6fpdvLpOh6tdaVGItP1HUrHzbm1QHKKjbgMKem4HFcDqWpXOsajc395M1xd3MrTTSv1d2OWJ+pNZ4WhUp1Iua0imvW7T/QUE4rXsl91z0f9pb/AJLLrn/XO1/9Joq6z4myeA44fBf/AAklt4il1A+GbAhtKuLdItmw44dGOc5746V5D448ZXvj7xNda5qEVvDd3IjV0tlZYxsRUGAxJ6KO/Wjxb4yvfGUmlvexQRHTtPh02L7OrDdHECFLZJy3PJGB7Cs4YWfs6EJO3ItbPysCjqvJW/L/ACG6ePDUniiT7c2qweHDJJs+zrFJdhOfLByVQn7ueg64q14uj8HJFbf8ItPrk0m5vP8A7XhhjAHGNvlu2T1zmuZor0fZ+8pcz0/rUvrc+h9QvvCWk6t4Mh8fQ3lx4ssrK2VprFf9Fij2hrZbhS26RlBUt5e3jj5jXnviHxJ4k+HPxr1TWL/7LceI7S8meQlWMDmRSMgAg7Sr5AznpmpLH47axb2unrfaL4f1u+0+NYrXUtT0/wA25iVfuDcGAbb23A1wuua5feJNYu9U1K4a6v7uQyzTNjLMfYcAew6V5mHws4zftVo009b7voui7r07GcI2jZ9l/Xp2LuqeL73V/DOiaFOkIs9Jad4GRSHYzMGbcc4PI4wB+Ne2fDibxL4r8K2kfj/R9M1D4f2yCKHWfEkpspbaMDhbW4A8x+OiBXBwBxXzvWnrfibVvEjWx1TUbm/+ywrBAtxIWWKNQAqIDwoAA4FdWIw3tYKEElre/VX6q1tfO/3nVSn7OV/6+fkTeMbfRbXxTqkPhy5nvNCSdhZ3FyuJHjzwWGBz+A+lY1FFdkI8sVG97Gcpc0nK1rhRRRVkhRRRQAUUUUAFFFFABRRRQAUUUUAFFFFABRRRQB0+i/8AMU/7B0//ALLXMV0+i/8AMU/7B0//ALLXMU2JBRRRSGFFFFABRRRQAUUUUAFFFFABRRRQAUV1Xhzwfp+ueEfEesXPiSw0q80tY2t9LuD++v8AcSCI+e2OwPXnA5rlaiM4yk4rdb/mVytJS7hRRWvH4T1WTwrL4kW1zosV4tg915icTlC4Tbnd90E5xj3pyko/E7CSctEZFFFFUIKKKKACiiigAooooAK6Xw34bttYsZJppJlZZCgEZAGMA9wfWpdI+GHibXl0A2OmeeNeM66d+/iXzzDnzerDbjB+9jPbNaXgdSulTqeCLhgf++Vrkq1Y8rUJar/Nr8016plRs2J/wgth/wA9rn/vpf8A4mj/AIQWw/57XP8A30v/AMTXp/inwrpvhXSNPSW9ubjXLu3ivDDHCot443BIBYnJbGOgxVbwT4Wg8TXGoSXt21lp+n2jXlxJFH5khVSBtVcjkk9zXl/XPcdTmdkVeNuY85/4QWw/57XP/fS//E0f8ILYf89rn/vpf/ia6vURaLfTiwaZ7PcfKa4ULIV7bgCRn6Gq9bKtNq9y+VHOf8ILYf8APa5/76X/AOJo/wCEFsP+e1z/AN9L/wDE10dFP20+4cqOc/4QWw/57XP/AH0v/wATR/wgth/z2uf++l/+JrpY42mkSNRlmIUc45NdFrvw58QeG9MOoahZxxWYkERljuoZcMQSBhHJ7GoliXFpSnZvYn3b2POP+EFsP+e1z/30v/xNH/CC2H/Pa5/76X/4mujoq/bT7lcqOc/4QWw/57XP/fS//E0f8ILYf89rn/vpf/ia73w74N1jxZ550uz+0JBjzZGkSJEz0BZyBk+maoatpVzoeoTWN4ix3MJAdUkWQDIB+8pIPB7GoWJblyKevYXu7HI/8ILYf89rn/vpf/iaP+EFsP8Antc/99L/APE10dFX7afcfKjnP+EFsP8Antc/99L/APE0f8ILYf8APa5/76X/AOJrpY43mkSONS8jkKqqMkk9AK6Xxd4VsvCMMNlNqDXPiAMDdW0KDybZSudhfPzP0zgYHNRLEyi1FvVk6Xsea/8ACC2H/Pa5/wC+l/8AiaP+EFsP+e1z/wB9L/8AE12VnoN9f6Vf6lBB5llYeX9pl3qNm84XgnJyR2BqhVKvJtpS2HZHOf8ACC2H/Pa5/wC+l/8AiaP+EFsP+e1z/wB9L/8AE10dXl0O9bQ21cQ/8S5bgWpm3r/rCpYLjOegJzjFDrzjvILI47/hBbD/AJ7XP/fS/wDxNH/CC2H/AD2uf++l/wDia6Oin7afcfKjnP8AhBbD/ntc/wDfS/8AxNH/AAgth/z2uf8Avpf/AImuxXQ71tDbVxD/AMS5bgWpm3r/AKwqWC4znoCc4xVONRJIqlggYgFm6D3pKvN7SFZbnNf8ILYf89rn/vpf/iaP+EFsP+e1z/30v/xNd14r0O28O61LZWmq2+swIqsLu1+42Rkjqen1rIpRxEpxUk9GFkc5/wAILYf89rn/AL6X/wCJo/4QWw/57XP/AH0v/wATXRgFiAOtX9c0O+8N6pNp2pQfZryHb5ke9WxkBhypI6Ed6ft5XtzahZbHG/8ACC2H/Pa5/wC+l/8AiaP+EFsP+e1z/wB9L/8AE10dFP20+4+VHOf8ILYf89rn/vpf/iaP+EFsP+e1z/30v/xNdHW14d8G6x4s886XZ/aEgx5sjSJEiZ6As5AyfTNTLESguaUrIT5VucF/wgth/wA9rn/vpf8A4mj/AIQWw/57XP8A30v/AMTXYalo9zo+qSafehILiNgsmJFkVcgHO5SQeD2NXfE3h+DQ9ebTrHVLbWo8JturUjYxYDjOccE460vrLbSUtxe6cF/wgth/z2uf++l/+Jo/4QWw/wCe1z/30v8A8TXo+u/DnxB4b0w6hqFnHFZiQRGWO6hlwxBIGEcnsa5uiGJdRXhO68hpReqOc/4QWw/57XP/AH0v/wATR/wgth/z2uf++l/+Jro6Kv20+4+VHOf8ILYf89rn/vpf/iaP+EFsP+e1z/30v/xNdHRR7afcOVHOf8ILYf8APa5/76X/AOJo/wCEFsP+e1z/AN9L/wDE10dFHtp9w5Uc5/wgth/z2uf++l/+Jo/4QWw/57XP/fS//E10dFHtp9w5Uc5/wgth/wA9rn/vpf8A4mj/AIQWw/57XP8A30v/AMTXRgFiAOtX9c0O+8N6pNp2pQfZryHb5ke9WxkBhypI6Ed6Xt5Xtzaistjjf+EFsP8Antc/99L/APE0f8ILYf8APa5/76X/AOJrufCui23iHW4LG71S30eCQMWu7r7i4UkA8jrjHXvWZNGIZpEV1kVWKh16Ng9RS+sS5uW+oWRyN/4MsrWxuZkluC0cbOAzLjIBPpXGV6lrH/IIvv8Arg//AKCa4vwL4Un8ceMNJ0K3JSS+uFiMgGdidXf/AICoJ/Cu6jU9yU5vRGdS0Vcn8N+G7bWLGSaaSZWWQoBGQBjAPcH1rW/4QWw/57XP/fS//E1paVZ2On3Wr2umXD3enwX8sUFxIAGlRcANxxzjP411WpaDa2Ph7S9Ri1e1u7m8LiWxj/1lvtOBu57/AIfjXHUxDUlZvXb8zSyWj3OD/wCEFsP+e1z/AN9L/wDE0f8ACC2H/Pa5/wC+l/8Aia6Oij20+4+VHOf8ILYf89rn/vpf/iaP+EFsP+e1z/30v/xNdHRR7afcOVHOf8ILYf8APa5/76X/AOJo/wCEFsP+e1z/AN9L/wDE10dFHtp9w5Uc5/wgth/z2uf++l/+Jo/4QWw/57XP/fS//E10dFHtp9w5Uc5/wgth/wA9rn/vpf8A4mj/AIQWw/57XP8A30v/AMTXR0Ue2n3DlRzn/CC2H/Pa5/76X/4mj/hBbD/ntc/99L/8TXSxqJJFUsEDEAs3Qe9avivQ7bw7rUtlaarb6zAiqwu7X7jZGSOp6fWpeIkpKN9WKyvY4X/hBbD/AJ7XP/fS/wDxNH/CC2H/AD2uf++l/wDia6Oiq9tPuPlRzn/CC2H/AD2uf++l/wDiaP8AhBbD/ntc/wDfS/8AxNdHWt4V0W28Q63BY3eqW+jwSBi13dfcXCkgHkdcY696mVecU5N6ITSSuzhv+EFsP+e1z/30v/xNH/CC2H/Pa5/76X/4mummjEM0iK6yKrFQ69GweoplV7afcfKjnP8AhBbD/ntc/wDfS/8AxNH/AAgth/z2uf8Avpf/AImuys9Bvr/Sr/UoIPMsrDy/tMu9Rs3nC8E5OSOwNSeHbXS73UhBq95Np9q6kC5hi8zY/YsuQSvXOOah4iST97YnTc4n/hBbD/ntc/8AfS//ABNH/CC2H/Pa5/76X/4mu58UeG7rwnrEun3ZSRlCvHNEcpLGwyrqe4IrJpxxEppSjLRjsjnP+EFsP+e1z/30v/xNH/CC2H/Pa5/76X/4mu98J2Gkapqq2mr3N3aJPiOGW1iWTbIWABcEj5fpzVfxJocnhvX9Q0qWRZpLSZoTIowGwcZqfrMufkvruLS9jiv+EFsP+e1z/wB9L/8AE1zXiTSYdHvo4YWdlaMOTIQTnJHYD0r3TUPCumS+C18QaTe3Mghnjtbu2vIVQrIyk7kZWIK5B64NeW6p4Y1Pxl4zsNH0e2+2ajcwHyofMVN23ex+ZiAOFJ5PatsPiedtylor3vpaxL5eXmOHorW1Hwrqmk6Hpes3Vr5Wm6m0q2k3mIfMMTBZPlByMEjqBntmsmvUjJS1i7kBRRRVAFFdD8PfB9z8QPG2jeHrUlJdQuVhMgGfLTq7/wDAVDN+FVPFtjp2l+J9VstJuZL3TLe5kht7mUANKisQH445xn8ay9pH2ns+tr/IvlfK59DJooorUgKKKKACiuq8OeD9P1zwj4j1i58SWGlXmlrG1vpdwf31/uJBEfPbHYHrzgc1ytRGcZScVut/zK5WkpdwoorXj8J6rJ4Vl8SLa50WK8Wwe68xOJyhcJtzu+6Cc4x705SUfidhJOWiMiiiiqEFFFFABRRRQB0+i/8AMU/7B0//ALLXMV0+i/8AMU/7B0//ALLXMU2JBRRRSGFFFFABRRRQB7/b+BdH+HXgLTvFuk+Gz8Sbme3SafUZnWTTdMkK5MclvGxdmXOCZSq+1cp8J9c0TxL8U73VPGp0syXVtcSWv9pR+Vp/20r+5EyoAFiHPGMcCuF8KeMtc8D6ouo6BqlzpV4vBkt3xuHow6MPYgitjR/iHDH40v8AXde8Pab4hh1FJEu7CSIQId+MvEUH7p8jIZRxk+teQ8NVSqcz5nJOzTtL0XReqt5rqdiqwtBJWs1ddHbq+vy162O7+M2j6vF4PtL3UfBvha2g+17IPEng94hbONpzDIsRKknqGYA8d+a0/FXiDQPg5/wh+hReCdA1y0utHtNS1S71S0867uGmG5xHIT+6AHC7eh9a4jxV8VdJvPA83hTwt4UHhnS7q7S9vGm1B72WZ0UhAGZVCqMngDn1rVsfjhot5Y6BJ4m8C2viPXNCt47Wz1E6hJbq0UZzEs0SgiTb9RkcGuRUK3s4qdNtJvROzato/ia36J+drm0qkOa8Za237O/pfbrby2LvwXtPCms/EjxrcLoa33hyDQ9RvbTT9SCyPGqqGQbucMBwHByOuc1j+IPH3hfxv8OtRiv/AA7o/h/xXZ3MLaZJoVibdLiEkiVJcEg7Rghm5P55zfDvxfutK8XeK/EN7YR3114g0+8spI4X8hITcDG5Rtbhey9/WvPq7IYWUqvPUurKNteqvf1vs7rVGcqyjFqOt3Lp0aSXp1aXRnunw11y08XfC/x5pt/4a8OhtF8P+da6hDpUS3nmCRF3tNjcWwTz1rG/Z7sdJuG8e3er6Paa1Dp/hm5vIre8jDKJEePBB6qeo3KQcE4Iq14M+M3gjwfoGo6dH8Orq4k1XT1sNRnPiF189cqzMq+QdmWXPB46VsfBXXtGOtfE3UtG8Piw0mPwlcsNJvLtrpWAaLerSYUkNz0AIzweM1xVlUhCu/ZuKdrO6+ezbVzWlyydJOSbTWmu2nlYy/EVxpnxF+Bt/wCJW8N6PoGtaLq8FoJdEtRbRzwSox2ugJBYMv3uuPxz2Fh8YJ1/ZzvdV/4RPwiWi8SQ2n2Q6JF9mYG2ZvMaPoZOMbuuCRXlvjD4q6bqngeLwn4Z8LR+F9Ie8F/eZvXu5bmYKVXLsBtUAn5f165j8B/E/TPD/hHUfC/iLwyPE2h3d5HfpFHfvZyxTqhTcHVWyCpxgiqlhJVKTvTek01G6ul7t1vbWze4o1lGcfe+y035vmt06XXTocZ4g1hvEGs3eotaWdg1w+822nwCCCPjoiDhR7Cs+r2uXVje6vdz6bYtplhJIWgs3nMxhXspcgFseuBVGvegrRSSt5Hny1k23c+lPCNjYX/hLwvD4J0PwL4juWtF/tXT9dMQ1Sa63HzFQysCFIxtKGuT+EWi6W3xG8cx614YhW2sNG1K4/sW9HmG2ePBCBmGQy8gOOR1zWJoPxO8JWNrpEmp/Du1v9Y0xEVL2z1GSzSYocq8sSoQzerZGe9VdL+MV3b+MvF3iO+sEvLvxFYXlnJHHJ5SwmcAbhw2QuPu9/WtJfFJrqpfitP66Ex2SfeP4b/11LfiDx14Z8afD2+jvfD+k6B4ps7mJtPk0SyMCXEJyJElwSCV4IY8n889Z4p17QfhDJ4V0GPwZoWtWdxpNpf6ndala+dd3DTLucJITmPA4Xb0PrXgtetWfxs0e6tdCm8SeCLbxBrmi28draaib+SBXjj/ANUJolBEm36jPejS3zX3Wa/yYtb/ACf33/4dHPaG/h268YavJa+D9U8RaK5drPT4rt4prdC42l2RH3YHy/j1qz44j0ZdDJsfh1q3hifzF/068v5Zo8c5Xa0SjJ+vasCf4heID4m1PXrPVLrSNR1GR5J30yZ7YEM27YNhHyg4wPYVFrPj7xN4is/smreI9W1S03B/IvL6WaPcOh2sxGa890ZupGXRW+1L8tn+o38bf9fcdZ4V+M0vhkeBgNL+0Dwu946/6Rt+0faM5H3Ds2598+1T/CWz0rUrW7Gr6rJpMHmsyyx2puCzYXjAYY4zz7V5dXd+Bf8AkETf9dz/AOgrU1qEIQk4aN9fm31v1b+8cV0X9f1c9c+MGV8RadEgD2cOl2sdpPnmeEJ8shGBgnnjtitXwnY6Vp/hPxRcaRqj6tqcmkFLizltjAII2ZPMcMSwcrx6Z61j+OdU0bxNpek6ja6i0eoW1jBYyaZJbtkbAQXWQfKR7dearfDvXNO0ubWrTU55LO31PT5LMXccZk8lmKkEqOSOO3NfPcknhuXW66W31/rb5D+xHyt+hyVFWNSt4LW+nhtbpb23RiEuFRkEg9drcj8ar16id1c2PQfGOl2dr4t8Iww2kEUM+n2DyxxxqqyM33iwA5J7k9a2tP0nSo/il44hn0y1uLCzs76WO0MahF2YI2jHykdiOR2rAsfiXY+TpUuqeHIdU1XSokhtbw3LxjahzGJEAw+36jPesrSPHVxY61rup3UH2y51a0ubeQh9gVpurjg9PT9a8l0q0ouNtk1vvd9NfzsYKMrJPy/Dcuar4n0bxH4TukudJsNL1u3mjNo+m2xiWWM5Dq+CQccEE8/rU+nf8kY1j/sMQf8Aotq4Wuo8L+MLbR9HvtI1PShq+mXUqTmJbhoHSRQQGDAHscYIrqqUeWFqeuqdvRra5bja1uhy9FdLbWfh7xBql5I18vhSxAQwwXCy3hJxhhuRc9RnkDrjtRrXh3QLDT5J7HxXBqlypG21SxnjLZIB+ZlAGBz+Fbe2V1Fp39H+a0/Erm1sd1puteGf+FU6lL/wjM/2NdShSW2/tNsySeW2H3+XwOvy479a57wVa6NqGreI9XGkKbLTNPe7ttNuZjMnmAqo3tgFhkk44rnrfxR9n8F3mgfZt32i8ju/tHmY27VK7duOc565o8H+Kn8J39xKbWO/s7qBrW6tJSVWWJsZGRyDkDBFcf1eUY1eW929NXtZef4mfK1G3n+v+R0esSWfiz4d3OtnSrHS9Ssb+O33adD5McsbqThkBxkEda1Nc1zTfB9l4REfhvSLw3ekwT3cl1ah2kBZgcejcHLdTx6Vy3iDxpaX2gpomj6Oui6aZ/tMym4aeSWQDaCXIGAAegFUPFHif/hJIdFj+zfZ/wCzbCOxz5m7zNpY7ugxnd056daUaMpWUlaN3pfZW9e4KLdr+f56G/oMejzfGTTBo+5tHbU4WtxICCF3A4554PHPpXM+LJHm8Vay8hLO15MWJ653mqWm6hNpOoWt7btsuLaVZo29GUgj9RXS+OrnQtekOvaXcPb3l7Luu9JkjP7mQglnR+jIT26jNb8rp1Y7tWtf/P17lrST8/0uZ2k+KG0vwxrujiDzF1QwEy78eX5blumOc59Rir/w0/sf/hJG/tj7Ls+zS/Zvt+fs32jH7vzcfw9c1ylavhvWLbRdQaW80y31e1kjaKS3uMjg91Ycqw7MK1qU1yT5d5dvS36BKOjsdd8QbC/TQbe5u9A0WGPz9seraCyeSw2/6tlQkZ7gnB4ret/Hko+E099/Yeg7l1hIPI/s1PJP7ljvKdC/GN3pXF6541sbjw6+iaLog0eymuFuZzJdNcSSMoIUZIGAMnoKZ4a8ZWel6DdaLq2j/wBsabNcLdKi3LW7pKFK5DAHIwemK4XQlKklKGqd7eWnm1+JHLpFtbf8Et+C4pfEniq9vv7C0+9WOF52hkdbWxtjwA7jpsB/hyM5rofHWg20/gA6vLDoCalb3yQCXw7IpiaNkJw6ocBgRwfSuT0Hxna6DqGrqmkLcaJqSeVLpstw24IG3LiUDOQe+PwqfVvHVjdeFLnQNN0JNLtZbqO6Di5aV8qpB3Fh8xOR0wBjp1NOdOq6sZRjZK33dev5L5jtLnv/AFt/mdhb+PJR8Jp77+w9B3LrCQeR/ZqeSf3LHeU6F+MbvSvObXxVJaa9Pqg0zS5WmBBtZbNGt0zj7sZ4HT9TV/w14ys9L0G60XVtH/tjTZrhbpUW5a3dJQpXIYA5GD0xVLT9U0KDWLue70Ka70+TPkWa35jaHnjMmw7sDjoK0p0VTlU9zf01203CMeVWt/Vza+L1vbW/ia0a1s7exSbTraZorWJYo9zICxCgY61s63qml+AG0LTE8O6XqNvNYW93ez3kHmTytIMsFfPyYHTFY/jTx3ofi6EuvhqWy1BII7eG5/tIyKipgDKeWM8DHXvT7f4kafPb6Y+seGodW1PTYkgt7s3TxKyJ9wSIAQ+PqM96yVOo6cIyg9N1dfLr+pNpWjddPx01/M4/VpLOTVLqTTo5ILFpWaCOY5dEzwCe+K0PGvidvGXia91hrf7KbnZ+5379u1FXrgZ+76d6z9X1SbWtUur+42ie5kaVxGu1QSc4A7CqlejGC92TWqVvvtf8jfrcKK7Kz0fSrH4X3er31t52qXt6LXT2MjL5aoA0j4BAPXbznnFcbRCopuSXR2EnzK4V6/puteGf+FU6lL/wjM/2NdShSW2/tNsySeW2H3+XwOvy479a8grdt/FH2fwXeaB9m3faLyO7+0eZjbtUrt245znrmscRS9rFJdGutuqv/X3EyjzNCW/iK20vXp7/AE3SLQWrrtjstSUXiIMDJywGTkHnHetv4vW9tb+JrRrWzt7FJtOtpmitYlij3MgLEKBjrXOeH77SrC6kfVtKk1aBkwkUd0bcq2R82QrZ4zx710njTx3ofi6EuvhqWy1BII7eG5/tIyKipgDKeWM8DHXvUSjKNaDjFtLS91+ruLXnvbT/AIYdp3/JGNY/7DEH/otqPhL4ftNa1LVri7jtJv7PsXuYo9Qk8u2Mm5VUyHI+UZzjvWb4X8YW2j6PfaRqelDV9MupUnMS3DQOkiggMGAPY4wRS6X4ytdB1+9udP0hV0i8gNrPpdxcNJvjYDcPMABByMg44qJQq2qxit9U9OyXe9/6uTZ8rX9bnS+PNO06bwf9snfw1DrkN0qJH4fuIyssLKc7o1PUEDkDoa0dV1PS/D2teFNPTw1pF1DfadZNdvcWwLvvGCVIxtPfd1JPJNcH4g8SaVf6dHY6T4eg0iESea8zym4nc4wF8xgCF/2QOtO1vxn/AGxrGh332Pyf7Mtba28vzd3meV/FnAxn05x71nHDzaSknbX8vJ9/MTi7fJ/nodDp/hRLH4la/ZWmkW+q2mmvNsXULgRW8ChsK8rH7yj+7kZrQ8daDbz/AA/bV5YdATUre+SAS+HZFMTRshOHVDgMCOD6Vz8PxJUeJPEN9c6THd6brhYXOnvMVOC25dsgAIIPfH4VDq/jqxuvClzoGm6Eml2st1HdBxctK+VUg7iw+YnI6YAx06mo9nXcoNrbl6/f1/JalWlz3/rb/M73xNJpejnxJ5XhzR3Okx6fcQF7UfM0qIHDgEBl+bO3pnnk1Wg8F6T/AMLS8Xxra2S2umWpura2vZPLtRIwjxvOfuAueOnQVxmvfET+2zr5/s/yf7VitIv9du8ryAoz90bt232xnvUs3xNeXxpq2tnTY3tNUh+z3WnSylleIqqkbwAQcqCCBxURw9eMdN7Pr5R8/wDEZqElFL0/T/gmx4807TpvB/2yd/DUOuQ3Sokfh+4jKywspzujU9QQOQOhqhYx6N9it/M+HmrXT+Wu6dL+VVkOOWAERwD1696w/EHiTSr/AE6Ox0nw9BpEIk815nlNxO5xgL5jAEL/ALIHWoYfHnia2hjhh8RatFFGoVI0vpQqqBgAANwK6YUans7efdr/ANJf6mnK7IztX8tdUufIs5NOiDnbayuXeIf3SSASfwFX/GvidvGXia91hrf7KbnZ+5379u1FXrgZ+76d6ybu8nv7mS4uZpLm4kO55ZnLOx9STyTUVdqgtJPdK35X/I0trc9S+F/iSLxB4i0/RL3QNBltWgkVpP7Nj81tkLEEvjJOVGTXMfDT+x/+Ekb+2Psuz7NL9m+35+zfaMfu/Nx/D1zXUfDvwdq3gzWo/EmuWv8AZmk2ttNJ51xIo8zdEyqqDOSSWHFcD4b1i20XUGlvNMt9XtZI2ikt7jI4PdWHKsOzCuBRjOdVUno0tn196/z2MbXT5djo/i1YX6eC5rm70DRYY/nWPVtBZPJYeWf3bKhIz3BODxXn3ws/4o7wL4v8bv8AJcrD/Yult3+0TD94y+6R5P8AwKuq8aeNbG48C6jomi6INHspi1zOZLpriSRlQhRkgYAyegrgPH3ijTJfBfg/wvod19qtNPt2u76URsge9lOXGGAJ2ABQenWu3D06kqPsXGylLX/Du76tK+2/UTv7qfr9236fK5f+Emvv4es7mdLGwvy8jJ5eoWyzoOEOQG6HjrXpvxElt9Q8JeDtUTTrDT7m8jujMLC2WBX2yhVyFHYD+deafCPwnq/izTruLSLGS+khlLSLHj5QQoB5Nek/EeIaP4f8J6BPJG2padbztdxROHETSS7ghI43AdRU4rk+tR5fivr6cr/WxStzKxuXk2l+GL7wpoC+H9NvILy1tbi7urmHdcO8py218/KB2HT1yKY2jaf/AMJZ8TYfsNt5VpZ3TW0fkrthYSKAUGPlIHpWfonj2y1S68OQ6hoEN3q9k0FpBqJuHUBFcBN0YGGK565+oNN8QeKpPCfxU8UzfZo761uZ7i1urWYkLLEzcrkcg8Dkeleb7OpzOFnez676rz/yJimtO1vz1+8zrCwtn+Euq3jW0LXaarDGtwUHmKpjYlQ3UAntXoEPh2w0G10K1S38IvZz2cE962tXKLeSGQbnKliCgwflx6d6838Q+NLXUNBj0XR9HXRdME/2qWP7Q08ksm3aCXIHAHQYq9D8QtNu7XTjrXhmHV9QsIVt4bprp41eNPuCSMAh8fUZHWtKlKtNc1nq720vtbvb8QcZNL5/mavhPRtEtvHni63WG31nSLPT72W3DESKyqAVKtzzjgMOaxdV8T6N4j8J3SXOk2Gl63bzRm0fTbYxLLGch1fBIOOCCef1rP0HxkdG1TWr02MTnUrO4tPJgxDHD5oxlQAeF7L+tc5XRGhJz5pt6KOt+q3+/qa8urb7/oeqf8IjaeNNS8EajZ2sNrZagnkagkEYREkg5lYgcDcgzXAeK9SttX8Sajd2VtDZ2cszGCGCMRosYOFAUDA4A/HNdx4P1y68N/CHxLOxURXlytpZZHzLKyETMPT93gfWvNreRYbiKR41mRGDGNujAHofrU4eMvaTu9I6L56/hovkTC9m/l939fgRV7d4mk0vRz4k8rw5o7nSY9PuIC9qPmaVEDhwCAy/Nnb0zzya8t8Za/Z+Jdae9sNHt9Dt2RUFpbHKAgctwAMn6Vra98RP7bOvn+z/ACf7VitIv9du8ryAoz90bt232xnvTq051nBtW76+cf0uEouTT8v1X6XLXjWa38DfE7Wl0/TbCa3RgEtby3WaFNyKxwrcDBJx6Co/i9b21v4mtGtbO3sUm062maK1iWKPcyAsQoGOtV9T8ZaV4g8YalrWraFJdwXYXZaR3xiMbBVXO8Ic8KeMDrVnxp470PxdCXXw1LZagkEdvDc/2kZFRUwBlPLGeBjr3rOnGpF0m4u6Vm7rsvMUebmTa6f5HT6rqel+Hta8KaenhrSLqG+06ya7e4tgXfeMEqRjae+7qSeSa878baRDoPjDWdOtsi3trqSOMMckKGOBn6Va1vxn/bGsaHffY/J/sy1trby/N3eZ5X8WcDGfTnHvVLxD4gXX/FV7rL2iolzcm4Nqz7hgnO0tgZ9M4FaUKU6ck32d9et9PwuOCcV8l95j16l8L/EkXiDxFp+iXugaDLatBIrSf2bH5rbIWIJfGScqMmuI8Y6/Z+JNaa9sNHt9DtyiqLS2OUyBy3AAyfpXcfDvwdq3gzWo/EmuWv8AZmk2ttNJ51xIo8zdEyqqDOSSWHFLFSjLDtzVpNOy63t08wna3mcv8NP7H/4SRv7Y+y7Ps0v2b7fn7N9ox+783H8PXNbHxBsL9NBt7m70DRYY/P2x6toLJ5LDb/q2VCRnuCcHiuR8N6xbaLqDS3mmW+r2skbRSW9xkcHurDlWHZhWxrnjWxuPDr6JouiDR7Ka4W5nMl01xJIyghRkgYAyegp1Kc/bKcVfb0/O/wCDuFnz3M7SfFDaX4Y13RxB5i6oYCZd+PL8ty3THOc+oxWHRWp4csdN1DUhHq2o/wBl2KqXeZYjIxxj5VUdz78Cuy0afNK2+r+635IvSOp03xG+fQPA8rcynSAhY9dqyOF/SuFrovHXiiLxPq0LWcDWumWVulnZQucssSdC3+0SST9a52ssPFxppSVt397bCKtFJl3Q3lj1rT3gjE063EZjjJwHbcMD8TXafFvTdFi8SavdQazJNq0l0TPp/wBlOyJifnAmyN208fdFc34Lh0xtbhn1TVf7KgtmWcMIHlaQqwOwBehx3PFR+Mtah8ReLNW1O3Ro4Lq5eVFf7wUnjPvUSi5V4tXVk/zWmv6aiXxNnWeDrez1D4Z63b6veNpOljUIZEvo4jMzTbGHl+WMZG3nORj3ry2bxbB8Nfixp+t2IbWLexjcR7v9HMyssiZ/i2/ezjnpXod9qmjaV8OW0Wz1FtUvr27ivJdtu0aW21CCuW+82TjjjivDvHX/ACF4f+uA/wDQmrbB0/aVKnPflldW20sk/Mi14O/UfrnjZ9b8FeG/DzWvlLoz3TifzN3m+c6v93Hy4x6nOe1eo/DnyfjVaw6P4g8EPdJYwrCfFmhhLOW0jVQAbkviGQAAfeKtgcEmvCK6nxH8TvEfijRrHR7zUWTRrGJIoNNtVENuoUABii4DMcZLNk5J5r06+GcoqNJWd273el9W1bfXpdL8jSjNQd3t+et+v/BOv8D/AAn8N+IvilrXhyfxQl3p1gJDZzWTwxSasysAsULSOI1ZgSQSSPlOM1X+KviC50WGXwdb+CIfA2nxyLJJBcRGS/uSudryXDjLDqQEwvpmvL66rUPif4k1jwinhnUtSfUtJikWSBLxRLJbkdo5D8yqRxtBx7VMsPV9pCcpcyVtHpr/ADaaN+TXo0axqwtJJWvfbX5a/nf1udx8Hf8Aih/h/wCNviA/yXUcH9haS3f7VOP3jr7pFk/8CrC+BH/CM/8ACdN/wk/9n+T9in+w/wBr5+xfbNv7nz8f8s85znjpUnxG8X6TL4B8EeEfD939rs9OtnvtRmWN4xJfzHLrhgCdigKG6HJxXMeBvE9j4V1l7nU9As/EmnzQPbzWN5lcq2PmjccxuMcMORzWapzq061Rppzul0dlorX76yXqHNGHs4rZWb6q7s/ysmvJnpfxm0fV4vB9pe6j4N8LW0H2vZB4k8HvELZxtOYZFiJUk9QzAHjvzWn4q8QaB8HP+EP0KLwToGuWl1o9pqWqXeqWnnXdw0w3OI5Cf3QA4Xb0PrXEeKvirpN54Hm8KeFvCg8M6XdXaXt402oPeyzOikIAzKoVRk8Ac+tatj8cNFvLHQJPE3gW18R65oVvHa2eonUJLdWijOYlmiUESbfqMjg1xqhW9nFTptpN6J2bVtH8TW/RPztc3lUhzXjLW2/Z39L7dbeWxd+C9p4U1n4keNbhdDW+8OQaHqN7aafqQWR41VQyDdzhgOA4OR1zmsfxB4+8L+N/h1qMV/4d0fw/4rs7mFtMk0KxNulxCSRKkuCQdowQzcn885vh34v3WleLvFfiG9sI7668QafeWUkcL+QkJuBjco2twvZe/rXn1dkMLKVXnqXVlG2vVXv632d1qjOVZRi1HW7l06NJL06tLoz3T4a65aeLvhf4802/8NeHQ2i+H/OtdQh0qJbzzBIi72mxuLYJ561jfs92Ok3DePbvV9HtNah0/wAM3N5Fb3kYZRIjx4IPVT1G5SDgnBFWvBnxm8EeD9A1HTo/h1dXEmq6ethqM58QuvnrlWZlXyDsyy54PHStj4K69ox1r4m6lo3h8WGkx+ErlhpN5dtdKwDRb1aTCkhuegBGeDxmuKsqkIV37NxTtZ3Xz2baua0uWTpJyTaa01208rGX4iuNM+IvwNv/ABK3hvR9A1rRdXgtBLolqLaOeCVGO10BILBl+91x+OewsPjBOv7Od7qv/CJ+ES0XiSG0+yHRIvszA2zN5jR9DJxjd1wSK8t8YfFXTdU8DxeE/DPhaPwvpD3gv7zN693LczBSq5dgNqgE/L+vXMfgP4n6Z4f8I6j4X8ReGR4m0O7vI79Io797OWKdUKbg6q2QVOMEVUsJKpSd6b0mmo3V0vdut7a2b3FGsozj732Wm/N81unS66dCn4f+Jl7pvjC/1SHQNEvI9VHkXGitpymzkUlTsSMcocqCCpBBrsvi18MtC0fwXa+J4dPvfA+rXUqr/wAIrqdwkzuhBzLDkiVUGOki554NcLo/xGu/BniTVdU8IQjQBdq0MAcrczWkZIOEldchuMbwAcE9K5jUNRu9WvJry+uZry7mbdJPcSF3c+pY8k13/V5yqRnD3ErX7vya2+er7W3MPaRSkpe9e/p69/lp59ivRRRXpHIFFFFAHT6L/wAxT/sHT/8AstcxXYaHYlYLqeeWO2huYHtI3lONztjp7DFcvfWM+m3T29whjlQ8j+o9qYivRRRSGFFdX/wr+4i+Gf8AwmVxdxwW0uo/2da2rKTJcME3O4PQKvAz6nFYGpaPf6O0C39jcWLXEK3EIuYmjMkTfdkXIGVPYjg1lGpCbai9nb5luMkk2t/+GKdFFFakBRRRQAUVcTR7+TS5dTSxuX02KUQSXixMYUkIyEL4wGIBOM5qnSunsMKKKKYgooooAKKKKACiiigAooooAKKKKACiiigAre0HxR/Ytm8H2bzt0hfd5m3sBjofSsGiplFSVpDvY6//AIWB/wBOH/kb/wCxo/4WB/04f+Rv/sa5CisvYU+w+ZnX/wDCwP8Apw/8jf8A2NH/AAsD/pw/8jf/AGNchRR7Cn2DmZ1//CwP+nD/AMjf/Y0f8LA/6cP/ACN/9jXIUUewp9g5mdf/AMLA/wCnD/yN/wDY0f8ACwP+nD/yN/8AY1yFFHsKfYOZnX/8LA/6cP8AyN/9jR/wsD/pw/8AI3/2NchRR7Cn2DmZ1/8AwsD/AKcP/I3/ANjR/wALA/6cP/I3/wBjXIUUewp9g5mdf/wsD/pw/wDI3/2NH/CwP+nD/wAjf/Y1yFFHsKfYOZnX/wDCwP8Apw/8jf8A2NH/AAsD/pw/8jf/AGNchRR7Cn2DmZ1//CwP+nD/AMjf/Y0f8LA/6cP/ACN/9jXIUUewp9g5mdf/AMLA/wCnD/yN/wDY0f8ACwP+nD/yN/8AY1yFFHsKfYOZnX/8LA/6cP8AyN/9jR/wsD/pw/8AI3/2NchRR7Cn2DmZ1/8AwsD/AKcP/I3/ANjR/wALA/6cP/I3/wBjXIUUewp9g5mdf/wsD/pw/wDI3/2NH/CwP+nD/wAjf/Y1yFFHsKfYOZnX/wDCwP8Apw/8jf8A2NH/AAsD/pw/8jf/AGNchRR7Cn2DmZ1//CwP+nD/AMjf/Y0f8LA/6cP/ACN/9jXIUUewp9g5mdf/AMLA/wCnD/yN/wDY0f8ACwP+nD/yN/8AY1yFFHsKfYOZnX/8LA/6cP8AyN/9jR/wsD/pw/8AI3/2NchRR7Cn2DmZ1/8AwsD/AKcP/I3/ANjR/wALA/6cP/I3/wBjXIUUewp9g5mdf/wsD/pw/wDI3/2NH/CwP+nD/wAjf/Y1yFFHsKfYOZnX/wDCwP8Apw/8jf8A2NH/AAsD/pw/8jf/AGNchRR7Cn2DmZ1//CwP+nD/AMjf/Y0f8LA/6cP/ACN/9jXIUUewp9g5mdf/AMLA/wCnD/yN/wDY0f8ACwP+nD/yN/8AY1yFFHsKfYOZnX/8LA/6cP8AyN/9jR/wsD/pw/8AI3/2NchRR7Cn2DmZ1/8AwsD/AKcP/I3/ANjR/wALA/6cP/I3/wBjXIUUewp9g5mdTeeOPtdnPB9i2eajJu83OMjGfu1y1FFaRhGHwibbN7QfFH9i2bwfZvO3SF93mbewGOh9K0f+Fgf9OH/kb/7GuQoqJUYSd2h8zOv/AOFgf9OH/kb/AOxo/wCFgf8ATh/5G/8Asa5Cil7Cn2DmZ1//AAsD/pw/8jf/AGNH/CwP+nD/AMjf/Y1yFFHsKfYOZnX/APCwP+nD/wAjf/Y0f8LA/wCnD/yN/wDY1yFFHsKfYOZnX/8ACwP+nD/yN/8AY0f8LA/6cP8AyN/9jXIUUewp9g5mdf8A8LA/6cP/ACN/9jR/wsD/AKcP/I3/ANjXIUUewp9g5mdf/wALA/6cP/I3/wBjR/wsD/pw/wDI3/2NchRR7Cn2DmZ1/wDwsD/pw/8AI3/2NH/CwP8Apw/8jf8A2NchRR7Cn2DmZ1//AAsD/pw/8jf/AGNH/CwP+nD/AMjf/Y1yFFHsKfYOZnX/APCwP+nD/wAjf/Y0f8LA/wCnD/yN/wDY1yFFHsKfYOZnX/8ACwP+nD/yN/8AY0f8LA/6cP8AyN/9jXIUUewp9g5mdf8A8LA/6cP/ACN/9jR/wsD/AKcP/I3/ANjXIUUewp9g5mdf/wALA/6cP/I3/wBjR/wsD/pw/wDI3/2NchRR7Cn2DmZ1/wDwsD/pw/8AI3/2NYWvax/bV4k/k+TtQJt3bu5Oeg9azaKqNKEHeKFzNhRRRWogooooAKKKKACiiigAooooAKKKKACiiigAooooAKKKKACiiigDq9Z06XWL6Vn1PT7eKGR4YreWbYY1Viv3ccZxmi4JuPD+pw3T297Np/kiG6iO75WYZAbuB0/On3Xhm21S/vrhNWhAbzLgqEJ2rnPPPTnrVZo7PS9A1SBNRhupbnytixg5+Vsn9D+lAHocvwx8OfCvw1o/iLxlBqPiabVLdLqz03TEeCxwy7lWa7I5bB5SMZBHWvLNWuz4n8RTTWWmQWBvJ8QafYqRHHkgKiAkn06nmtvwP8WPEngCOW2068W40qfi40i/jFxZTg9Q8Tcc+owfeup+EOreH5vixdeLtVh07Q9K0eKbWItLWYIks6LmKCEOcsTIQQozwteUva4d1KtX3rJtWf8A5Ly9H5636s6/dqRjCGjdl8+9+3lpYk/aGuYtBv8Aw94Bs3VrTwpYLbzlPuvey4kuH/76IH/ATXofjq/8Er4g+Gul+JPC9xr1xqPhvSoHu11CS3+yRsCqmNE4dgSWO446DA5NfNmtatc6/rF9qd7IZby8ne4mc/xO7FmP5mu98bfErTPEnizwPqdtBdx2+h6Xp9lcrMihneAkuUAYgg9skH1ArF4OXLRg73V22m1q1du611bLlWSdRw7WV/Jq34I6vwP8CbPUPjJ428OzW15r1n4ZiuZ4tPtpRFNqBSQJFEX/AIc7hkj0OKs/Fz4NxaP8M28VHwTd/D/ULW/jtJNPlvmu4bqJ1JEis5LKwYYIzjmsNPjPo/8AwtjxvrVxp15deF/FUdxaXNuGSK6jhkZWDryyh1Kg4JINcr4y1D4fx6HFYeEtM1ia+afzZtW1yVEkVMY8pIomKYJ5LNk8cYrnhDGSq05TbWkf/tr+8l96fkbylQXtFFLeVvT7NtG/ua89D1j4a/COw17QfDxT4TeIPEFtfIhvteur9rPyyzYZreNW2tGo5DNnd6Cub8O/CXQdJ+KHxBstcW41bQvB1rd3htY5fKkvBG6rGjOPu53DJHpU+rfFjwB4r1Pw/wCJdb07xJ/wkOl29rAdPtZYf7PcwgBWUk71U4yUA56ZHWqVr8aNDHxb8ca1eadfXPhXxXFc2lzAhSO7jhlIYOvJXepUcE496zUcY5VGrq6ffe6tZttbXtZRX6JOhyxvbRx+7Xm6X7Xu2a2sapoGs/s0+ILrQNEfw7C3iO1WWw+1tcxhhC+GR3+bBB5BzgjOecDE8I6b4L+MH2DQTo1/4X8V+UsMeoaLA97aXRUAb5rcZeMnHLISMkkiofEXj/wTa/CbUvBnhe01zdcarDqAvNWEOZAsbKQwRsLjIwADnkk9AMO8+NGuR+G4tA0GK28K6V5KR3KaQnlTXrBQC88333JOeMhecYrop0KrjP2aabldNt3S5Yq73v6O/nYiVSPuczTsney/vN26ferHM+MPC9x4L8UapoV3NBcXOnztbyS2zFo2ZT1UkA4/CsaiivcgpKKUndnBJpybirIKKKKskKKKKACiiigAooooAKKKKACiiigAooooAKKKKACiiigAooooAKKKKACiiigAooooAKKKKACiiigAooooAKKKKACiiigAooooAKKKKACiiigAooooAKKKKACiiigAooooAKKKKACiiigAooooAKKKKACiiigAooooAKKKKACiiigAooooAKKKKACiiigAooooAKKKKACiiigAooooAKKKKACiiigAooooAKKKKACiiigAooooAKKKKACiiigAooooAKKKKACiiigAooooAKKKKACiiigAooooAKKKKAOn0X/mKf8AYOn/APZa5iun0X/mKf8AYOn/APZa5imxIKKKKQwooooAKKKKACiiigAooooAKKKKACiiigAooooAKKKKACiiigAooooAKKKKACiiigAooooAKKKKACiiigAooooAKKKKACiiigAooooAKKKKACiiigAooooAKKKKACiiigAooooAKKKKACiiigAooooAKKKKACiiigAooooAKKKKACiiigAooooAKKKKACiiigAooooAKKKKACiiigAooooAKKKKACiiigAooooAKKKKACiiigAooooAKKKKACiiigAooooAKKKKACiiigAooooAKKKKACiiigAooooAKKKKACiiigAooooAKKKKACiiigAooooA/9k=;" vertex="1" parent="1">
          <mxGeometry x="260" y="90" width="520" height="89" as="geometry" />
        </mxCell>
        <mxCell id="OrkMJTo7WvPgTI57yorY-5" value="" style="edgeStyle=orthogonalEdgeStyle;rounded=0;orthogonalLoop=1;jettySize=auto;html=1;" edge="1" parent="1" source="OrkMJTo7WvPgTI57yorY-4" target="OrkMJTo7WvPgTI57yorY-3">
          <mxGeometry relative="1" as="geometry" />
        </mxCell>
        <mxCell id="OrkMJTo7WvPgTI57yorY-4" value="&lt;font style=&quot;font-size: 17px&quot;&gt;&lt;b&gt;网页标题&lt;/b&gt;&lt;/font&gt;" style="rounded=0;whiteSpace=wrap;html=1;" vertex="1" parent="1">
          <mxGeometry x="70" y="104.5" width="120" height="60" as="geometry" />
        </mxCell>
        <mxCell id="OrkMJTo7WvPgTI57yorY-7" value="" style="edgeStyle=orthogonalEdgeStyle;rounded=0;orthogonalLoop=1;jettySize=auto;html=1;fontSize=17;" edge="1" parent="1" source="OrkMJTo7WvPgTI57yorY-6" target="OrkMJTo7WvPgTI57yorY-2">
          <mxGeometry relative="1" as="geometry" />
        </mxCell>
        <mxCell id="OrkMJTo7WvPgTI57yorY-6" value="&lt;b&gt;网页中上传图片按钮以及预测按钮的设计&lt;/b&gt;" style="rounded=0;whiteSpace=wrap;html=1;fontSize=17;" vertex="1" parent="1">
          <mxGeometry x="30" y="272.25" width="160" height="84.5" as="geometry" />
        </mxCell>
      </root>
    </mxGraphModel>
  </diagram>
</mxfile>
